<svg width="480" height="480" viewBox="0 0 480 480" fill="none" xmlns="http://www.w3.org/2000/svg">
<g clip-path="url(#clip0_3461_55349)">
<mask id="mask0_3461_55349" style="mask-type:luminance" maskUnits="userSpaceOnUse" x="0" y="0" width="480" height="480">
<path d="M480 0H0V480H480V0Z" fill="white"/>
</mask>
<g mask="url(#mask0_3461_55349)">
<mask id="mask1_3461_55349" style="mask-type:luminance" maskUnits="userSpaceOnUse" x="-49" y="-72" width="609" height="609">
<path d="M559.831 -71.9141H-48.2812V536.198H559.831V-71.9141Z" fill="white"/>
<path fill-rule="evenodd" clip-rule="evenodd" d="M92.576 169.07L108.657 152.989L305.279 147.445L371.131 75.0587C382.945 62.0731 403.215 61.5943 415.627 74.0079C428.041 86.4215 427.563 106.691 414.577 118.504L343.839 182.858L352.727 364.871L336.647 380.953L267.651 252.171L170.592 340.471L179.363 416.655L163.281 432.737L130.716 376.747L109.551 396.001C105.101 400.051 98.2558 399.889 94.0018 395.635C89.7478 391.381 89.5862 384.535 93.6346 380.085L112.886 358.923L56.8848 326.345L72.9816 310.279L149.161 319.051L236.401 223.155L92.576 169.07Z" fill="black"/>
</mask>
<g mask="url(#mask1_3461_55349)">
<path d="M108.655 152.987L108.176 135.994C103.835 136.116 99.7055 137.895 96.6345 140.966L108.655 152.987ZM92.5741 169.068L80.5533 157.047C76.4681 161.133 74.7373 167.013 75.9577 172.66C77.1781 178.306 81.1829 182.947 86.5905 184.98L92.5741 169.068ZM305.277 147.443L305.755 164.436C310.375 164.306 314.741 162.301 317.851 158.883L305.277 147.443ZM343.837 182.856L332.397 170.281C328.641 173.698 326.609 178.614 326.857 183.685L343.837 182.856ZM352.725 364.869L364.747 376.891C368.139 373.499 369.939 368.831 369.705 364.041L352.725 364.869ZM336.645 380.951L321.659 388.979C324.199 393.721 328.835 396.981 334.157 397.769C339.481 398.555 344.861 396.777 348.665 392.973L336.645 380.951ZM267.649 252.169L282.633 244.141C280.159 239.523 275.695 236.303 270.531 235.415C265.367 234.527 260.083 236.069 256.209 239.595L267.649 252.169ZM170.59 340.469L159.15 327.893C155.104 331.575 153.076 336.977 153.702 342.413L170.59 340.469ZM179.361 416.653L191.382 428.673C195.05 425.005 196.843 419.863 196.249 414.709L179.361 416.653ZM163.279 432.735L148.584 441.281C151.237 445.841 155.856 448.913 161.088 449.593C166.319 450.273 171.57 448.485 175.3 444.755L163.279 432.735ZM130.714 376.745L145.409 368.199C142.827 363.759 138.378 360.725 133.303 359.943C128.228 359.161 123.072 360.715 119.274 364.171L130.714 376.745ZM112.884 358.921L125.459 370.361C128.914 366.563 130.468 361.407 129.686 356.333C128.904 351.259 125.871 346.809 121.433 344.227L112.884 358.921ZM56.8829 326.343L44.8737 314.311C41.1379 318.041 39.3459 323.293 40.0237 328.527C40.7015 333.761 43.7723 338.385 48.3347 341.039L56.8829 326.343ZM72.9797 310.277L74.9239 293.389C69.7757 292.797 64.6383 294.585 60.9705 298.245L72.9797 310.277ZM149.159 319.049L147.215 335.937C152.649 336.563 158.053 334.535 161.734 330.489L149.159 319.049ZM236.399 223.153L248.975 234.593C252.765 230.425 254.247 224.649 252.927 219.171C251.605 213.693 247.657 209.225 242.383 207.241L236.399 223.153ZM96.6345 140.966L80.5533 157.047L104.595 181.089L120.676 165.008L96.6345 140.966ZM304.797 130.45L108.176 135.994L109.135 169.98L305.755 164.436L304.797 130.45ZM358.555 63.6168L292.701 136.003L317.851 158.883L383.705 86.4968L358.555 63.6168ZM427.647 61.9852C408.371 42.71 376.899 43.4532 358.555 63.6168L383.705 86.4968C388.987 80.689 398.053 80.475 403.605 86.0268L427.647 61.9852ZM426.015 131.077C446.179 112.733 446.921 81.2604 427.647 61.9852L403.605 86.0268C409.157 91.5788 408.943 100.644 403.135 105.927L426.015 131.077ZM355.277 195.431L426.015 131.077L403.135 105.927L332.397 170.281L355.277 195.431ZM326.857 183.685L335.745 365.699L369.705 364.041L360.817 182.027L326.857 183.685ZM340.705 352.849L324.623 368.931L348.665 392.973L364.747 376.891L340.705 352.849ZM351.629 372.923L282.633 244.141L252.663 260.197L321.659 388.979L351.629 372.923ZM182.03 353.043L279.089 264.743L256.209 239.595L159.15 327.893L182.03 353.043ZM196.249 414.709L187.479 338.523L153.702 342.413L162.472 418.597L196.249 414.709ZM175.3 444.755L191.382 428.673L167.34 404.633L151.259 420.713L175.3 444.755ZM116.019 385.293L148.584 441.281L177.975 424.187L145.409 368.199L116.019 385.293ZM120.99 408.575L142.154 389.321L119.274 364.171L98.1095 383.425L120.99 408.575ZM81.9791 407.653C92.6513 418.325 109.825 418.731 120.99 408.575L98.1095 383.425C100.374 381.365 103.856 381.447 106.021 383.611L81.9791 407.653ZM81.0579 368.643C70.9013 379.807 71.3067 396.981 81.9791 407.653L106.021 383.611C108.185 385.775 108.267 389.259 106.208 391.523L81.0579 368.643ZM100.31 347.481L81.0579 368.643L106.208 391.523L125.459 370.361L100.31 347.481ZM48.3347 341.039L104.336 373.615L121.433 344.227L65.4311 311.649L48.3347 341.039ZM60.9705 298.245L44.8737 314.311L68.8921 338.377L84.9889 322.311L60.9705 298.245ZM151.103 302.159L74.9239 293.389L71.0355 327.167L147.215 335.937L151.103 302.159ZM223.825 211.713L136.584 307.609L161.734 330.489L248.975 234.593L223.825 211.713ZM86.5905 184.98L230.415 239.065L242.383 207.241L98.5577 153.156L86.5905 184.98Z" fill="#4B286D"/>
</g>
</g>
</g>
<defs>
<clipPath id="clip0_3461_55349">
<rect width="480" height="480" fill="white"/>
</clipPath>
</defs>
</svg>
