<?xml version="1.0" encoding="UTF-8"?><svg version="1.1" viewBox="0 0 30 30" xmlns="http://www.w3.org/2000/svg" xmlns:xlink="http://www.w3.org/1999/xlink"><!--Generated by IJSVG (https://github.com/iconjar/IJSVG)--><g fill="#4B286D"><path d="M21,23c-0.1,0 -0.2,0 -0.3,-0.1l-6,-5c-0.1,-0.1 -0.2,-0.2 -0.2,-0.4v-7c0,-0.3 0.2,-0.5 0.5,-0.5c0.3,0 0.5,0.2 0.5,0.5v6.8l5.8,4.8c0.2,0.2 0.3,0.5 0.1,0.7c-0.1,0.1 -0.3,0.2 -0.4,0.2Z"></path><path d="M2.9,10c-0.3,0 -0.6,-0.1 -0.9,-0.2c-0.9,-0.4 -1.5,-1.2 -1.5,-2.2v0c0,-0.6 0.2,-1.2 0.7,-1.7l4.2,-4.2c0.5,-0.5 1.1,-0.7 1.7,-0.7c1,0 1.8,0.6 2.2,1.5c0.4,0.9 0.2,1.9 -0.5,2.6l-4.2,4.2c-0.5,0.5 -1.1,0.7 -1.7,0.7Zm4.2,-8c-0.4,0 -0.7,0.1 -1,0.4l-4.2,4.2c-0.3,0.3 -0.4,0.6 -0.4,1v0c0,0.7 0.4,1.1 0.9,1.3c0.4,0.2 1,0.2 1.5,-0.3l4.2,-4.2c0.5,-0.5 0.5,-1.1 0.3,-1.5c-0.2,-0.5 -0.6,-0.9 -1.3,-0.9Z"></path><path d="M27.1,10c-0.6,0 -1.2,-0.2 -1.7,-0.7l-4.2,-4.2c-0.7,-0.7 -0.9,-1.7 -0.5,-2.6c0.4,-0.9 1.2,-1.5 2.2,-1.5c0.6,0 1.2,0.2 1.7,0.7l4.2,4.2c0.4,0.4 0.7,1 0.7,1.7v0c0,1 -0.6,1.8 -1.5,2.2c-0.3,0.1 -0.6,0.2 -0.9,0.2Zm-4.2,-8c-0.7,0 -1.1,0.4 -1.3,0.9c-0.2,0.4 -0.2,1 0.3,1.5l4.2,4.2c0.5,0.5 1.1,0.5 1.5,0.3c0.4,-0.2 0.9,-0.6 0.9,-1.3v0c0,-0.4 -0.1,-0.7 -0.4,-1l-4.2,-4.2c-0.3,-0.3 -0.6,-0.4 -1,-0.4Z"></path><path d="M15,29c-6.3,0 -11.5,-5.2 -11.5,-11.5c0,-6.3 5.2,-11.5 11.5,-11.5c6.3,0 11.5,5.2 11.5,11.5c0,6.3 -5.2,11.5 -11.5,11.5Zm0,-22c-5.8,0 -10.5,4.7 -10.5,10.5c0,5.8 4.7,10.5 10.5,10.5c5.8,0 10.5,-4.7 10.5,-10.5c0,-5.8 -4.7,-10.5 -10.5,-10.5Z"></path></g></svg>