<?xml version="1.0" encoding="UTF-8"?><svg version="1.1" viewBox="0 0 30 30" xmlns="http://www.w3.org/2000/svg" xmlns:xlink="http://www.w3.org/1999/xlink"><!--Generated by IJSVG (https://github.com/iconjar/IJSVG)--><g stroke-linecap="round" stroke-width="1" stroke="#4B286D" fill="none" stroke-linejoin="round"><path d="M16.0607,20.9393c0.585786,0.585786 0.585786,1.53553 0,2.12132c-0.585786,0.585786 -1.53553,0.585786 -2.12132,0c-0.585786,-0.585786 -0.585786,-1.53553 0,-2.12132c0.585786,-0.585786 1.53553,-0.585786 2.12132,0"></path><path d="M29.133,23.061l-11.5,-21l-5.743e-08,-1.05169e-07c-0.794083,-1.45417 -2.61665,-1.98927 -4.07081,-1.19519c-0.504712,0.27561 -0.919575,0.690474 -1.19519,1.19519l-11.5,21l5.4684e-08,-1.00033e-07c-0.794738,1.45381 -0.260456,3.27661 1.19335,4.07135c0.441462,0.241329 0.936529,0.367756 1.43965,0.367648h23l-1.27011e-07,-2.74234e-11c1.65685,0.000357767 3.00029,-1.3425 3.00065,-2.99935c0.000108639,-0.503119 -0.126318,-0.998186 -0.367648,-1.43965Z"></path><path d="M16.25,8.75v0.088l-0.625,9.287v0.038c-0.025,0.324 -0.3,0.587 -0.625,0.587c-0.325,0 -0.6,-0.263 -0.625,-0.587v-0.038l-0.625,-9.287v-0.088c0,-0.687 0.563,-1.25 1.25,-1.25c0.687,0 1.25,0.563 1.25,1.25Z"></path></g></svg>