<?xml version="1.0" encoding="UTF-8"?><svg version="1.1" viewBox="0 0 30 30" xmlns="http://www.w3.org/2000/svg" xmlns:xlink="http://www.w3.org/1999/xlink"><!--Generated by IJSVG (https://github.com/iconjar/IJSVG)--><path d="M19.11,21.687c-0.01,0.013 -1.114,1.313 -4.11,1.313c-2.98,0 -4.088,-1.286 -4.11,-1.313c-0.171,-0.213 -0.482,-0.249 -0.699,-0.08c-0.217,0.171 -0.254,0.485 -0.084,0.702c0.054,0.069 1.371,1.691 4.893,1.691c3.522,0 4.839,-1.622 4.893,-1.69c0.169,-0.216 0.131,-0.525 -0.082,-0.697c-0.213,-0.171 -0.527,-0.136 -0.701,0.074Zm-7.51,-4.887c0.098,0.131 0.248,0.2 0.4,0.2c0.105,0 0.21,-0.033 0.299,-0.1c0.221,-0.166 0.266,-0.479 0.1,-0.7c-0.037,-0.049 -0.917,-1.2 -2.4,-1.2c-1.483,0 -2.363,1.151 -2.4,1.2c-0.165,0.22 -0.12,0.531 0.099,0.697c0.218,0.166 0.532,0.122 0.7,-0.095c0.006,-0.008 0.628,-0.802 1.602,-0.802c0.974,0 1.596,0.795 1.6,0.8Zm15.321,-3.956c-1.082,-3.548 -3.662,-6.349 -6.921,-7.785v-2.559c0,-0.276 -0.224,-0.5 -0.5,-0.5c-0.276,0 -0.5,0.224 -0.5,0.5v2.166c-0.647,-0.221 -1.315,-0.39 -2,-0.502v-2.664c0,-0.276 -0.224,-0.5 -0.5,-0.5c-0.276,0 -0.5,0.224 -0.5,0.5v2.542c-0.331,-0.027 -0.664,-0.041 -1,-0.041c-0.336,0 -0.669,0.014 -1,0.041v-2.542c0,-0.276 -0.224,-0.5 -0.5,-0.5c-0.276,0 -0.5,0.224 -0.5,0.5v2.664c-0.685,0.112 -1.353,0.281 -2,0.502v-2.166c0,-0.276 -0.224,-0.5 -0.5,-0.5c-0.276,0 -0.5,0.224 -0.5,0.5v2.559c-3.259,1.436 -5.839,4.237 -6.921,7.785c-1.656,-0.032 -3.079,1.337 -3.079,3.025c0,1.581 1.218,2.883 2.763,3.015c1.131,5.887 6.21,10.116 12.237,10.116c6.027,0 11.106,-4.229 12.237,-10.116c1.545,-0.132 2.763,-1.434 2.763,-3.015c0,-1.688 -1.387,-3.051 -3.079,-3.025Zm0.039,5.046h-0.007c-0.012,-0.001 -0.092,-0.01 -0.105,-0.011c-0.241,-0.008 -0.485,0.166 -0.525,0.421c-0.884,5.62 -5.646,9.699 -11.323,9.699c-5.677,0 -10.439,-4.079 -11.323,-9.699c-0.039,-0.244 -0.25,-0.422 -0.494,-0.422c-0.011,0 -0.021,0.001 -0.032,0.001l-0.129,0.015c-1.115,-3.55271e-15 -2.022,-0.909 -2.022,-2.026c0,-1.117 0.907,-2.026 2.022,-2.026c0.116,0 0.228,0.016 0.338,0.035c0.254,0.044 0.5,-0.113 0.567,-0.363c0.883,-3.293 3.154,-5.925 6.073,-7.349v1.335c0,0.276 0.224,0.5 0.5,0.5c0.276,0 0.5,-0.224 0.5,-0.5v-1.767c0.644,-0.242 1.312,-0.431 2,-0.553v1.32c0,0.276 0.224,0.5 0.5,0.5c0.276,0 0.5,-0.224 0.5,-0.5v-1.455c0.33,-0.029 0.664,-0.045 1,-0.045c0.336,0 0.67,0.016 1,0.045v1.455c0,0.276 0.224,0.5 0.5,0.5c0.276,0 0.5,-0.224 0.5,-0.5v-1.32c0.688,0.123 1.356,0.312 2,0.553v1.767c0,0.276 0.224,0.5 0.5,0.5c0.276,0 0.5,-0.224 0.5,-0.5v-1.335c2.919,1.424 5.19,4.057 6.073,7.349c0.067,0.249 0.312,0.406 0.567,0.363c0.11,-0.018 0.222,-0.035 0.338,-0.035c1.115,0 2.022,0.909 2.022,2.026c0,1.115 -0.904,2.022 -2.04,2.022Zm-6.961,-2.89c-1.483,0 -2.363,1.151 -2.4,1.2c-0.165,0.22 -0.12,0.531 0.099,0.697c0.218,0.166 0.532,0.122 0.7,-0.095c0.006,-0.008 0.628,-0.802 1.602,-0.802c0.974,0 1.596,0.795 1.6,0.8c0.098,0.131 0.248,0.2 0.4,0.2c0.105,0 0.21,-0.033 0.299,-0.1c0.221,-0.166 0.266,-0.479 0.1,-0.7c-0.037,-0.049 -0.917,-1.2 -2.4,-1.2Z" fill="#4B286D"></path></svg>