<?xml version="1.0" encoding="UTF-8"?><svg version="1.1" viewBox="0 0 30 30" xmlns="http://www.w3.org/2000/svg" xmlns:xlink="http://www.w3.org/1999/xlink"><!--Generated by IJSVG (https://github.com/iconjar/IJSVG)--><g stroke-linecap="round" stroke-width="1" stroke="#4B286D" fill="none" stroke-linejoin="round"><path d="M8.26,8.3l-0.24,1.7c0,0 -0.34,2.38 1.07,9.16c0.77,3.65 2.05,7.41 4.24,9.75"></path><path d="M21.78,21.66l-0.63,-0.01c0,0 -5.82,-0.11 -12.06,-2.49"></path><path d="M24.5962,5.40381c2.53841,2.53841 2.53841,6.65398 0,9.19239c-2.53841,2.53841 -6.65398,2.53841 -9.19239,1.77636e-15c-2.53841,-2.53841 -2.53841,-6.65398 -1.77636e-15,-9.19239c2.53841,-2.53841 6.65398,-2.53841 9.19239,-8.88178e-16"></path><path d="M17.462,6.837l5.25512e-08,-4.96549e-08c0.376541,-0.355788 0.970212,-0.338965 1.326,0.0375767c0.341616,0.361542 0.341616,0.926882 -9.93098e-08,1.28842m3.049,3.049l5.25512e-08,-4.96549e-08c0.376541,-0.355788 0.970212,-0.338965 1.326,0.0375767c0.341616,0.361542 0.341616,0.926882 -9.93098e-08,1.28842m-3.788,0.587c-0.64,0 -1.28,-0.244 -1.768,-0.732c-0.488,-0.488 -0.732,-1.128 -0.732,-1.768"></path><path d="M20,0.5l-3.21106e-07,-3.97939e-10c-2.52022,-0.0031232 -4.93783,0.998035 -6.718,2.782l-10,10l1.44494e-07,-1.44187e-07c-1.78397,1.78017 -2.78512,4.19778 -2.782,6.718l1.10134e-13,1.43446e-06c7.9223e-07,5.24671 4.2533,9.5 9.5,9.5l-5.07137e-07,-6.28496e-10c2.52022,0.00312342 4.93783,-0.998034 6.718,-2.782l10,-10l4.20194e-07,-4.193e-07c1.78396,-1.78017 2.78512,-4.19778 2.782,-6.718l1.77636e-14,5.93612e-07c0,-5.2467 -4.25329,-9.5 -9.5,-9.5Z"></path></g></svg>