<?xml version="1.0" encoding="UTF-8"?><svg version="1.1" viewBox="0 0 30 30" xmlns="http://www.w3.org/2000/svg" xmlns:xlink="http://www.w3.org/1999/xlink"><!--Generated by IJSVG (https://github.com/iconjar/IJSVG)--><path d="M26.92,13.843c-0.477,-1.561 -1.279,-3.024 -2.318,-4.288c0.267,-0.478 0.398,-1.024 0.398,-1.555c0,-0.793 -0.256,-1.43 -0.443,-1.894c-0.095,-0.235 -0.193,-0.48 -0.193,-0.605c0,-0.125 0.098,-0.369 0.193,-0.605c0.188,-0.465 0.443,-1.102 0.443,-1.895c0,-1.445 -0.953,-3 -3.045,-3c-1.576,0 -3.2,0.794 -4.367,2.096c-0.699,-0.674 -1.596,-1.097 -2.588,-1.097c-0.991,0 -1.888,0.423 -2.588,1.097c-1.166,-1.302 -2.791,-2.097 -4.367,-2.097c-2.092,0 -3.045,1.555 -3.045,3c0,0.793 0.256,1.43 0.443,1.895c0.096,0.235 0.193,0.48 0.193,0.605c0,0.125 -0.097,0.369 -0.193,0.605c-0.187,0.465 -0.443,1.102 -0.443,1.895c0,0.531 0.131,1.077 0.398,1.555c-1.04,1.264 -1.841,2.727 -2.319,4.289c-1.667,-0.038 -3.079,1.337 -3.079,3.025c0,1.581 1.218,2.883 2.763,3.015c1.131,5.887 6.211,10.116 12.237,10.116c6.027,0 11.106,-4.229 12.236,-10.117c1.545,-0.132 2.764,-1.433 2.764,-3.015c0,-1.688 -1.357,-3.058 -3.08,-3.025Zm-8.685,-10.968c0.811,-0.95 2.145,-1.875 3.721,-1.875c1.508,0 2.044,1.077 2.044,2c0,0.6 -0.197,1.089 -0.371,1.522c-0.143,0.354 -0.266,0.66 -0.266,0.979c0,0.319 0.123,0.625 0.266,0.979c0.175,0.432 0.371,0.921 0.371,1.521c0,0.923 -0.535,2 -2.045,2c-1.575,0 -2.91,-0.926 -3.72,-1.876c0.477,-0.741 0.765,-1.643 0.765,-2.625c0,-0.982 -0.288,-1.884 -0.765,-2.625Zm-3.235,-0.875c1.654,0 3,1.57 3,3.5c0,1.93 -1.346,3.5 -3,3.5c-1.654,0 -3,-1.57 -3,-3.5c0,-1.93 1.346,-3.5 3,-3.5Zm-8.628,2.52c-0.174,-0.432 -0.372,-0.921 -0.372,-1.521c0,-0.923 0.535,-2 2.045,-2c1.575,0 2.91,0.926 3.72,1.876c-0.476,0.741 -0.765,1.643 -0.765,2.625c0,0.982 0.289,1.884 0.765,2.625c-0.81,0.95 -2.145,1.875 -3.72,1.875c-1.509,0 -2.045,-1.077 -2.045,-2c0,-0.6 0.197,-1.089 0.371,-1.522c0.143,-0.354 0.266,-0.66 0.266,-0.979c0.001,-0.319 -0.122,-0.625 -0.265,-0.979Zm20.589,14.371h-0.007c-0.012,-0.001 -0.092,-0.01 -0.105,-0.011c-0.239,-0.012 -0.484,0.166 -0.525,0.421c-0.884,5.62 -5.647,9.699 -11.324,9.699c-5.677,0 -10.438,-4.079 -11.325,-9.698c-0.04,-0.254 -0.274,-0.432 -0.525,-0.421l-0.129,0.015c-1.115,0 -2.021,-0.909 -2.021,-2.026c0,-1.117 0.907,-2.026 2.022,-2.026c0.116,0 0.228,0.016 0.338,0.035c0.256,0.046 0.5,-0.113 0.567,-0.363c0.407,-1.517 1.15,-2.945 2.132,-4.18c0.486,0.401 1.138,0.664 1.986,0.664c1.575,0 3.201,-0.795 4.368,-2.097c0.7,0.674 1.596,1.097 2.587,1.097c0.992,0 1.888,-0.423 2.588,-1.097c1.167,1.302 2.792,2.097 4.368,2.097c0.849,0 1.5,-0.263 1.987,-0.664c0.982,1.234 1.724,2.661 2.131,4.179c0.067,0.249 0.311,0.408 0.567,0.363c0.11,-0.018 0.222,-0.035 0.338,-0.035c1.115,0 2.022,0.909 2.022,2.026c-0.001,1.115 -0.905,2.022 -2.04,2.022Zm-15.36,-1.091c0.098,0.131 0.248,0.2 0.4,0.2c0.105,0 0.21,-0.033 0.299,-0.1c0.221,-0.166 0.266,-0.479 0.1,-0.7c-0.038,-0.049 -0.918,-1.2 -2.4,-1.2c-1.483,0 -2.363,1.151 -2.4,1.2c-0.165,0.22 -0.12,0.531 0.099,0.697c0.219,0.165 0.533,0.123 0.7,-0.095c0.005,-0.008 0.627,-0.802 1.601,-0.802c0.974,0 1.596,0.795 1.601,0.8Zm8.399,-1.8c-1.483,0 -2.363,1.151 -2.4,1.2c-0.165,0.22 -0.12,0.531 0.099,0.697c0.219,0.165 0.533,0.123 0.7,-0.095c0.005,-0.008 0.627,-0.802 1.601,-0.802c0.974,0 1.596,0.795 1.6,0.8c0.098,0.131 0.248,0.2 0.4,0.2c0.105,0 0.21,-0.033 0.299,-0.1c0.221,-0.166 0.266,-0.479 0.1,-0.7c-0.037,-0.049 -0.917,-1.2 -2.399,-1.2Zm-0.89,6.687c-0.009,0.013 -1.113,1.313 -4.11,1.313c-2.98,0 -4.088,-1.286 -4.11,-1.313c-0.171,-0.213 -0.481,-0.249 -0.699,-0.08c-0.217,0.171 -0.254,0.485 -0.084,0.702c0.054,0.069 1.372,1.691 4.893,1.691c3.522,0 4.839,-1.622 4.893,-1.69c0.169,-0.216 0.131,-0.525 -0.082,-0.697c-0.212,-0.171 -0.525,-0.137 -0.701,0.074Z" fill="#4B286D"></path></svg>