<?xml version="1.0" encoding="UTF-8"?><svg version="1.1" viewBox="0 0 30 30" xmlns="http://www.w3.org/2000/svg" xmlns:xlink="http://www.w3.org/1999/xlink"><!--Generated by IJSVG (https://github.com/iconjar/IJSVG)--><g fill="#4B286D"><path d="M29.5,30h-29c-0.276,0 -0.5,-0.224 -0.5,-0.5c0,-0.276 0.224,-0.5 0.5,-0.5h29c0.276,0 0.5,0.224 0.5,0.5c0,0.276 -0.224,0.5 -0.5,0.5Z"></path><path d="M6.5,30h-4c-0.276,0 -0.5,-0.224 -0.5,-0.5v-8c0,-0.276 0.224,-0.5 0.5,-0.5h4c0.276,0 0.5,0.224 0.5,0.5v8c0,0.276 -0.224,0.5 -0.5,0.5Zm-3.5,-1h3v-7h-3v7Z"></path><path d="M13.5,30h-4c-0.276,0 -0.5,-0.224 -0.5,-0.5v-14c0,-0.276 0.224,-0.5 0.5,-0.5h4c0.276,0 0.5,0.224 0.5,0.5v14c0,0.276 -0.224,0.5 -0.5,0.5Zm-3.5,-1h3v-13h-3v13Z"></path><path d="M20.5,30h-4c-0.276,0 -0.5,-0.224 -0.5,-0.5v-11c0,-0.276 0.224,-0.5 0.5,-0.5h4c0.276,0 0.5,0.224 0.5,0.5v11c0,0.276 -0.224,0.5 -0.5,0.5Zm-3.5,-1h3v-10h-3v10Z"></path><path d="M27.5,30h-4c-0.276,0 -0.5,-0.224 -0.5,-0.5v-19c0,-0.276 0.224,-0.5 0.5,-0.5h4c0.276,0 0.5,0.224 0.5,0.5v19c0,0.276 -0.224,0.5 -0.5,0.5Zm-3.5,-1h3v-18h-3v18Z"></path><path d="M4.5,16c-1.379,0 -2.5,-1.122 -2.5,-2.5c0,-1.378 1.121,-2.5 2.5,-2.5c1.379,0 2.5,1.122 2.5,2.5c0,1.378 -1.121,2.5 -2.5,2.5Zm0,-4c-0.827,0 -1.5,0.673 -1.5,1.5c0,0.827 0.673,1.5 1.5,1.5c0.827,0 1.5,-0.673 1.5,-1.5c0,-0.827 -0.673,-1.5 -1.5,-1.5Z"></path><path d="M11.5,10c-1.379,0 -2.5,-1.122 -2.5,-2.5c0,-1.378 1.121,-2.5 2.5,-2.5c1.379,0 2.5,1.122 2.5,2.5c0,1.378 -1.121,2.5 -2.5,2.5Zm0,-4c-0.827,0 -1.5,0.673 -1.5,1.5c0,0.827 0.673,1.5 1.5,1.5c0.827,0 1.5,-0.673 1.5,-1.5c0,-0.827 -0.673,-1.5 -1.5,-1.5Z"></path><path d="M18.5,13c-1.379,0 -2.5,-1.122 -2.5,-2.5c0,-1.378 1.121,-2.5 2.5,-2.5c1.379,0 2.5,1.122 2.5,2.5c0,1.378 -1.121,2.5 -2.5,2.5Zm0,-4c-0.827,0 -1.5,0.673 -1.5,1.5c0,0.827 0.673,1.5 1.5,1.5c0.827,0 1.5,-0.673 1.5,-1.5c0,-0.827 -0.673,-1.5 -1.5,-1.5Z"></path><path d="M25.5,5c-1.379,0 -2.5,-1.122 -2.5,-2.5c0,-1.378 1.121,-2.5 2.5,-2.5c1.379,0 2.5,1.122 2.5,2.5c0,1.378 -1.121,2.5 -2.5,2.5Zm0,-4c-0.827,0 -1.5,0.673 -1.5,1.5c0,0.827 0.673,1.5 1.5,1.5c0.827,0 1.5,-0.673 1.5,-1.5c0,-0.827 -0.673,-1.5 -1.5,-1.5Z"></path><path d="M6.01,12.7c-0.141,0 -0.281,-0.06 -0.38,-0.175c-0.18,-0.21 -0.155,-0.525 0.055,-0.705l3.98,-3.4c0.211,-0.178 0.526,-0.154 0.705,0.056c0.18,0.209 0.155,0.524 -0.055,0.704l-3.98,3.4c-0.095,0.081 -0.21,0.12 -0.325,0.12Z"></path><path d="M19.81,9.5c-0.117,0 -0.234,-0.041 -0.329,-0.124c-0.208,-0.182 -0.229,-0.498 -0.047,-0.706l4.381,-5c0.182,-0.208 0.499,-0.227 0.705,-0.046c0.208,0.182 0.229,0.498 0.047,0.706l-4.381,5c-0.099,0.112 -0.238,0.17 -0.376,0.17Z"></path><path d="M16.66,10.21c-0.065,0 -0.133,-0.013 -0.196,-0.04l-3.32,-1.42c-0.254,-0.109 -0.372,-0.403 -0.264,-0.657c0.108,-0.253 0.403,-0.372 0.656,-0.263l3.32,1.42c0.254,0.109 0.372,0.403 0.264,0.657c-0.081,0.189 -0.266,0.303 -0.46,0.303Z"></path></g></svg>