<?xml version="1.0" encoding="UTF-8"?><svg version="1.1" viewBox="0 0 30 30" xmlns="http://www.w3.org/2000/svg" xmlns:xlink="http://www.w3.org/1999/xlink"><!--Generated by IJSVG (https://github.com/iconjar/IJSVG)--><g fill="#4B286D"><path d="M7,30h-6c-0.3,0 -0.5,-0.2 -0.5,-0.5v-15c0,-0.3 0.2,-0.5 0.5,-0.5h6c0.3,0 0.5,0.2 0.5,0.5v15c0,0.3 -0.2,0.5 -0.5,0.5Zm-5.5,-1h5v-14h-5v14Z"></path><path d="M18,30h-6c-0.3,0 -0.5,-0.2 -0.5,-0.5v-29c0,-0.3 0.2,-0.5 0.5,-0.5h6c0.3,0 0.5,0.2 0.5,0.5v29c0,0.3 -0.2,0.5 -0.5,0.5Zm-5.5,-1h5v-28h-5v28Z"></path><path d="M29,30h-6c-0.3,0 -0.5,-0.2 -0.5,-0.5v-23c0,-0.3 0.2,-0.5 0.5,-0.5h6c0.3,0 0.5,0.2 0.5,0.5v23c0,0.3 -0.2,0.5 -0.5,0.5Zm-5.5,-1h5v-22h-5v22Z"></path></g></svg>