<?xml version="1.0" encoding="UTF-8"?><svg version="1.1" viewBox="0 0 30 30" xmlns="http://www.w3.org/2000/svg" xmlns:xlink="http://www.w3.org/1999/xlink"><!--Generated by IJSVG (https://github.com/iconjar/IJSVG)--><g fill="#4B286D"><path d="M29.5,30h-29c-0.276,0 -0.5,-0.224 -0.5,-0.5v-29c0,-0.276 0.224,-0.5 0.5,-0.5c0.276,0 0.5,0.224 0.5,0.5v28.5h28.5c0.276,0 0.5,0.224 0.5,0.5c0,0.276 -0.224,0.5 -0.5,0.5Z"></path><path d="M9.5,27h-6c-0.276,0 -0.5,-0.224 -0.5,-0.5v-11c0,-0.276 0.224,-0.5 0.5,-0.5h6c0.276,0 0.5,0.224 0.5,0.5v11c0,0.276 -0.224,0.5 -0.5,0.5Zm-5.5,-1h5v-10h-5v10Z"></path><path d="M19.5,27h-6c-0.276,0 -0.5,-0.224 -0.5,-0.5v-18c0,-0.276 0.224,-0.5 0.5,-0.5h6c0.276,0 0.5,0.224 0.5,0.5v18c0,0.276 -0.224,0.5 -0.5,0.5Zm-5.5,-1h5v-17h-5v17Z"></path><path d="M29.5,27h-6c-0.276,0 -0.5,-0.224 -0.5,-0.5v-26c0,-0.276 0.224,-0.5 0.5,-0.5h6c0.276,0 0.5,0.224 0.5,0.5v26c0,0.276 -0.224,0.5 -0.5,0.5Zm-5.5,-1h5v-25h-5v25Z"></path></g></svg>