<?xml version="1.0" encoding="UTF-8"?><svg version="1.1" viewBox="0 0 30 30" xmlns="http://www.w3.org/2000/svg" xmlns:xlink="http://www.w3.org/1999/xlink"><!--Generated by IJSVG (https://github.com/iconjar/IJSVG)--><g fill="#4B286D"><path d="M21.1,30h-12.2c-1.9,0 -3.3,-1.4 -3.3,-3.3v-20c0,-1.9 1.4,-3.3 3.3,-3.3h2.2v-2.8c0,-0.3 0.2,-0.6 0.6,-0.6h6.7c0.3,0 0.6,0.2 0.6,0.6v2.8h2.2c1.9,0 3.3,1.4 3.3,3.3v20c-0.1,1.9 -1.5,3.3 -3.4,3.3Zm-12.2,-25.6c-1.2,1.77636e-15 -2.2,1 -2.2,2.2v20c0,1.2 1,2.2 2.2,2.2h12.2c1.2,0 2.2,-1 2.2,-2.2v-20c0,-1.2 -1,-2.2 -2.2,-2.2h-2.8c-0.3,0 -0.6,-0.2 -0.6,-0.6v-2.7h-5.6v2.8c0,0.3 -0.2,0.6 -0.6,0.6h-2.6Z"></path><path d="M15,25.6h-0.1c-0.2,0 -0.4,-0.3 -0.4,-0.6v-6.1h-3.9c-0.2,0 -0.3,-0.1 -0.4,-0.2c-0.2,-0.1 -0.2,-0.4 -0.2,-0.6l4.4,-11.1c0.1,-0.2 0.3,-0.3 0.7,-0.3c0.2,0 0.4,0.3 0.4,0.6v7.2h3.9c0.2,0 0.3,0.1 0.4,0.2c0.1,0.1 0.1,0.3 0,0.6l-4.4,10c3.55271e-15,0.1 -0.2,0.3 -0.4,0.3Zm-3.7,-7.8h3.7c0.3,0 0.6,0.2 0.6,0.6v4l3,-6.8h-3.6c-0.3,0 -0.6,-0.2 -0.6,-0.6v-4.9l-3.1,7.7Z"></path></g></svg>