<?xml version="1.0" encoding="UTF-8"?><svg version="1.1" viewBox="0 0 30 30" xmlns="http://www.w3.org/2000/svg" xmlns:xlink="http://www.w3.org/1999/xlink"><!--Generated by IJSVG (https://github.com/iconjar/IJSVG)--><g fill="#4B286D"><path d="M26.979,26h-23.958c-0.179,0 -0.344,-0.095 -0.433,-0.25c-0.09,-0.154 -0.09,-0.345 -0.001,-0.499l2.014,-3.5c0.943,-1.572 1.399,-3.362 1.399,-5.481v-3.161c0,-4.713 4.121,-8.695 9,-8.695c4.879,0 9,3.982 9,8.695v3.161c0,2.119 0.456,3.909 1.394,5.474l2.019,3.508c0.089,0.154 0.089,0.345 -0.001,0.499c-0.09,0.154 -0.255,0.249 -0.433,0.249Zm-23.093,-1h22.229l-1.583,-2.751c-1.03,-1.716 -1.532,-3.674 -1.532,-5.979v-3.161c0,-4.171 -3.663,-7.695 -8,-7.695c-4.337,0 -8,3.524 -8,7.695v3.161c0,2.306 -0.502,4.264 -1.536,5.987l-1.578,2.743Z"></path><path d="M15,30c-1.666,0 -3.021,-1.355 -3.021,-3.021c0,-0.534 0.142,-1.058 0.408,-1.514c0.14,-0.237 0.444,-0.316 0.685,-0.179c0.238,0.14 0.318,0.446 0.179,0.685c-0.175,0.299 -0.271,0.656 -0.271,1.008c-0.001,1.114 0.906,2.021 2.02,2.021c1.114,0 2.021,-0.907 2.021,-2.021c0,-0.352 -0.097,-0.709 -0.271,-1.008c-0.14,-0.238 -0.06,-0.545 0.179,-0.685c0.239,-0.137 0.545,-0.059 0.685,0.179c0.267,0.456 0.408,0.979 0.408,1.514c-0.001,1.666 -1.356,3.021 -3.022,3.021Z"></path><path d="M16.5,5.55c-0.276,0 -0.5,-0.224 -0.5,-0.5v-3.05c0,-0.552 -0.448,-1 -1,-1c-0.552,0 -1,0.448 -1,1v3.05c0,0.276 -0.224,0.5 -0.5,0.5c-0.276,0 -0.5,-0.224 -0.5,-0.5v-3.05c0,-1.103 0.897,-2 2,-2c1.103,0 2,0.897 2,2v3.05c0,0.276 -0.224,0.5 -0.5,0.5Z"></path></g></svg>