<?xml version="1.0" encoding="UTF-8"?><svg version="1.1" viewBox="0 0 30 30" xmlns="http://www.w3.org/2000/svg" xmlns:xlink="http://www.w3.org/1999/xlink"><!--Generated by IJSVG (https://github.com/iconjar/IJSVG)--><g stroke-linecap="round" stroke-width="1" stroke="#4B286D" fill="none" stroke-linejoin="round"><path d="M25.5,28.25c0,1.09 -1.31,1.65 -2.09,0.9l-7.03,-6.69c-0.77,-0.74 -1.99,-0.74 -2.76,0l-7.03,6.69c-0.79,0.75 -2.09,0.19 -2.09,-0.9v-25.75c0,-1.1 0.9,-2 2,-2h17c1.1,0 2,0.9 2,2c0,0 0,25.75 0,25.75Z"></path><path d="M15,14.99l-4.22,2.33l0.81,-4.94l-3.41,-3.5l4.72,-0.72l2.1,-4.49l2.11,4.49l4.72,0.72l-3.41,3.5l0.81,4.94l-4.23,-2.33Z"></path></g></svg>