<?xml version="1.0" encoding="UTF-8"?><svg version="1.1" viewBox="0 0 30 30" xmlns="http://www.w3.org/2000/svg" xmlns:xlink="http://www.w3.org/1999/xlink"><!--Generated by IJSVG (https://github.com/iconjar/IJSVG)--><g fill="#4B286D"><path d="M15.1,18c-1.6,0 -3.3,-0.2 -4.7,-0.5l-10,-3.1c-0.3,-0.1 -0.5,-0.4 -0.4,-0.7c0.1,-0.3 0.4,-0.4 0.6,-0.3l10,3.1c2.7,0.6 6.3,0.6 8.7,0l10,-3.1c0.3,-0.1 0.5,0.1 0.6,0.3c0.1,0.2 -0.1,0.5 -0.3,0.6l-10,3.1c-1.3,0.4 -2.9,0.6 -4.5,0.6Z"></path><path d="M28.5,28h-27c-1,0 -1.5,-1 -1.5,-2v-18.5c0,-1 0.5,-1.5 1.5,-1.5h27c1,0 1.5,0.5 1.5,1.5v18.5c0,1 -0.5,2 -1.5,2Zm-27,-21c-0.4,0 -0.5,0.1 -0.5,0.5v18.5c0,0.4 0.2,1 0.5,1h27c0.3,0 0.5,-0.6 0.5,-1v-18.5c0,-0.4 -0.1,-0.5 -0.5,-0.5h-27Z"></path><path d="M19.5,7h-9c-0.3,0 -0.5,-0.2 -0.5,-0.5v-3c0,-1 0.5,-1.5 1.5,-1.5h7c1,0 1.5,0.5 1.5,1.5v3c0,0.3 -0.2,0.5 -0.5,0.5Zm-8.5,-1h8v-2.5c0,-0.4 -0.1,-0.5 -0.5,-0.5h-7c-0.4,0 -0.5,0.1 -0.5,0.5v2.5Z"></path><path d="M15,15c-1.1,0 -2,-0.9 -2,-2c0,-1.1 0.9,-2 2,-2c1.1,0 2,0.9 2,2c0,1.1 -0.9,2 -2,2Zm0,-3c-0.6,0 -1,0.4 -1,1c0,0.6 0.4,1 1,1c0.6,0 1,-0.4 1,-1c0,-0.6 -0.4,-1 -1,-1Z"></path></g></svg>