<?xml version="1.0" encoding="UTF-8"?><svg version="1.1" viewBox="0 0 30 30" xmlns="http://www.w3.org/2000/svg" xmlns:xlink="http://www.w3.org/1999/xlink"><!--Generated by IJSVG (https://github.com/iconjar/IJSVG)--><g stroke-linecap="round" stroke-width="1" stroke="#4B286D" fill="none" stroke-linejoin="round"><path d="M16.1213,13.8787c1.17157,1.17157 1.17157,3.07107 0,4.24264c-1.17157,1.17157 -3.07107,1.17157 -4.24264,0c-1.17157,-1.17157 -1.17157,-3.07107 0,-4.24264c1.17157,-1.17157 3.07107,-1.17157 4.24264,0"></path><path d="M18.08,9.09c-3.83,-2.27 -8.77,-1 -11.03,2.83c-2.27,3.83 -1,8.77 2.83,11.03c3.83,2.27 8.77,1 11.03,-2.83c1.5,-2.53 1.5,-5.67 0,-8.2"></path><path d="M21.66,5.51c-5.81,-4.25 -13.97,-2.98 -18.22,2.83c-4.25,5.81 -2.99,13.97 2.83,18.22c5.81,4.25 13.97,2.99 18.22,-2.83c3.35,-4.58 3.35,-10.81 0,-15.39"></path><path d="M24,6h2.5l2.5,-2h-3v-3l-2,2.5v2.5l-10,10"></path></g></svg>