<?xml version="1.0" encoding="UTF-8"?><svg version="1.1" viewBox="0 0 30 30" xmlns="http://www.w3.org/2000/svg" xmlns:xlink="http://www.w3.org/1999/xlink"><!--Generated by IJSVG (https://github.com/iconjar/IJSVG)--><g stroke-linecap="round" stroke-width="1" stroke="#4B286D" fill="none" stroke-linejoin="round"><path d="M27.5,29.5h-25h-8.74228e-08c-1.10457,-4.82823e-08 -2,-0.895431 -2,-2c0,0 0,0 0,0v-22l2.13163e-14,3.01992e-07c-1.66785e-07,-1.10457 0.89543,-2 2,-2h25h-8.74228e-08c1.10457,-4.82823e-08 2,0.89543 2,2v22v0c0,1.10457 -0.895431,2 -2,2Zm-26.875,-19h28.75m-21.875,-10v6m16,-6v6"></path><path d="M10.5,15.5h2l-8.74228e-08,1.77636e-15c1.10457,-4.82823e-08 2,0.89543 2,2c4.82823e-08,1.10457 -0.89543,2 -2,2h-1m-1,4h2l-8.74228e-08,-3.55271e-15c1.10457,4.82823e-08 2,-0.89543 2,-2c4.82823e-08,-1.10457 -0.89543,-2 -2,-2h-1m8,-4v8"></path></g></svg>