<?xml version="1.0" encoding="UTF-8"?><svg version="1.1" viewBox="0 0 30 30" xmlns="http://www.w3.org/2000/svg" xmlns:xlink="http://www.w3.org/1999/xlink"><!--Generated by IJSVG (https://github.com/iconjar/IJSVG)--><path d="M17.63,22.068l-1.22888e-06,-3.00854e-07c-4.57001,-1.11883 -8.13817,-4.68699 -9.257,-9.257l2.206,-4.098l1.26696e-07,-2.35388e-07c0.521949,-0.969724 0.346387,-2.16696 -0.432,-2.946l-3.538,-3.537l9.72947e-08,9.7292e-08c-0.973962,-0.973935 -2.55304,-0.973935 -3.527,-1.94584e-07l-1.843,1.843l-1.92405e-07,1.88901e-07c-0.516102,0.506702 -0.783406,1.21464 -0.731,1.936c1.06,12.491 10.992,22.423 23.483,23.483l-1.47007e-07,-1.068e-08c0.721361,0.0524064 1.4293,-0.214898 1.936,-0.731l1.843,-1.843l3.58485e-08,-3.58495e-08c0.973935,-0.973962 0.973935,-2.55304 -7.1697e-08,-3.527l-3.097,-3.097l-2.32353e-08,-2.32296e-08c-0.778888,-0.778697 -1.97634,-0.95429 -2.946,-0.432l-4.097,2.206Z" stroke-linecap="round" stroke-width="1" stroke="#4B286D" fill="none" stroke-linejoin="round"></path></svg>