<?xml version="1.0" encoding="UTF-8"?><svg version="1.1" viewBox="0 0 30 30" xmlns="http://www.w3.org/2000/svg" xmlns:xlink="http://www.w3.org/1999/xlink"><!--Generated by IJSVG (https://github.com/iconjar/IJSVG)--><path d="M24.17,30c-0.07,0 -0.14,0 -0.21,-0.01c-12.8,-1.08 -22.87,-11.15 -23.95,-23.94c-0.06,-0.88 0.26,-1.72 0.88,-2.34l1.84,-1.84c1.13,-1.13 3.1,-1.13 4.23,0l3.54,3.54c0.94,0.94 1.15,2.36 0.52,3.54l-2.11,3.93c1.11,4.25 4.4,7.55 8.66,8.66l3.92,-2.11c1.15,-0.62 2.61,-0.41 3.54,0.52l3.1,3.1c0.56,0.55 0.87,1.3 0.87,2.1c0,0.8 -0.31,1.55 -0.88,2.12l-1.84,1.84c-0.56,0.57 -1.32,0.89 -2.11,0.89Zm-19.32,-28c-0.54,0 -1.04,0.21 -1.41,0.58l-1.85,1.85c-0.41,0.4 -0.63,0.97 -0.58,1.54c1.04,12.29 10.73,21.98 23.03,23.02c0.57,0.03 1.13,-0.17 1.54,-0.58l1.85,-1.85c0.38,-0.38 0.58,-0.88 0.58,-1.41c0,-0.53 -0.21,-1.03 -0.58,-1.41l-3.1,-3.1c-0.62,-0.62 -1.59,-0.76 -2.36,-0.34l-4.1,2.21c-0.11,0.06 -0.24,0.08 -0.36,0.04c-4.77,-1.17 -8.46,-4.86 -9.62,-9.62c-0.03,-0.12 -0.01,-0.25 0.05,-0.36l2.21,-4.1c0.42,-0.78 0.28,-1.73 -0.35,-2.36l-3.54,-3.53c-0.38,-0.37 -0.88,-0.58 -1.41,-0.58Zm12.65,11c-0.13,0 -0.26,-0.05 -0.35,-0.15c-0.2,-0.2 -0.2,-0.51 0,-0.71l10.14,-10.14h-6.79c-0.28,0 -0.5,-0.22 -0.5,-0.5c0,-0.28 0.22,-0.5 0.5,-0.5h8c0.01,0 0.01,0 0.02,0c0.06,0 0.11,0.01 0.17,0.04c0.06,0.02 0.12,0.06 0.17,0.11c0.05,0.05 0.08,0.1 0.11,0.16v0c0,0 0,0 0,0c0.02,0.06 0.03,0.11 0.03,0.17v0c0,0 0,0 0,0c0,0 0,0 0,0v0c0,0 0,0.01 0,0.01v8c0,0.28 -0.22,0.5 -0.5,0.5c-0.28,0 -0.5,-0.21 -0.5,-0.49v-6.79l-10.15,10.14c-0.09,0.1 -0.22,0.15 -0.35,0.15Z" fill="#4B286D"></path></svg>