<?xml version="1.0" encoding="UTF-8"?><svg version="1.1" viewBox="0 0 30 30" xmlns="http://www.w3.org/2000/svg" xmlns:xlink="http://www.w3.org/1999/xlink"><!--Generated by IJSVG (https://github.com/iconjar/IJSVG)--><g fill="#4B286D"><path d="M26.5,27h-23c-1.93,0 -3.5,-1.57 -3.5,-3.5v-13c0,-1.93 1.57,-3.5 3.5,-3.5h4.565c0.325,0 0.61,-0.208 0.71,-0.516l0.41,-1.262c0.436,-1.31 1.615,-2.222 2.867,-2.222h5.896c1.256,0 2.435,0.903 2.866,2.196l0.404,1.341c0.093,0.28 0.369,0.463 0.717,0.463h4.565c1.93,0 3.5,1.57 3.5,3.5v13c0,1.93 -1.57,3.5 -3.5,3.5Zm-23,-19c-1.378,0 -2.5,1.122 -2.5,2.5v13c0,1.378 1.122,2.5 2.5,2.5h23c1.378,0 2.5,-1.122 2.5,-2.5v-13c0,-1.378 -1.122,-2.5 -2.5,-2.5h-4.565c-0.78,0 -1.436,-0.456 -1.67,-1.161l-0.403,-1.34c-0.289,-0.863 -1.095,-1.499 -1.914,-1.499h-5.896c-0.815,0 -1.622,0.646 -1.918,1.535l-0.408,1.257c-0.234,0.723 -0.901,1.208 -1.661,1.208h-4.565Z"></path><path d="M15,24c-3.86,0 -7,-3.14 -7,-7c0,-3.86 3.14,-7 7,-7c3.86,0 7,3.14 7,7c0,3.86 -3.14,7 -7,7Zm0,-13c-3.309,0 -6,2.691 -6,6c0,3.309 2.691,6 6,6c3.309,0 6,-2.691 6,-6c0,-3.309 -2.691,-6 -6,-6Z"></path><path d="M10.587,17.543c-0.276,0 -0.5,-0.224 -0.5,-0.5c0,-2.709 2.204,-4.913 4.913,-4.913c0.276,0 0.5,0.224 0.5,0.5c0,0.276 -0.224,0.5 -0.5,0.5c-2.158,0 -3.913,1.755 -3.913,3.913c0,0.277 -0.224,0.5 -0.5,0.5Z"></path></g></svg>