<?xml version="1.0" encoding="UTF-8"?>
<svg id="Layer_1" data-name="Layer 1" xmlns="http://www.w3.org/2000/svg" viewBox="0 0 30 30">
  <defs>
    <style>
      .cls-1 {
        fill: none;
        stroke: #4b286d;
        stroke-linecap: round;
        stroke-linejoin: round;
      }
    </style>
  </defs>
  <line class="cls-1" x1="4.31" y1="6.54" x2="10.28" y2="6.54"/>
  <path class="cls-1" d="M4.43,6.54c-.66,0-1.2-.54-1.2-1.2s.54-1.2,1.2-1.2"/>
  <path class="cls-1" d="M10.43,4.65c.52,0,.94.42.94.94s-.42.94-.94.94"/>
  <path class="cls-1" d="M7.84,3.34c.32-.73,1.17-1.07,1.9-.75s1.07,1.17.75,1.9"/>
  <path class="cls-1" d="M4.44,4.1c-.23-.91.32-1.84,1.23-2.07s1.84.32,2.07,1.23"/>
  <line class="cls-1" x1="25.31" y1="8.15" x2="19.34" y2="8.15"/>
  <path class="cls-1" d="M25.19,8.15c.66,0,1.2-.54,1.2-1.2,0-.66-.54-1.2-1.2-1.2"/>
  <path class="cls-1" d="M19.18,6.27c-.52,0-.94.42-.94.94s.42.94.94.94"/>
  <path class="cls-1" d="M21.78,4.95c-.32-.73-1.17-1.07-1.9-.75s-1.07,1.17-.75,1.9"/>
  <path class="cls-1" d="M25.18,5.72c.23-.91-.32-1.84-1.23-2.07s-1.84.32-2.07,1.23"/>
  <line class="cls-1" x1=".71" y1="29.07" x2="29.21" y2="29.07"/>
  <path class="cls-1" d="M12.74,10.5s-1.61-.08-.93.57.51,1.04.51,1.04c0,0-.1.32-.93.09-.23-.06-.54.01-.52.31.03.33.43.54.64.74.12.11.5.45.4.73-.25.66-1.58-.3-1.9-.04-.59.47.96,1.53.96,1.53"/>
  <path class="cls-1" d="M20.11,9.94s-1.61-.08-.93.57.51,1.04.51,1.04c0,0-.1.32-.93.09-.23-.06-.54.01-.52.31.03.33.43.54.64.74.12.11.5.45.4.73-.25.66-1.58-.3-1.9-.04-.59.47.96,1.53.96,1.53"/>
  <path class="cls-1" d="M28.2,12.42s-1.61-.08-.93.57.51,1.04.51,1.04c0,0-.1.32-.93.09-.23-.06-.54.01-.52.31.03.33.43.54.64.74.12.11.5.45.4.73-.25.66-1.58-.3-1.9-.04-.59.47.96,1.53.96,1.53"/>
  <path class="cls-1" d="M5.26,13.8s-1.61-.08-.93.57.51,1.04.51,1.04c0,0-.1.32-.93.09-.23-.06-.54.01-.52.31.03.33.43.54.64.74.12.11.5.45.4.73-.25.66-1.58-.3-1.9-.04-.59.47.96,1.53.96,1.53"/>
  <g>
    <polyline class="cls-1" points="10.49 21.86 15.05 21.86 15.05 20.34"/>
    <line class="cls-1" x1="18.85" y1="27.18" x2="9.73" y2="27.18"/>
    <path class="cls-1" d="M5.17,27.18h-1.32c-.5-.06-.9-.46-.96-.97v-2.35c0-.66,1.21-2.76,4.56-2.76,2.54-1.96,5.65-3.03,8.86-3.04,1.77-.09,3.54.17,5.2.76h2.66s-1.04,1.06-1.04,1.06c1.14.8,1.82,2.11,1.8,3.5,0,.77-.33,3.82-1.52,3.8"/>
    <circle class="cls-1" cx="7.45" cy="26.42" r="2.28"/>
    <circle class="cls-1" cx="21.13" cy="26.42" r="2.28"/>
  </g>
</svg>