<?xml version="1.0" encoding="UTF-8"?><svg version="1.1" viewBox="0 0 30 30" xmlns="http://www.w3.org/2000/svg" xmlns:xlink="http://www.w3.org/1999/xlink"><!--Generated by IJSVG (https://github.com/iconjar/IJSVG)--><g fill="#4B286D"><path d="M5,29.5c-0.1,0 -0.2,0 -0.3,-0.1c-0.2,-0.1 -0.3,-0.4 -0.2,-0.6l2.7,-7.3h-2.4c-2.3,0 -4.3,-1.9 -4.3,-4.3v-12.4c0,-2.3 1.9,-4.3 4.3,-4.3h20.5c2.3,0 4.3,1.9 4.3,4.3v12.5c0,2.3 -1.9,4.3 -4.3,4.3h-10.1l-9.9,7.9c-0.1,0 -0.2,0 -0.3,0Zm-0.2,-28c-1.8,0 -3.3,1.5 -3.3,3.3v12.5c0,1.8 1.5,3.3 3.3,3.3h3.2c0.2,0 0.3,0.1 0.4,0.2c0.1,0.1 0.1,0.3 0.1,0.5l-2.4,6.3l8.6,-6.9c0.1,-0.1 0.2,-0.1 0.3,-0.1h10.3c1.8,0 3.3,-1.5 3.3,-3.3v-12.6c0,-1.8 -1.5,-3.3 -3.3,-3.3l-20.5,0.1v0Z"></path><path d="M8.5,12.5c-1.1,0 -2,-0.9 -2,-2c0,-1.1 0.9,-2 2,-2c1.1,0 2,0.9 2,2c0,1.1 -0.9,2 -2,2Zm0,-3c-0.6,0 -1,0.4 -1,1c0,0.6 0.4,1 1,1c0.6,0 1,-0.4 1,-1c0,-0.6 -0.4,-1 -1,-1Z"></path><path d="M14.5,12.5c-1.1,0 -2,-0.9 -2,-2c0,-1.1 0.9,-2 2,-2c1.1,0 2,0.9 2,2c0,1.1 -0.9,2 -2,2Zm0,-3c-0.6,0 -1,0.4 -1,1c0,0.6 0.4,1 1,1c0.6,0 1,-0.4 1,-1c0,-0.6 -0.4,-1 -1,-1Z"></path><path d="M20.5,12.5c-1.1,0 -2,-0.9 -2,-2c0,-1.1 0.9,-2 2,-2c1.1,0 2,0.9 2,2c0,1.1 -0.9,2 -2,2Zm0,-3c-0.6,0 -1,0.4 -1,1c0,0.6 0.4,1 1,1c0.6,0 1,-0.4 1,-1c0,-0.6 -0.4,-1 -1,-1Z"></path></g></svg>