<?xml version="1.0" encoding="UTF-8"?><svg version="1.1" viewBox="0 0 30 30" xmlns="http://www.w3.org/2000/svg" xmlns:xlink="http://www.w3.org/1999/xlink"><!--Generated by IJSVG (https://github.com/iconjar/IJSVG)--><g stroke-linecap="round" stroke-width="1" stroke="#4B286D" fill="none" stroke-linejoin="round"><path d="M19,16.5h-8.875l-5.625,5v-5h-2l-8.74228e-08,-3.55271e-15c-1.10457,-4.82823e-08 -2,-0.895431 -2,-2c0,0 0,0 0,0v-12l2.13163e-14,3.01992e-07c-1.66785e-07,-1.10457 0.89543,-2 2,-2h17l-8.74228e-08,1.77636e-15c1.10457,-4.82823e-08 2,0.89543 2,2v11.5v0c0,1.38071 -1.11929,2.5 -2.5,2.5Z"></path><path d="M23.5,8.5h4c1.1,0 2,0.9 2,2v11.5c0,1.375 -1.125,2.5 -2.5,2.5h-1.5v5l-5,-5h-11c-1.027,0 -1.933,-0.542 -2.373,-1.342"></path></g></svg>