<?xml version="1.0" encoding="UTF-8"?><svg version="1.1" viewBox="0 0 30 30" xmlns="http://www.w3.org/2000/svg" xmlns:xlink="http://www.w3.org/1999/xlink"><!--Generated by IJSVG (https://github.com/iconjar/IJSVG)--><path d="M7.5,23c-0.827,0 -1.5,0.673 -1.5,1.5c0,0.827 0.673,1.5 1.5,1.5c0.827,0 1.5,-0.673 1.5,-1.5c0,-0.827 -0.673,-1.5 -1.5,-1.5Zm0,2c-0.276,0 -0.5,-0.224 -0.5,-0.5c0,-0.276 0.224,-0.5 0.5,-0.5c0.276,0 0.5,0.224 0.5,0.5c0,0.276 -0.224,0.5 -0.5,0.5Zm0,-7c-0.827,0 -1.5,0.673 -1.5,1.5c0,0.827 0.673,1.5 1.5,1.5c0.827,0 1.5,-0.673 1.5,-1.5c0,-0.827 -0.673,-1.5 -1.5,-1.5Zm0,2c-0.276,0 -0.5,-0.224 -0.5,-0.5c0,-0.276 0.224,-0.5 0.5,-0.5c0.276,0 0.5,0.224 0.5,0.5c0,0.276 -0.224,0.5 -0.5,0.5Zm16.765,-16.999h-3.315c-0.233,-1.14 -1.243,-2.001 -2.45,-2.001h-1.774c-0.354,-0.61 -1.008,-1 -1.726,-1c-0.718,0 -1.373,0.39 -1.726,1h-1.774c-1.207,0 -2.217,0.861 -2.45,2.001h-3.314c-0.957,0 -1.735,0.78 -1.735,1.738v23.523c8.88178e-16,0.958 0.778,1.738 1.735,1.738h18.529c0.956,0 1.735,-0.78 1.735,-1.738v-23.523c0,-0.958 -0.779,-1.738 -1.735,-1.738Zm-14.265,0.499c0,-0.827 0.673,-1.5 1.5,-1.5h2.092c0.211,0 0.4,-0.134 0.471,-0.333c0.142,-0.399 0.519,-0.667 0.937,-0.667c0.418,0 0.795,0.268 0.937,0.667c0.071,0.2 0.26,0.333 0.471,0.333h2.092c0.827,0 1.5,0.673 1.5,1.5v0.5h-10v-0.5Zm15,24.762c0,0.407 -0.331,0.738 -0.735,0.738h-18.529c-0.405,0 -0.735,-0.331 -0.735,-0.738v-23.523c0,-0.407 0.33,-0.738 0.735,-0.738h3.264v0.499c0,0.276 0.224,0.5 0.5,0.5h11c0.276,0 0.5,-0.224 0.5,-0.5v-0.499h3.265c0.404,0 0.735,0.331 0.735,0.738v23.523Zm-17.5,-15.262c-0.827,0 -1.5,0.673 -1.5,1.5c0,0.827 0.673,1.5 1.5,1.5c0.827,0 1.5,-0.673 1.5,-1.5c0,-0.827 -0.673,-1.5 -1.5,-1.5Zm0,2c-0.276,0 -0.5,-0.224 -0.5,-0.5c0,-0.276 0.224,-0.5 0.5,-0.5c0.276,0 0.5,0.224 0.5,0.5c0,0.276 -0.224,0.5 -0.5,0.5Zm16,-6h-12c-0.276,0 -0.5,0.224 -0.5,0.5c0,0.276 0.224,0.5 0.5,0.5h12c0.276,0 0.5,-0.224 0.5,-0.5c0,-0.276 -0.224,-0.5 -0.5,-0.5Zm-6,15h-6c-0.276,0 -0.5,0.224 -0.5,0.5c0,0.276 0.224,0.5 0.5,0.5h6c0.276,0 0.5,-0.224 0.5,-0.5c0,-0.276 -0.224,-0.5 -0.5,-0.5Zm-10,-16c-0.827,0 -1.5,0.673 -1.5,1.5c0,0.827 0.673,1.5 1.5,1.5c0.827,0 1.5,-0.673 1.5,-1.5c0,-0.827 -0.673,-1.5 -1.5,-1.5Zm0,2c-0.276,0 -0.5,-0.224 -0.5,-0.5c0,-0.276 0.224,-0.5 0.5,-0.5c0.276,0 0.5,0.224 0.5,0.5c0,0.276 -0.224,0.5 -0.5,0.5Zm16,4h-12c-0.276,0 -0.5,0.224 -0.5,0.5c0,0.276 0.224,0.5 0.5,0.5h12c0.276,0 0.5,-0.224 0.5,-0.5c0,-0.276 -0.224,-0.5 -0.5,-0.5Zm0,5h-12c-0.276,0 -0.5,0.224 -0.5,0.5c0,0.276 0.224,0.5 0.5,0.5h12c0.276,0 0.5,-0.224 0.5,-0.5c0,-0.276 -0.224,-0.5 -0.5,-0.5Z" fill="#4B286D"></path></svg>