<?xml version="1.0" encoding="UTF-8"?><svg version="1.1" viewBox="0 0 30 30" xmlns="http://www.w3.org/2000/svg" xmlns:xlink="http://www.w3.org/1999/xlink"><!--Generated by IJSVG (https://github.com/iconjar/IJSVG)--><g stroke-linecap="round" stroke-width="1" stroke="#4B286D" fill="none" stroke-linejoin="round"><path d="M21.5,22.5v5c0,1.1 -0.9,2 -2,2h-17c-1.1,0 -2,-0.9 -2,-2v-21c0,-1.1 0.9,-2 2,-2h3m11,0h3c1.1,0 2,0.9 2,2v2"></path><path d="M17.28,23.26l-4.42,0.88l0.88,-4.42l11.49,-11.49c1,-0.95 2.58,-0.92 3.54,0.08c0.92,0.97 0.92,2.49 0,3.45l-11.49,11.5Zm5.3,-12.38l3.53,3.53"></path><path d="M9,2.5c0,-1.1 0.9,-2 2,-2c1.1,0 2,0.9 2,2h2.25c0.69,0 1.25,0.56 1.25,1.25v2.75h-11v-2.75c0,-0.69 0.56,-1.25 1.25,-1.25h2.31"></path><path d="M14.07,19.52c0.86,0.1 1.66,0.5 2.25,1.13c0.63,0.59 1.03,1.39 1.13,2.25"></path></g></svg>