<?xml version="1.0" encoding="UTF-8"?><svg version="1.1" viewBox="0 0 30 30" xmlns="http://www.w3.org/2000/svg" xmlns:xlink="http://www.w3.org/1999/xlink"><!--Generated by IJSVG (https://github.com/iconjar/IJSVG)--><g fill="#4B286D"><path d="M15,29.5c-8,0 -14.5,-6.5 -14.5,-14.5c0,-8 6.5,-14.5 14.5,-14.5c8,0 14.5,6.5 14.5,14.5c0,8 -6.5,14.5 -14.5,14.5Zm0,-28c-7.4,0 -13.5,6.1 -13.5,13.5c0,7.4 6.1,13.5 13.5,13.5c7.4,0 13.5,-6.1 13.5,-13.5c0,-7.4 -6.1,-13.5 -13.5,-13.5Z"></path><path d="M20.5,15.5h-5.5c-0.3,0 -0.5,-0.2 -0.5,-0.5v-10c0,-0.3 0.2,-0.5 0.5,-0.5c0.3,0 0.5,0.2 0.5,0.5v9.5h5c0.3,0 0.5,0.2 0.5,0.5c0,0.3 -0.2,0.5 -0.5,0.5Z"></path></g></svg>