<?xml version="1.0" encoding="UTF-8"?><svg version="1.1" viewBox="0 0 30 30" xmlns="http://www.w3.org/2000/svg" xmlns:xlink="http://www.w3.org/1999/xlink"><!--Generated by IJSVG (https://github.com/iconjar/IJSVG)--><g fill="#4B286D"><path d="M23.2,25.5h-17.7c-3,0 -5.5,-2.5 -5.5,-5.5c0,-2.9 2.2,-5.2 5.1,-5.5c0,-0.3 0,-0.5 0,-0.8c0,-5.1 4.2,-9.3 9.3,-9.3c4.5,0 8.3,3.2 9.2,7.5c3.6,0.2 6.4,3.1 6.4,6.7c-0.1,3.9 -3.1,6.9 -6.8,6.9Zm-17.7,-10c-2.5,0 -4.5,2 -4.5,4.5c0,2.5 2,4.5 4.5,4.5h17.7c3.2,0 5.7,-2.6 5.7,-5.8c0,-3.2 -2.5,-5.7 -5.7,-5.8h-0.1c-0.2,0 -0.5,-0.2 -0.5,-0.4c-0.6,-4 -4.1,-7.1 -8.2,-7.1c-4.6,0.1 -8.4,3.8 -8.4,8.4c0,0.4 0,0.7 0.1,1.2c0,0.1 0,0.3 -0.1,0.4c-0.1,0.1 -0.1,0.1 -0.3,0.1c-0.1,0 -0.2,0 -0.2,0Z"></path><path style="display:none;" d="M19.8,18.2c-0.1,0 -0.3,-0.1 -0.4,-0.2c-1.4,-1.7 -3.3,-2.6 -5.2,-2.6c-1.9,0 -3.8,0.9 -5.2,2.6c-0.2,0.2 -0.5,0.2 -0.7,0.1c-0.2,-0.1 -0.2,-0.5 -0.1,-0.7c1.6,-1.9 3.7,-2.9 6,-2.9c2.3,0 4.4,1 6,2.9c0.2,0.2 0.2,0.5 -0.1,0.7c-0.1,0.1 -0.2,0.1 -0.3,0.1Z"></path><path style="display:none;" d="M18.3,19.5c-0.1,0 -0.3,-0.1 -0.4,-0.2c-1,-1.2 -2.3,-1.8 -3.7,-1.8c-1.4,0 -2.7,0.7 -3.7,1.8c-0.2,0.2 -0.5,0.2 -0.7,0.1c-0.2,-0.2 -0.2,-0.5 -0.1,-0.7c1.2,-1.4 2.8,-2.2 4.5,-2.2c1.7,0 3.3,0.8 4.5,2.2c0.2,0.2 0.2,0.5 -0.1,0.7c-0.1,0.1 -0.2,0.1 -0.3,0.1Z"></path><path style="display:none;" d="M17,20.8c-0.1,0 -0.3,-0.1 -0.4,-0.2c-1.2,-1.4 -3.3,-1.4 -4.5,0c-0.2,0.2 -0.5,0.2 -0.7,0.1c-0.2,-0.1 -0.2,-0.5 -0.1,-0.7c0.8,-0.9 1.9,-1.5 3,-1.5c1.1,0 2.2,0.5 3,1.5c0.2,0.2 0.2,0.5 -0.1,0.7c-3.55271e-15,-3.55271e-15 -0.1,0.1 -0.2,0.1Z"></path><path style="display:none;" d="M14.5,21.5c-0.3,0 -0.5,-0.2 -0.5,-0.5c0,-0.3 0.2,-0.5 0.5,-0.5v0c0.3,0 0.5,0.2 0.5,0.5c0,0.3 -0.2,0.5 -0.5,0.5Z"></path></g><path fill="none" stroke="#4B286D" stroke-linecap="round" stroke-linejoin="round" stroke-width="1" d="M15.5657,20.8343c0.312419,0.312419 0.312419,0.818951 0,1.13137c-0.312419,0.312419 -0.818951,0.312419 -1.13137,0c-0.312419,-0.312419 -0.312419,-0.818951 0,-1.13137c0.312419,-0.312419 0.818951,-0.312419 1.13137,0"></path><path d="M17.4,19c-0.6,-0.6 -1.5,-1 -2.4,-1c-0.9,0 -1.8,0.4 -2.4,1m6.6,-1.8c-1.1,-1.1 -2.6,-1.7 -4.2,-1.7c-1.6,0 -3.1,0.7 -4.2,1.7m-1.9,-1.7c1.6,-1.5 3.7,-2.5 6.1,-2.5c2.4,0 4.5,0.9 6.1,2.5" stroke-linecap="round" stroke-width="1" stroke="#4B286D" fill="none" stroke-linejoin="round"></path></svg>