<?xml version="1.0" encoding="UTF-8"?><svg version="1.1" viewBox="0 0 30 30" xmlns="http://www.w3.org/2000/svg" xmlns:xlink="http://www.w3.org/1999/xlink"><!--Generated by IJSVG (https://github.com/iconjar/IJSVG)--><g fill="#4B286D"><path d="M23.2,22h-5.7c-0.3,0 -0.5,-0.2 -0.5,-0.5c0,-0.3 0.2,-0.5 0.5,-0.5h5.7c3.2,0 5.8,-2.6 5.8,-5.8c0,-3.2 -2.6,-5.8 -5.8,-5.8c-0.3,0 -0.6,-0.2 -0.6,-0.4c-0.6,-4 -4.1,-7 -8.2,-7c-4.6,1.77636e-15 -8.4,3.7 -8.4,8.3c0,0.4 0,0.7 0.1,1.2c0,0.1 0,0.3 -0.1,0.4c-0.1,0.1 -0.3,0.1 -0.4,0.1h-0.1c-2.5,0 -4.5,2 -4.5,4.5c0,2.5 2,4.5 4.5,4.5h6c0.3,0 0.5,0.2 0.5,0.5c0,0.3 -0.2,0.5 -0.5,0.5h-6c-3,0 -5.5,-2.5 -5.5,-5.5c0,-2.9 2.2,-5.2 5.1,-5.5c0,-0.3 0,-0.5 0,-0.8c-0.1,-5.1 4.1,-9.2 9.3,-9.2c4.5,0 8.3,3.2 9.2,7.5c3.6,0.2 6.5,3.1 6.5,6.7c-0.1,3.8 -3.2,6.8 -6.9,6.8Z"></path><path d="M14,15.3c0.1,-0.1 0.6,-0.4 0.7,-0.3c0.2,0.1 0.3,0.3 0.3,0.5v13c0,0.3 -0.2,0.5 -0.5,0.5c-0.3,0 -0.5,-0.2 -0.5,-0.5v-11.8"></path><path opacity="0.50" style="display:none;" d="M17.1,18.4c-0.1,0 -0.3,0 -0.4,-0.1l-2.5,-2.5c-0.2,-0.2 -0.2,-0.5 0,-0.7c0.2,-0.2 0.5,-0.2 0.7,0l2.5,2.5c0.2,0.2 0.2,0.5 0,0.7c-0.2,0.1 -0.2,0.1 -0.3,0.1Z"></path></g><path fill="none" stroke="#4B286D" stroke-linecap="round" stroke-width="1" d="M14.5,15.5l2.5,2.4"></path><path d="M14.5,15.5l-2.5,2.4" stroke-linecap="round" stroke-width="1" stroke="#4B286D" fill="none"></path><g style="display:none;"><path fill="none" stroke="#4B286D" stroke-linecap="round" stroke-width="1" d="M14.5,15.5l2.5,2.3"></path><path fill="none" stroke="#4B286D" stroke-linecap="round" stroke-width="1" d="M14.5,15.5l-2.4,2.3"></path></g></svg>