<?xml version="1.0" encoding="UTF-8"?><svg version="1.1" viewBox="0 0 30 30" xmlns="http://www.w3.org/2000/svg" xmlns:xlink="http://www.w3.org/1999/xlink"><!--Generated by IJSVG (https://github.com/iconjar/IJSVG)--><g fill="#4B286D"><path d="M23.2,22h-1.6c-0.3,0 -0.5,-0.2 -0.5,-0.5c0,-0.3 0.2,-0.5 0.5,-0.5h1.6c3.2,0 5.7,-2.7 5.7,-5.9c0,-3.2 -2.5,-5.7 -5.7,-5.7c-0.3,0 -0.6,-0.2 -0.6,-0.4c-0.6,-4 -4.1,-7 -8.2,-7c-4.6,1.77636e-15 -8.4,3.7 -8.4,8.3c0,0.4 0,0.7 0.1,1.2c0,0.1 0,0.3 -0.1,0.4c-0.1,0.1 -0.3,0.1 -0.4,0.1h-0.1c-2.5,0 -4.5,2 -4.5,4.5c0,2.5 2,4.5 4.5,4.5h2.9c0.3,0 0.5,0.2 0.5,0.5c0,0.3 -0.2,0.5 -0.5,0.5h-2.9c-3,0 -5.5,-2.5 -5.5,-5.5c0,-2.9 2.2,-5.2 5.1,-5.5c0,-0.3 0,-0.5 0,-0.8c-0.1,-5.1 4.1,-9.2 9.3,-9.2c4.5,0 8.3,3.2 9.2,7.5c3.6,0.2 6.4,3 6.4,6.6c-0.1,3.8 -3.1,6.9 -6.8,6.9Z"></path><path style="display:none;" d="M10,26.5h1v0.4h-1Z"></path><path d="M18.5,15.9v12.6c0,0.3 -0.2,0.5 -0.5,0.5c-0.3,0 -0.5,-0.2 -0.5,-0.5v-12.8c0,-0.2 0.1,-0.4 0.3,-0.5c0.1,0 0.1,0 0.2,0c0.1,0 0.3,0.1 0.3,0.1"></path><path style="display:none;" d="M18.3,15.1c0.2,0.2 0.2,0.5 0,0.7l-2.5,2.5c-0.2,0.2 -0.5,0.2 -0.7,0c-0.2,-0.2 -0.2,-0.5 0,-0.7l2.5,-2.5c0.1,-0.1 0.3,-0.1 0.4,-0.1c0.1,0 0.3,0 0.3,0.1Z"></path></g><g style="display:none;"><path fill="#4B286D" d="M20.6,18.5c-0.1,0 -0.3,0 -0.3,-0.1l-2.5,-2.5c-0.2,-0.2 -0.2,-0.5 0,-0.7c0.2,-0.2 0.5,-0.2 0.7,0l2.5,2.5c0.2,0.2 0.2,0.5 0,0.7c-0.2,0 -0.3,0.1 -0.4,0.1Z"></path><path fill="#4B286D" d="M15.5,18.5c-0.1,0 -0.3,-0.1 -0.4,-0.2c-0.2,-0.2 -0.2,-0.5 0,-0.7l2.5,-2.5c0.2,-0.2 0.5,-0.2 0.7,0c0.2,0.2 0.2,0.5 0,0.7l-2.5,2.5c0,0.1 -0.2,0.2 -0.3,0.2Z"></path></g><g stroke-linecap="round" stroke-width="1" stroke="#4B286D" fill="none"><path d="M18,15.4l2.6,2.4"></path><path d="M18,15.4l-2.5,2.5"></path></g><path fill="#4B286D" d="M12.3,28.3c0,0 -0.2,0.1 -0.3,0.1c-0.1,0 -0.1,0 -0.2,0c-0.2,-0.1 -0.3,-0.3 -0.3,-0.5v-12.4c0,-0.3 0.2,-0.5 0.5,-0.5c0.3,0 0.5,0.2 0.5,0.5v12.3"></path><path style="display:none;" d="M12,29c-0.1,0 -0.3,0 -0.4,-0.1l-2.5,-2.5c-0.2,-0.2 -0.2,-0.5 0,-0.7c0.2,-0.2 0.5,-0.2 0.7,0l2.5,2.5c0.2,0.2 0.2,0.5 0,0.7c1.77636e-15,0.1 -0.2,0.1 -0.3,0.1Z" fill="#4B286D"></path><path fill="none" stroke="#4B286D" stroke-linecap="round" stroke-width="1" d="M12,28.5l-2.5,-2.5"></path><path d="M12,28.5l2.5,-2.5" stroke-linecap="round" stroke-width="1" stroke="#4B286D" fill="none"></path></svg>