<?xml version="1.0" encoding="UTF-8"?><svg version="1.1" viewBox="0 0 30 30" xmlns="http://www.w3.org/2000/svg" xmlns:xlink="http://www.w3.org/1999/xlink"><!--Generated by IJSVG (https://github.com/iconjar/IJSVG)--><g fill="#4B286D"><path d="M14.5,30c-7.995,0 -14.5,-6.505 -14.5,-14.5c0,-7.995 6.505,-14.5 14.5,-14.5c7.995,0 14.5,6.505 14.5,14.5c0,7.995 -6.505,14.5 -14.5,14.5Zm0,-28c-7.444,0 -13.5,6.056 -13.5,13.5c0,7.444 6.056,13.5 13.5,13.5c7.444,0 13.5,-6.056 13.5,-13.5c0,-7.444 -6.056,-13.5 -13.5,-13.5Z"></path><path d="M14.5,27c-6.341,0 -11.5,-5.159 -11.5,-11.5c0,-6.341 5.159,-11.5 11.5,-11.5c6.341,0 11.5,5.159 11.5,11.5c0,6.341 -5.159,11.5 -11.5,11.5Zm0,-22c-5.79,0 -10.5,4.71 -10.5,10.5c0,5.79 4.71,10.5 10.5,10.5c5.79,0 10.5,-4.71 10.5,-10.5c0,-5.79 -4.71,-10.5 -10.5,-10.5Z"></path><path d="M14.5,17c-0.827,0 -1.5,-0.673 -1.5,-1.5c0,-0.827 0.673,-1.5 1.5,-1.5c0.827,0 1.5,0.673 1.5,1.5c0,0.827 -0.673,1.5 -1.5,1.5Zm0,-2c-0.276,0 -0.5,0.224 -0.5,0.5c0,0.276 0.224,0.5 0.5,0.5c0.276,0 0.5,-0.224 0.5,-0.5c0,-0.276 -0.224,-0.5 -0.5,-0.5Z"></path><path d="M8.5,22c-0.13,0 -0.258,-0.051 -0.354,-0.146c-0.145,-0.145 -0.187,-0.363 -0.106,-0.55l3.6,-8.4c0.05,-0.118 0.145,-0.212 0.263,-0.263l8.4,-3.6c0.187,-0.081 0.405,-0.039 0.55,0.106c0.145,0.145 0.187,0.363 0.106,0.55l-3.6,8.4c-0.05,0.118 -0.145,0.212 -0.263,0.263l-8.4,3.6c-0.063,0.027 -0.13,0.04 -0.196,0.04Zm3.981,-8.519l-3.029,7.067l7.067,-3.029l3.029,-7.067l-7.067,3.029Z"></path></g></svg>