<?xml version="1.0" encoding="UTF-8"?><svg version="1.1" viewBox="0 0 30 30" xmlns="http://www.w3.org/2000/svg" xmlns:xlink="http://www.w3.org/1999/xlink"><!--Generated by IJSVG (https://github.com/iconjar/IJSVG)--><path d="M23.5,20c0.276,0 0.5,-0.224 0.5,-0.5c0,-0.276 -0.224,-0.5 -0.5,-0.5c-0.276,0 -0.5,0.224 -0.5,0.5c0,0.277 0.224,0.5 0.5,0.5Zm3.445,-19h-23.89c-1.685,0 -3.055,1.37 -3.055,3.055v15.891c0,1.684 1.37,3.054 3.055,3.054h8.934c-0.119,2.757 -1.21,5 -2.488,5c-0.277,0 -0.501,0.224 -0.501,0.5c0,0.276 0.224,0.5 0.5,0.5h11c0.276,0 0.5,-0.224 0.5,-0.5c0,-0.276 -0.224,-0.5 -0.5,-0.5c-1.279,0 -2.369,-2.243 -2.488,-5h8.934c1.684,0 3.054,-1.37 3.054,-3.055v-15.89c0,-1.685 -1.37,-3.055 -3.055,-3.055Zm-8.348,27h-7.195c0.943,-1.125 1.499,-3.049 1.581,-5h4.033c0.083,1.951 0.638,3.876 1.581,5Zm10.404,-8.054c0,1.133 -0.922,2.055 -2.055,2.055h-9.442c-0.001,0 -0.003,-0.001 -0.004,-0.001c-0.001,0 -0.003,0.001 -0.005,0.001h-4.989c-0.002,0 -0.004,-0.001 -0.006,-0.001c-0.002,0 -0.003,0.001 -0.005,0.001h-9.44c-1.133,0 -2.055,-0.922 -2.055,-2.055v-2.946h28.001v2.946Zm0,-3.946h-28.001v-11.945c0,-1.133 0.922,-2.055 2.055,-2.055h23.891c1.133,0 2.055,0.922 2.055,2.055v11.945Zm-14.001,4.5c0.552,0 1,-0.448 1,-1c0,-0.552 -0.448,-1 -1,-1c-0.552,0 -1,0.448 -1,1c0,0.553 0.448,1 1,1Z" fill="#4B286D"></path></svg>