<?xml version="1.0" encoding="UTF-8"?>
<svg id="Layer_1" data-name="Layer 1" xmlns="http://www.w3.org/2000/svg" viewBox="0 0 30 30">
  <defs>
    <style>
      .cls-1, .cls-2 {
        fill: none;
        stroke: #4b286d;
        stroke-linecap: round;
        stroke-linejoin: round;
      }

      .cls-3 {
        fill: #4b286d;
      }

      .cls-2 {
        stroke-dasharray: 1.87 2.81;
      }
    </style>
  </defs>
  <circle class="cls-1" cx="10" cy="25.16" r="1.83"/>
  <circle class="cls-1" cx="21.65" cy="25.16" r="1.83"/>
  <line class="cls-1" x1="12.09" y1="25.32" x2="19.82" y2="25.32"/>
  <path class="cls-1" d="M8.1,25.32h-.72c-.53-.02-.52.07-.69-.17-.19-.23-.57-.68-.83-.98-.28-.35-.29-.29-.28-.47.04-.65-.08-2.45.03-3.2.19-.49,1.04-.77,1.51-.75.18-.02.23.03.31-.04,1.15-1.29,2.76-2.7,4.22-3.39h5.52l4.43,3.38c.21.17.08.1.43.22.86.35,2.55.69,3.37,1.3.2.17.31.31.36.41.13.39.03,1.74.06,2.22-.01.29.03.31-.06.42-.12.14-.53.61-.74.87-.14.16-.14.19-.3.19h-.76"/>
  <path class="cls-1" d="M26.03,16.7c.76.31,2.26.61,2.98,1.15.18.15.27.28.32.36.11.35.03,1.54.05,1.96,0,.26.03.28-.05.37-.11.13-.47.54-.66.77-.12.14-.12.17-.26.17h-.67"/>
  <path class="cls-3" d="M19.43,20.85h-9.09c-.09,0-.19-.03-.27-.08-.2-.13-.32-.33-.34-.56-.07-.8,1.23-2.13,2.02-2.85.09-.09.21-.13.34-.13h4.48c.1,0,.2.03.28.09,2.93,2.02,3.14,2.62,3.11,3.02-.01.18-.16.4-.32.48-.07.03-.14.05-.21.05ZM10.86,19.85h7.67c-.36-.33-.99-.85-2.12-1.63h-4.13c-.62.59-1.18,1.24-1.43,1.63Z"/>
  <line class="cls-1" x1="13.97" y1="18.1" x2="13.97" y2="20.35"/>
  <line class="cls-1" x1="10.55" y1="22.03" x2="11.34" y2="22.03"/>
  <line class="cls-1" x1="14.92" y1="22.03" x2="15.72" y2="22.03"/>
  <line class="cls-1" x1="24.48" y1="22.44" x2="25.28" y2="22.44"/>
  <line class="cls-1" x1="28.14" y1="19.03" x2="28.94" y2="19.03"/>
  <path class="cls-1" d="M5.52,22.34c-.27.27-.64.44-1.06.44-.83,0-1.5-.67-1.5-1.5s.67-1.5,1.5-1.5c.39,0,.74.15,1,.39"/>
  <path class="cls-1" d="M24.88,20.22c.27-.27.64-.44,1.06-.44.83,0,1.5.67,1.5,1.5s-.67,1.5-1.5,1.5"/>
  <path class="cls-1" d="M2.9,21.16h-.67c-.44-.01-.43.05-.56-.14-.16-.19-.47-.55-.68-.8-.23-.29-.24-.23-.23-.39.03-.53-.06-2.01.02-2.62.15-.4.85-.63,1.23-.61.14-.02.19.03.25-.03.94-1.05,2.26-2.21,3.45-2.77h4.83l2.75,2.33"/>
  <path class="cls-1" d="M11.17,16.18c-.33-.26-.77-.59-1.34-.98h-3.66s-1.96,1.81-1.43,2.15h4.84"/>
  <line class="cls-1" x1="7.7" y1="15.51" x2="7.7" y2="17.35"/>
  <line class="cls-1" x1="4.9" y1="18.62" x2="5.55" y2="18.62"/>
  <path class="cls-1" d="M14.53,16.27c.94-1.05,1.99-1.91,3.18-2.47h4.83l3.5,2.9"/>
  <line class="cls-1" x1="18.74" y1="17.35" x2="24.04" y2="17.35"/>
  <path class="cls-1" d="M24.04,17.35c-.47-.46-1.66-1.75-2.23-2.15h-3.66s-.58.54-1.03,1.08"/>
  <line class="cls-1" x1="19.57" y1="15.2" x2="19.57" y2="17.35"/>
  <g>
    <line class="cls-1" x1=".74" y1="28.64" x2="1.74" y2="28.64"/>
    <line class="cls-2" x1="4.54" y1="28.64" x2="26.54" y2="28.64"/>
    <line class="cls-1" x1="27.95" y1="28.64" x2="28.94" y2="28.64"/>
  </g>
</svg>