<?xml version="1.0" encoding="UTF-8"?><svg version="1.1" viewBox="0 0 30 30" xmlns="http://www.w3.org/2000/svg" xmlns:xlink="http://www.w3.org/1999/xlink"><!--Generated by IJSVG (https://github.com/iconjar/IJSVG)--><g fill="#4B286D"><path d="M24.5,28c-2.481,0 -4.5,-2.019 -4.5,-4.5c0,-2.481 2.019,-4.5 4.5,-4.5c2.481,0 4.5,2.019 4.5,4.5c0,2.481 -2.019,4.5 -4.5,4.5Zm0,-8c-1.93,0 -3.5,1.57 -3.5,3.5c0,1.93 1.57,3.5 3.5,3.5c1.93,0 3.5,-1.57 3.5,-3.5c0,-1.93 -1.57,-3.5 -3.5,-3.5Z"></path><path d="M14.5,11c-2.481,0 -4.5,-2.019 -4.5,-4.5c0,-2.481 2.019,-4.5 4.5,-4.5c2.481,0 4.5,2.019 4.5,4.5c0,2.481 -2.019,4.5 -4.5,4.5Zm0,-8c-1.93,0 -3.5,1.57 -3.5,3.5c0,1.93 1.57,3.5 3.5,3.5c1.93,0 3.5,-1.57 3.5,-3.5c0,-1.93 -1.57,-3.5 -3.5,-3.5Z"></path><path d="M4.5,28c-2.481,0 -4.5,-2.019 -4.5,-4.5c0,-2.481 2.019,-4.5 4.5,-4.5c2.481,0 4.5,2.019 4.5,4.5c0,2.481 -2.019,4.5 -4.5,4.5Zm0,-8c-1.93,0 -3.5,1.57 -3.5,3.5c0,1.93 1.57,3.5 3.5,3.5c1.93,0 3.5,-1.57 3.5,-3.5c0,-1.93 -1.57,-3.5 -3.5,-3.5Z"></path><path d="M3.699,20.08c-0.234,0 -0.443,-0.166 -0.49,-0.405c-0.139,-0.716 -0.209,-1.448 -0.209,-2.175c0,-4.746 2.971,-9.062 7.394,-10.737c0.257,-0.097 0.546,0.033 0.645,0.291c0.098,0.258 -0.032,0.547 -0.291,0.645c-4.036,1.529 -6.748,5.468 -6.748,9.801c0,0.663 0.064,1.331 0.191,1.985c0.052,0.271 -0.125,0.533 -0.396,0.586c-0.031,0.006 -0.064,0.009 -0.096,0.009Z"></path><path d="M14.5,29c-2.625,0 -5.194,-0.91 -7.234,-2.562c-0.215,-0.174 -0.248,-0.488 -0.074,-0.703c0.175,-0.216 0.489,-0.247 0.703,-0.074c1.862,1.508 4.208,2.339 6.605,2.339c2.397,0 4.743,-0.831 6.605,-2.339c0.215,-0.175 0.53,-0.14 0.703,0.074c0.174,0.215 0.141,0.529 -0.074,0.703c-2.04,1.652 -4.609,2.562 -7.234,2.562Z"></path><path d="M25.301,20.08c-0.032,0 -0.064,-0.003 -0.096,-0.009c-0.271,-0.053 -0.448,-0.315 -0.396,-0.586c0.127,-0.654 0.191,-1.322 0.191,-1.985c0,-4.333 -2.712,-8.272 -6.747,-9.802c-0.259,-0.098 -0.389,-0.387 -0.291,-0.645c0.099,-0.259 0.388,-0.388 0.645,-0.291c4.422,1.676 7.393,5.992 7.393,10.738c0,0.727 -0.07,1.459 -0.209,2.175c-0.047,0.239 -0.256,0.405 -0.49,0.405Z"></path></g></svg>