<?xml version="1.0" encoding="UTF-8"?><svg version="1.1" viewBox="0 0 30 30" xmlns="http://www.w3.org/2000/svg" xmlns:xlink="http://www.w3.org/1999/xlink"><!--Generated by IJSVG (https://github.com/iconjar/IJSVG)--><g fill="#4B286D"><path d="M27.5,25h-25c-1.378,0 -2.5,-1.122 -2.5,-2.5v-15c0,-1.378 1.122,-2.5 2.5,-2.5h25c1.378,0 2.5,1.122 2.5,2.5v15c0,1.378 -1.122,2.5 -2.5,2.5Zm-25,-19c-0.827,0 -1.5,0.673 -1.5,1.5v15c0,0.827 0.673,1.5 1.5,1.5h25c0.827,0 1.5,-0.673 1.5,-1.5v-15c0,-0.827 -0.673,-1.5 -1.5,-1.5h-25Z"></path><path d="M29.5,14h-29c-0.276,0 -0.5,-0.224 -0.5,-0.5v-4c0,-0.276 0.224,-0.5 0.5,-0.5h29c0.276,0 0.5,0.224 0.5,0.5v4c0,0.276 -0.224,0.5 -0.5,0.5Zm-28.5,-1h28v-3h-28v3Z"></path><path d="M11.5,19h-7c-0.276,0 -0.5,-0.224 -0.5,-0.5c0,-0.276 0.224,-0.5 0.5,-0.5h7c0.276,0 0.5,0.224 0.5,0.5c0,0.276 -0.224,0.5 -0.5,0.5Z"></path><path d="M11.5,21h-7c-0.276,0 -0.5,-0.224 -0.5,-0.5c0,-0.276 0.224,-0.5 0.5,-0.5h7c0.276,0 0.5,0.224 0.5,0.5c0,0.276 -0.224,0.5 -0.5,0.5Z"></path><path d="M24.5,21h-2c-0.827,0 -1.5,-0.673 -1.5,-1.5v-2c0,-0.827 0.673,-1.5 1.5,-1.5h2c0.827,0 1.5,0.673 1.5,1.5v2c0,0.827 -0.673,1.5 -1.5,1.5Zm-2,-4c-0.276,0 -0.5,0.224 -0.5,0.5v2c0,0.276 0.224,0.5 0.5,0.5h2c0.276,0 0.5,-0.224 0.5,-0.5v-2c0,-0.276 -0.224,-0.5 -0.5,-0.5h-2Z"></path></g></svg>