<?xml version="1.0" encoding="UTF-8"?>
<svg id="Layer_1" data-name="Layer 1" xmlns="http://www.w3.org/2000/svg" viewBox="0 0 30 30">
  <defs>
    <style>
      .cls-1 {
        fill: none;
        stroke: #4b286d;
        stroke-linecap: round;
        stroke-linejoin: round;
      }
    </style>
  </defs>
  <rect class="cls-1" x="4.86" y="4.86" width="20.28" height="20.28" transform="translate(15 -6.21) rotate(45)"/>
  <g>
    <g>
      <circle class="cls-1" cx="14.96" cy="6.05" r="1.06"/>
      <path class="cls-1" d="M10.57,21.42l.53-4.35,2.29-2.44v-5.34c.08-.72.51-.95.51-.95h2.46s2.9,2.03,2.9,2.03v2.47"/>
      <polyline class="cls-1" points="19.95 20.97 17.58 18.22 16.48 14.57 16.48 10.21 17.93 11.2 17.93 13"/>
      <polyline class="cls-1" points="12.02 21.58 12.51 17.76 14.91 15.44 16.21 19.21 18.84 21.96"/>
      <line class="cls-1" x1="13.39" y1="10.9" x2="11.1" y2="11.85"/>
      <line class="cls-1" x1="13.32" y1="12.43" x2="11.45" y2="13.15"/>
      <path class="cls-1" d="M17.93,12.89c0,.37.3.66.66.66s.66-.3.66-.66"/>
      <path class="cls-1" d="M10.89,11.94c-.34.14-.5.53-.35.87s.53.5.87.35"/>
    </g>
    <path class="cls-1" d="M10.55,21.5c-.04.4.25.76.65.81s.76-.25.81-.65"/>
    <path class="cls-1" d="M18.84,21.96c.24.33.7.4,1.02.16s.4-.7.16-1.02"/>
  </g>
  <line class="cls-1" x1="3.64" y1="17.97" x2="8.88" y2="17.97"/>
  <line class="cls-1" x1="20.79" y1="17.97" x2="26.04" y2="17.97"/>
</svg>