<?xml version="1.0" encoding="UTF-8"?>
<svg id="Layer_1" data-name="Layer 1" xmlns="http://www.w3.org/2000/svg" viewBox="0 0 30 30">
  <defs>
    <style>
      .cls-1 {
        fill: none;
        stroke: #4b286d;
        stroke-linecap: round;
        stroke-linejoin: round;
      }
    </style>
  </defs>
  <circle class="cls-1" cx="6.12" cy="23.7" r="5.02"/>
  <circle class="cls-1" cx="23.88" cy="23.7" r="5.02"/>
  <line class="cls-1" x1="19.16" y1="13.02" x2="24.14" y2="23.7"/>
  <polyline class="cls-1" points="10.32 15.86 6.12 23.7 13.55 23.7"/>
  <polyline class="cls-1" points="13.91 15.22 20.19 15.22 16.18 22.09"/>
  <circle class="cls-1" cx="20.93" cy="4.94" r="1.86"/>
  <path class="cls-1" d="M21.07,10.76c.59,0,1.06.48,1.06,1.06s-.48,1.06-1.06,1.06"/>
  <path class="cls-1" d="M16.17,24.83c.1.58-.28,1.13-.86,1.23s-1.13-.28-1.23-.86"/>
  <path class="cls-1" d="M14.08,25.21l-.52-6.95-3.9-3.6s-.62-1.12.18-2.02l6.32-6.28s1.08-.54,1.52.72l.67,3.59,2.83.09"/>
  <path class="cls-1" d="M21.07,12.88l-2.9-.06c-1.35-.04-1.61-1.03-1.61-1.03l-.27-2.2-3.84,4.36,3.45,3.41.27,7.48"/>
</svg>