<?xml version="1.0" encoding="UTF-8"?><svg version="1.1" viewBox="0 0 30 30" xmlns="http://www.w3.org/2000/svg" xmlns:xlink="http://www.w3.org/1999/xlink"><!--Generated by IJSVG (https://github.com/iconjar/IJSVG)--><g fill="#4B286D"><path d="M20,11h-10c-0.3,0 -0.5,-0.2 -0.5,-0.5v-10c0,-0.3 0.2,-0.5 0.5,-0.5h10c0.3,0 0.5,0.2 0.5,0.5v10c0,0.3 -0.2,0.5 -0.5,0.5Zm-9.5,-1h9v-9h-9v9Z"></path><path d="M11,30h-10c-0.3,0 -0.5,-0.2 -0.5,-0.5v-10c0,-0.3 0.2,-0.5 0.5,-0.5h10c0.3,0 0.5,0.2 0.5,0.5v10c0,0.3 -0.2,0.5 -0.5,0.5Zm-9.5,-1h9v-9h-9v9Z"></path><path d="M29,30h-10c-0.3,0 -0.5,-0.2 -0.5,-0.5v-10c0,-0.3 0.2,-0.5 0.5,-0.5h10c0.3,0 0.5,0.2 0.5,0.5v10c0,0.3 -0.2,0.5 -0.5,0.5Zm-9.5,-1h9v-9h-9v9Z"></path><path d="M15,16c-0.3,0 -0.5,-0.2 -0.5,-0.5v-4.5c0,-0.3 0.2,-0.5 0.5,-0.5c0.3,0 0.5,0.2 0.5,0.5v4.5c0,0.3 -0.2,0.5 -0.5,0.5Z"></path><path d="M24,20c-0.3,0 -0.5,-0.2 -0.5,-0.5v-1.5c0,-1.1 -0.9,-2 -2,-2h-13c-1.1,0 -2,0.9 -2,2v1.3c0,0.3 -0.2,0.5 -0.5,0.5c-0.3,0 -0.5,-0.2 -0.5,-0.5v-1.3c0,-1.7 1.3,-3 3,-3h13c1.7,0 3,1.3 3,3v1.5c0,0.3 -0.2,0.5 -0.5,0.5Z"></path></g></svg>