<?xml version="1.0" encoding="UTF-8"?><svg version="1.1" viewBox="0 0 30 30" xmlns="http://www.w3.org/2000/svg" xmlns:xlink="http://www.w3.org/1999/xlink"><!--Generated by IJSVG (https://github.com/iconjar/IJSVG)--><g fill="#4B286D"><path d="M16.8,30h-6c-0.3,0 -0.5,-0.2 -0.5,-0.5v-16.5c0,-0.1 0.1,-0.3 0.2,-0.4l9.5,-9.1l-2.6,-2.6c-0.1,-0.1 -0.2,-0.4 -0.1,-0.5c0.1,-0.3 0.2,-0.4 0.5,-0.4h10c0.3,0 0.5,0.2 0.5,0.5v10c0,0.2 -0.1,0.4 -0.3,0.5c-0.2,0.1 -0.4,0 -0.5,-0.1l-2.6,-2.6l-7.5,7.5v13.8c-0.1,0.2 -0.4,0.4 -0.6,0.4Zm-5.5,-1h5v-13.5c0,-0.1 0.1,-0.3 0.1,-0.4l8,-8c0.2,-0.2 0.5,-0.2 0.7,0l2.1,2.1v-8.2h-8.2l2.1,2.1c0.1,0.1 0.1,0.2 0.1,0.4c0,0.2 -0.1,0.3 -0.2,0.4l-9.8,9.4l0.1,15.7v0Z"></path><path d="M10.8,13.5c-0.1,0 -0.3,0 -0.4,-0.1l-8.5,-8.5c-0.2,-0.2 -0.2,-0.5 -4.44089e-16,-0.7l4,-4c0.2,-0.2 0.5,-0.2 0.7,-0.1l8.5,8.5c0.2,0.2 0.2,0.5 0,0.7c-0.2,0.2 -0.5,0.2 -0.7,0l-8.1,-8.1l-3.3,3.3l8.1,8.1c0.2,0.2 0.2,0.5 0,0.7c-0.1,0.2 -0.2,0.2 -0.3,0.2Z"></path></g></svg>