<?xml version="1.0" encoding="UTF-8"?><svg version="1.1" viewBox="0 0 30 30" xmlns="http://www.w3.org/2000/svg" xmlns:xlink="http://www.w3.org/1999/xlink"><!--Generated by IJSVG (https://github.com/iconjar/IJSVG)--><g fill="#4B286D"><path d="M16.8,29.6c-0.1,0 -0.2,0 -0.3,-0.1c-0.2,-0.2 -0.2,-0.5 -0.1,-0.7c0.6,-0.7 2.1,-2.6 2.4,-3.4c0.3,-0.9 0.4,-1.9 0.3,-2.2c-0.2,-0.4 -1,-0.9 -1.7,-1.3c-1.1,-0.7 -2.3,-1.4 -2.3,-2.4c0,-0.5 0.5,-0.8 1,-1.2c0.2,-0.1 0.4,-0.3 0.5,-0.4c-0.1,-1.3 -2.2,-2.7 -4,-3.9c-1.4,-0.9 -2.7,-1.8 -3.4,-2.7c-0.2,-0.1 -0.3,-0.3 -0.5,-0.5c-0.8,-1.1 -1.5,-2.1 -1.7,-2.7c-0.1,-0.6 0.1,-1.1 0.3,-1.7c0.2,-0.4 0.4,-0.9 0.3,-1.1c-0.1,-0.1 -0.4,-0.3 -0.7,-0.4c-0.6,-0.3 -1.3,-0.7 -1.3,-1.3c0,-0.3 0.2,-0.5 0.5,-0.5c0.2,0 0.5,0.2 0.5,0.4c0.1,0.2 0.6,0.4 0.8,0.5c0.4,0.2 0.8,0.4 1,0.7c0.5,0.6 0.1,1.4 -0.1,2.1c-0.2,0.4 -0.4,0.8 -0.3,1.1c0.1,0.4 1.1,1.8 1.6,2.3c0.2,0.2 0.3,0.4 0.4,0.5c0.6,0.8 1.8,1.6 3.1,2.5c2.2,1.4 4.5,2.9 4.5,4.8c0,0.5 -0.5,0.8 -1,1.2c-0.2,0.1 -0.4,0.3 -0.5,0.4c0.1,0.4 1.1,1 1.8,1.4c1,0.6 1.9,1.1 2.1,1.8c0.3,0.8 -0.1,2.4 -0.2,2.8c-0.3,1.1 -2.3,3.5 -2.6,3.8c-0.1,0.2 -0.3,0.2 -0.4,0.2Z"></path><path d="M26.5,24c0,0 -0.1,0 0,0c-0.4,0 -0.5,-0.3 -0.5,-0.6c0.3,-2.1 0.5,-4.6 0.1,-5.1c-0.2,-0.3 -1,-0.5 -1.7,-0.6c-0.6,-0.1 -1.2,-0.2 -1.7,-0.5c-0.3,-0.2 -0.5,-0.5 -0.6,-0.8c-0.1,-0.1 -0.2,-0.4 -0.3,-0.4c-0.3,-0.1 -1.3,0 -2,0c-1,0.1 -1.9,0.2 -2.5,0c-1.2,-0.5 -4,-2.5 -3.3,-4.2c0.3,-0.6 1.1,-0.6 1.8,-0.7c0.3,0 0.8,0 0.9,-0.1c0.5,-0.3 0.9,-1.5 1.2,-2.5c0.3,-0.8 0.5,-1.6 0.9,-2.1c0.1,-0.2 0.4,-0.4 0.6,-0.6c0.1,-0.1 0.4,-0.3 0.5,-0.4c-0.1,-0.1 -0.5,-0.2 -0.7,-0.2c-0.4,-0.1 -0.8,-0.2 -1.1,-0.4c-0.1,-0.1 -0.2,-0.2 -0.4,-0.3c-0.1,-0.1 -0.5,-0.5 -0.7,-0.5c0,0 -0.3,0.2 -0.4,0.4c-0.3,0.3 -0.7,0.6 -1.1,0.6c-0.7,0 -1.1,-0.8 -1.4,-1.7l-0.1,-0.1c-0.2,-0.5 -0.1,-1.3 -0.1,-2c0,-0.3 0,-0.5 0,-0.7c0.1,-0.3 0.3,-0.5 0.6,-0.5c0.3,0 0.5,0.2 0.5,0.5c0,0.2 0,0.5 0,0.8c0,0.5 -0.1,1.3 0,1.6v0.1c0.2,0.5 0.4,0.9 0.5,1c0.1,-0.1 0.3,-0.2 0.4,-0.3c0.3,-0.4 0.7,-0.7 1.1,-0.7c0.5,0 1,0.4 1.5,0.8c0.1,0.1 0.2,0.2 0.3,0.3c0.1,0.1 0.4,0.2 0.7,0.2c0.6,0.1 1.4,0.3 1.5,1.1c0.1,0.6 -0.4,1 -0.9,1.3c-0.2,0.1 -0.4,0.3 -0.4,0.3c-0.3,0.4 -0.5,1.1 -0.7,1.9c-0.4,1.2 -0.8,2.5 -1.6,3c-0.3,0.2 -0.9,0.2 -1.4,0.2c-0.3,0 -0.8,0 -1,0.1c-0.3,0.7 1.5,2.3 2.8,2.8c0.3,0.1 1.3,0 2,0c1,-0.1 1.9,-0.2 2.5,0c0.4,0.2 0.6,0.5 0.8,0.9c0.1,0.1 0.2,0.4 0.3,0.4c0.3,0.2 0.8,0.3 1.3,0.4c0.9,0.2 1.9,0.4 2.3,1c0.8,1.1 0.2,5.1 0.1,5.9c-0.1,0.2 -0.4,0.4 -0.6,0.4Z"></path><path d="M15,30c-8.3,0 -15,-6.7 -15,-15c0,-8.3 6.7,-15 15,-15c8.3,0 15,6.7 15,15c0,8.3 -6.7,15 -15,15Zm0,-29c-7.7,0 -14,6.3 -14,14c0,7.7 6.3,14 14,14c7.7,0 14,-6.3 14,-14c0,-7.7 -6.3,-14 -14,-14Z"></path></g></svg>