<?xml version="1.0" encoding="UTF-8"?>
<svg id="Layer_1" data-name="Layer 1" xmlns="http://www.w3.org/2000/svg" viewBox="0 0 24 24">
  <defs>
    <style>
      .cls-1 {
        fill: none;
        stroke: #4c286d;
        stroke-linecap: round;
        stroke-linejoin: round;
        stroke-width: .8px;
      }
    </style>
  </defs>
  <path class="cls-1" d="M5.38,19.75l.4-1.44c.16-.72.64-1.28,1.36-1.53l2.65-.88c.64-.24.64-1.36.64-1.77-.72-.48-1.04-1.77-1.12-2.09-.56.16-1.12-2.33-.48-2.01,0-3.05,1.36-4.33,3.21-4.33s3.21,1.28,3.21,4.33c.64-.32,0,2.25-.48,2.01-.16.32-.48,1.61-1.12,2.09,0,.4,0,1.53.64,1.77l2.65.88c.72.24,1.2.8,1.36,1.53l.4,1.44H5.38Z"/>
  <path class="cls-1" d="M19.91,18.38h3.13c.16,0,.24-.08.24-.24,0-1.36-.88-2.41-2.25-2.73l-.56-.16-1.12-.32-.16-.64c.48-.48.88-1.2.96-1.93.24-.08.48-.32.56-.64v-.96c.08-.24.08-.48,0-.64-.08-.08-.16-.16-.32-.24v-.96l.24-.16c.24-.32.56-.8,0-1.61-.4-.64-1.04-.88-2.01-.88s-1.61.16-2.49.72"/>
  <path class="cls-1" d="M8.11,6.74c-.4-.4-.8-.56-1.44-.56-.96,0-3.21.96-3.21,3.93s-.8,2.97-.8,2.97c-.16.08-.24.24-.24.4s0,.32.24.4c0,0,.64.4,1.77.56.24,0,.4.48.24.48h0l-1.12.32-.56.16c-1.36.32-2.25,1.61-2.25,2.97h3.37"/>
</svg>