<?xml version="1.0" encoding="UTF-8"?><svg version="1.1" viewBox="0 0 30 30" xmlns="http://www.w3.org/2000/svg" xmlns:xlink="http://www.w3.org/1999/xlink"><!--Generated by IJSVG (https://github.com/iconjar/IJSVG)--><g stroke-linecap="round" stroke-width="1" stroke="#4B286D" fill="none" stroke-linejoin="round"><path d="M11.3,23.4c0,0 0,0.9 -0.9,1.4l-3.9,1.7"></path><path d="M23.5,26.5l-3.9,-1.7c-0.9,-0.5 -0.9,-1.4 -0.9,-1.4"></path><path d="M25.253,4.74695c5.6626,5.6626 5.6626,14.8435 0,20.5061c-5.6626,5.6626 -14.8435,5.6626 -20.5061,3.55271e-15c-5.6626,-5.6626 -5.6626,-14.8435 -1.77636e-15,-20.5061c5.6626,-5.6626 14.8435,-5.6626 20.5061,-1.77636e-15"></path><path d="M18.7,23.4c1.8,-0.2 3.6,-0.7 5.3,-1.5c0,0 -2.4,-1.8 -2.4,-8.2c0,-6.4 -2,-7 -3,-7h-0.6c-0.7,-0.9 -1.9,-1.3 -3,-1.2c-1.6,0 -6.6,1.8 -6.6,8.2c0,6.4 -2.4,8.2 -2.4,8.2c1.7,0.8 3.5,1.3 5.3,1.5"></path></g></svg>