<?xml version="1.0" encoding="UTF-8"?><svg version="1.1" viewBox="0 0 30 30" xmlns="http://www.w3.org/2000/svg" xmlns:xlink="http://www.w3.org/1999/xlink"><!--Generated by IJSVG (https://github.com/iconjar/IJSVG)--><g fill="#4B286D"><path d="M23,26h-19c-0.3,0 -0.5,-0.2 -0.5,-0.5v-18c0,-0.1 0.1,-0.3 0.1,-0.4l7,-7c0.1,3.60822e-16 0.3,-0.1 0.4,-0.1h12c0.3,0 0.5,0.2 0.5,0.5v25c0,0.3 -0.2,0.5 -0.5,0.5Zm-18.5,-1h18v-24h-11.3l-6.7,6.7v17.3Z"></path><path d="M11,8h-7c-0.3,0 -0.5,-0.2 -0.5,-0.5c0,-0.3 0.2,-0.5 0.5,-0.5h6.5v-6.5c0,-0.3 0.2,-0.5 0.5,-0.5c0.3,0 0.5,0.2 0.5,0.5v7c0,0.3 -0.2,0.5 -0.5,0.5Z"></path><path d="M26,30h-18c-0.3,0 -0.5,-0.2 -0.5,-0.5v-4c0,-0.3 0.2,-0.5 0.5,-0.5c0.3,0 0.5,0.2 0.5,0.5v3.5h17v-24h-2.5c-0.3,0 -0.5,-0.2 -0.5,-0.5c0,-0.3 0.2,-0.5 0.5,-0.5h3c0.3,0 0.5,0.2 0.5,0.5v25c0,0.3 -0.2,0.5 -0.5,0.5Z"></path></g></svg>