<?xml version="1.0" encoding="UTF-8"?><svg version="1.1" viewBox="0 0 30 30" xmlns="http://www.w3.org/2000/svg" xmlns:xlink="http://www.w3.org/1999/xlink"><!--Generated by IJSVG (https://github.com/iconjar/IJSVG)--><g fill="#4B286D"><path d="M13,20c-0.1,0 -0.3,0 -0.4,-0.1l-5,-5c-0.2,-0.2 -0.2,-0.5 0,-0.7c0.2,-0.2 0.5,-0.2 0.7,0l4.6,4.6l8.6,-8.6c0.2,-0.2 0.5,-0.2 0.7,0c0.2,0.2 0.2,0.5 0,0.7l-9,9c0.1,0.1 -0.1,0.1 -0.2,0.1Z"></path><path d="M15,30c0,0 -0.1,0 -0.1,0c-4.7,-1.4 -13.4,-6.3 -13.4,-11.8v-13.9c0,-0.2 0.1,-0.4 0.4,-0.5l13,-3.8c0.1,0 0.1,0 0.2,0l13,3.8c0.2,0.1 0.4,0.3 0.4,0.5v13.9c0,5.5 -8.7,10.4 -13.4,11.8c0,0 -0.1,0 -0.1,0Zm-12.5,-25.3v13.5c0,4.5 7.3,9.2 12.5,10.8c5.2,-1.6 12.5,-6.3 12.5,-10.8v-13.5l-12.5,-3.7l-12.5,3.7Z"></path></g></svg>