<?xml version="1.0" encoding="UTF-8"?>
<svg id="Layer_1" data-name="Layer 1" xmlns="http://www.w3.org/2000/svg" viewBox="0 0 30 30">
  <defs>
    <style>
      .cls-1 {
        fill: none;
        stroke: #4b286d;
        stroke-linecap: round;
        stroke-linejoin: round;
      }
    </style>
  </defs>
  <g>
    <path class="cls-1" d="M5.7,27.41c2.34,0,2.34,1.42,4.69,1.42s2.34-1.42,4.69-1.42,2.35,1.42,4.69,1.42,2.35-1.42,4.7-1.42,2.35,1.42,4.7,1.42"/>
    <path class="cls-1" d="M1.13,28.83c2.35,0,2.35-1.42,4.7-1.42s2.35,1.42,4.7,1.42"/>
  </g>
  <g>
    <path class="cls-1" d="M5.7,24.43c2.34,0,2.34,1.42,4.69,1.42s2.34-1.42,4.69-1.42,2.35,1.42,4.69,1.42,2.35-1.42,4.7-1.42,2.35,1.42,4.7,1.42"/>
    <path class="cls-1" d="M1.13,25.85c2.35,0,2.35-1.42,4.7-1.42s2.35,1.42,4.7,1.42"/>
  </g>
  <g>
    <path class="cls-1" d="M5.7,21.45c2.34,0,2.34,1.42,4.69,1.42s2.34-1.42,4.69-1.42,2.35,1.42,4.69,1.42,2.35-1.42,4.7-1.42,2.35,1.42,4.7,1.42"/>
    <path class="cls-1" d="M1.13,22.87c2.35,0,2.35-1.42,4.7-1.42s2.35,1.42,4.7,1.42"/>
  </g>
  <g>
    <path class="cls-1" d="M5.67,14.21l1.44.23c.46.07.87.33,1.13.71l2.1,2.61-5.07-.82"/>
    <path class="cls-1" d="M24.74,17.29l-1.44-.23c-.46-.07-.92.04-1.3.31l-2.82,1.82,5.07.82"/>
    <path class="cls-1" d="M18.18,21.12l1.81-.41,4.09.66c.4-1.03.69-2.11.87-3.2.29-1.8-.09-2.87-1.17-3.67s-3.92-1.5-8.02-2.16-7.02-.89-8.3-.47-1.97,1.31-2.26,3.11c-.18,1.09-.24,2.2-.18,3.31l4.09.66,1.59.96,7.49,1.21Z"/>
    <polygon class="cls-1" points="17.15 18.86 20.32 16.57 10.1 14.93 12.38 18.09 17.15 18.86"/>
    <path class="cls-1" d="M23.81,14.3s-1.27-5.09-1.73-5.64-2.14-1.24-5.02-1.7l-.86-.14c-2.87-.46-4.68-.34-5.29.04s-3.42,4.81-3.42,4.81"/>
    <path class="cls-1" d="M9.38,19.35l-.24,1.51c-.07.48-.52.81-1,.73h0s-2.37-.38-2.37-.38c-.48-.08-.8-.53-.72-1.01h0s.24-1.51.24-1.51"/>
  </g>
</svg>