<?xml version="1.0" encoding="UTF-8"?><svg version="1.1" viewBox="0 0 30 30" xmlns="http://www.w3.org/2000/svg" xmlns:xlink="http://www.w3.org/1999/xlink"><!--Generated by IJSVG (https://github.com/iconjar/IJSVG)--><g stroke-linecap="round" stroke-width="1" stroke="#4B286D" fill="none" stroke-linejoin="round"><path d="M16.534,20.111l-2.01021e-07,3.77909e-10c1.9129,-0.00359621 3.65345,1.10498 4.459,2.84c0.788,1.706 2.128,3.549 4.235,3.549c2.663,0 4.272,-3.986 4.272,-8.65c0,-7.031 -4.413,-14.35 -7.076,-14.35c-1.498,0 -2.862,0.809 -3.768,1.516c-0.889,0.694 -1.995,1.039 -3.118,1.039h-1.076c-1.122,0 -2.229,-0.346 -3.118,-1.039c-0.906,-0.707 -2.27,-1.516 -3.768,-1.516c-2.663,3.04865e-07 -7.076,7.319 -7.076,14.35c0,4.664 1.609,8.65 4.272,8.65c2.107,0 3.447,-1.843 4.235,-3.549l-9.41817e-08,2.02781e-07c0.805748,-1.73485 2.54617,-2.84335 4.459,-2.84h3.068Z"></path><path d="M9.76777,11.2322c0.976311,0.976311 0.976311,2.55922 0,3.53553c-0.976311,0.976311 -2.55922,0.976311 -3.53553,0c-0.976311,-0.976311 -0.976311,-2.55922 0,-3.53553c0.976311,-0.976311 2.55922,-0.976311 3.53553,0"></path><path d="M21.5,10.5v5m-2.5,-2.5h5"></path></g></svg>