<?xml version="1.0" encoding="UTF-8"?>
<svg id="Layer_1" data-name="Layer 1" xmlns="http://www.w3.org/2000/svg" viewBox="0 0 24 24">
  <defs>
    <style>
      .cls-1 {
        fill: none;
        stroke: #4c286d;
        stroke-linecap: round;
        stroke-linejoin: round;
        stroke-width: .8px;
      }
    </style>
  </defs>
  <path class="cls-1" d="M.72,20.88l.48-1.84c.24-.88.8-1.6,1.76-1.92l3.36-1.12c.72-.32.72-1.68.8-2.16-.88-.64-1.28-2.24-1.44-2.56-.72.24-1.36-2.96-.64-2.56,0-3.76,1.68-5.44,4-5.44s4,1.6,4,5.44c.8-.4.08,2.8-.64,2.56-.16.32-.56,2-1.44,2.56,0,.48,0,1.84.8,2.16l3.36,1.12c.88.32,1.52.96,1.76,1.92l.48,1.84H.72Z"/>
  <path class="cls-1" d="M18.88,20.88h4c.24,0,.4-.16.4-.4,0-1.92-.88-3.44-2.8-3.92l-.48-.16-2.8-.72-.16-.56c1.92-.32,2.96-.88,3.04-.96.08,0,.16-.16.16-.32s0-.24-.16-.32c0,0-1.36-1.12-1.36-4.8s-.8-4.8-2.24-4.8h-.24c-.48-.48-.88-.72-1.84-.72s-.32,0-.32.24"/>
</svg>