<?xml version="1.0" encoding="UTF-8"?>
<svg id="Layer_1" data-name="Layer 1" xmlns="http://www.w3.org/2000/svg" viewBox="0 0 24 24">
  <defs>
    <style>
      .cls-1 {
        fill: none;
        stroke: #4c286d;
        stroke-linecap: round;
        stroke-linejoin: round;
        stroke-width: .8px;
      }
    </style>
  </defs>
  <path class="cls-1" d="M20.08,3.84c4.48,4.48,4.48,11.68,0,16.16s-11.68,4.48-16.16,0S-.56,8.32,3.92,3.84C8.4-.56,15.6-.56,20.08,3.84"/>
  <path class="cls-1" d="M4.8,20.56l4.24-1.84c.88-.32.88-2,.88-2.4-.96-.72-1.44-2.48-1.6-2.88-.8.32-1.6-3.28-.72-2.8,0-4.32,2-6.16,4.56-6.16s4.48,1.92,4.48,6.16c.88-.48,0,3.12-.72,2.8-.24.4-.64,2.24-1.6,2.88,0,.48,0,2.08.88,2.4l3.84,1.92"/>
</svg>