<?xml version="1.0" encoding="UTF-8"?>
<svg id="Layer_1" data-name="Layer 1" xmlns="http://www.w3.org/2000/svg" viewBox="0 0 24 24">
  <defs>
    <style>
      .cls-1 {
        fill: none;
        stroke: #4c286d;
        stroke-linecap: round;
        stroke-linejoin: round;
        stroke-width: .8px;
      }
    </style>
  </defs>
  <path class="cls-1" d="M.72,20.88l.48-1.84c.24-.88.8-1.6,1.76-1.92l3.36-1.12c.72-.32.72-1.68.8-2.16-.88-.64-1.28-2.24-1.44-2.56-.72.24-1.36-2.96-.64-2.56,0-3.76,1.68-5.44,4-5.44s4,1.6,4,5.44c.8-.4.08,2.8-.64,2.56-.16.32-.56,2-1.44,2.56,0,.48,0,1.84.8,2.16l3.36,1.12c.88.32,1.52.96,1.76,1.92l.48,1.84H.72Z"/>
  <path class="cls-1" d="M18.96,20.88h4c.24,0,.4-.16.4-.4,0-1.92-1.28-3.52-3.2-4l-.8-.24-1.68-.48-.24-.88c.72-.72,1.28-1.76,1.44-2.8.4-.16.72-.48.8-.96l.16-1.44c0-.32,0-.64-.24-.88-.16-.16-.24-.24-.48-.32v-1.36l.32-.24c.4-.48.8-1.2,0-2.32-.56-.88-1.52-1.28-2.88-1.28s-1.76,0-2.96.8"/>
</svg>