<?xml version="1.0" encoding="UTF-8"?><svg version="1.1" viewBox="0 0 30 30" xmlns="http://www.w3.org/2000/svg" xmlns:xlink="http://www.w3.org/1999/xlink"><!--Generated by IJSVG (https://github.com/iconjar/IJSVG)--><path d="M28.513,19.974l-3.96,-1.726l-2.63514e-07,-9.96042e-08c-1.28061,-0.484052 -2.71364,0.141067 -3.23,1.409l-2.358,5.175l5.41407e-08,-1.33118e-07c-0.468257,1.15133 -0.0271426,2.47213 1.039,3.111l1.994,1.197l-3.09767e-07,-1.85826e-07c1.19443,0.716524 2.74356,0.329106 3.46008,-0.865323c0.0553724,-0.0923045 0.104779,-0.188059 0.147916,-0.286677c0,0 3.894,-9.206 3.894,-12.988c0,-8.008 -6.492,-14.5 -14.5,-14.5c-8.008,0 -14.5,6.492 -14.5,14.5c0,3.783 3.894,12.988 3.894,12.988l-4.088e-08,-9.35728e-08c0.557399,1.27587 2.04355,1.8583 3.31942,1.3009c0.0992934,-0.0433792 0.195687,-0.093115 0.28858,-0.148898l1.994,-1.197l-7.49046e-08,4.50241e-08c1.06474,-0.64 1.50546,-1.95962 1.039,-3.111l-2.358,-5.175l-3.84406e-08,-9.47067e-08c-0.51513,-1.26913 -1.94934,-1.89477 -3.23,-1.409l-3.96,1.726" stroke-linecap="round" stroke-width="1" stroke="#4B286D" fill="none" stroke-linejoin="round"></path></svg>