<?xml version="1.0" encoding="UTF-8"?><svg version="1.1" viewBox="0 0 30 30" xmlns="http://www.w3.org/2000/svg" xmlns:xlink="http://www.w3.org/1999/xlink"><!--Generated by IJSVG (https://github.com/iconjar/IJSVG)--><path d="M29.5,10.696l1.88169e-07,0.000305152c0.00136498,2.2825 -0.949373,4.46212 -2.62322,6.0139l-11.8768,11.0068l-11.877,-11.007l-3.70898e-07,-3.43875e-07c-1.67379,-1.55184 -2.62445,-3.7315 -2.623,-6.014l-6.09585e-08,-0.000998318c-6.83403e-07,-4.52597 3.66903,-8.195 8.195,-8.195c0.000666539,-1.00645e-10 0.00133308,8.11179e-08 0.00199962,2.43656e-07l-1.43172e-08,2.17355e-11c2.43533,-0.00369725 4.74573,1.07764 6.303,2.95l1.09796e-07,-1.32012e-07c1.5575,-1.87263 3.86832,-2.95399 6.304,-2.95l3.13517e-07,-3.82538e-11c4.52597,-0.000552145 8.19545,3.66803 8.196,8.194c8.13348e-08,0.000666707 8.13093e-08,0.00133341 -7.65183e-11,0.00200012Z" stroke-linecap="round" stroke-width="1" stroke="#4B286D" fill="none" stroke-linejoin="round"></path></svg>