<?xml version="1.0" encoding="UTF-8"?><svg version="1.1" viewBox="0 0 30 30" xmlns="http://www.w3.org/2000/svg" xmlns:xlink="http://www.w3.org/1999/xlink"><!--Generated by IJSVG (https://github.com/iconjar/IJSVG)--><g stroke-linecap="round" stroke-width="1" stroke="#4B286D" fill="none" stroke-linejoin="round"><path d="M27.99,12.98c0.16,-0.62 0.25,-1.26 0.25,-1.91c0,-4.18 -3.39,-7.56 -7.57,-7.57c-2.17,0 -4.24,0.94 -5.67,2.57c-1.39,-1.57 -3.42,-2.57 -5.67,-2.57c-4.18,0 -7.56,3.39 -7.57,7.57c0,0.65 0.09,1.29 0.25,1.91"></path><path d="M3.58,15.98c0.13,0.15 0.25,0.29 0.39,0.43l11.03,11.05l11.03,-11.05c0.14,-0.14 0.26,-0.28 0.39,-0.43"></path><path d="M0.5,14.5h8.83l3.67,6l3,-10l2.78,4h10.72"></path></g></svg>