<?xml version="1.0" encoding="UTF-8"?><svg version="1.1" viewBox="0 0 30 30" xmlns="http://www.w3.org/2000/svg" xmlns:xlink="http://www.w3.org/1999/xlink"><!--Generated by IJSVG (https://github.com/iconjar/IJSVG)--><g stroke-linecap="round" stroke-width="1" stroke="#4B286D" fill="none" stroke-linejoin="round"><path d="M15.6,0.6l9.5,3.2c0.8,0.3 1.4,1 1.4,1.9v12.4c0,8.1 -11.5,11.3 -11.5,11.3c0,0 -11.5,-3.2 -11.5,-11.3v-12.4c0,-0.9 0.5,-1.6 1.4,-1.9l9.5,-3.2c0.4,-0.1 0.8,-0.1 1.2,-1.11022e-16Z"></path><path d="M13.6,19.8v-3.2c0,-0.2 0.2,-0.4 0.4,-0.4h1.6c0.2,0 0.4,0.2 0.4,0.4v3.2h2.4c0.4,0 0.8,-0.4 0.8,-0.8v-5.2h1.6l-5.8,-5.7l-5.9,5.7h1.6v5.2c0,0.4 0.4,0.8 0.8,0.8h2.1Z"></path></g></svg>