<?xml version="1.0" encoding="UTF-8"?><svg version="1.1" viewBox="0 0 30 30" xmlns="http://www.w3.org/2000/svg" xmlns:xlink="http://www.w3.org/1999/xlink"><!--Generated by IJSVG (https://github.com/iconjar/IJSVG)--><path d="M29.9,14.1l-3.9,-3.8v-9.8c0,-0.3 -0.2,-0.5 -0.5,-0.5h-5c-0.3,0 -0.5,0.2 -0.5,0.5v3.7l-3.6,-3.6c-0.8,-0.8 -2.1,-0.8 -2.9,0l-13.4,13.5c-0.1,0.2 -0.1,0.4 -0.1,0.6c0.1,0.2 0.3,0.3 0.5,0.3h3.5v14.5c0,0.3 0.2,0.5 0.5,0.5h21c0.3,0 0.5,-0.2 0.5,-0.5v-14.5h3.5c0.2,0 0.4,-0.1 0.5,-0.3c0,-0.2 0,-0.4 -0.1,-0.6Zm-4.4,-0.1c-0.3,0 -0.5,0.2 -0.5,0.5v14.5h-20v-14.5c0,-0.3 -0.2,-0.5 -0.5,-0.5h-2.8l12.6,-12.7c0.4,-0.4 1.1,-0.4 1.4,-8.88178e-16l4.4,4.5c0.1,0.1 0.4,0.2 0.5,0.1c0.3,-0.1 0.4,-0.3 0.4,-0.5v-4.4h4v9.5c0,0.1 0.1,0.3 0.1,0.4l3.2,3.2h-2.8Zm-6,1h-9c-0.3,0 -0.5,0.2 -0.5,0.5v9c0,0.3 0.2,0.5 0.5,0.5h9c0.3,0 0.5,-0.2 0.5,-0.5v-9c0,-0.3 -0.2,-0.5 -0.5,-0.5Zm-0.5,9h-8v-8h8v8Z" fill="#4B286D"></path></svg>