<?xml version="1.0" encoding="UTF-8"?><svg version="1.1" viewBox="0 0 30 30" xmlns="http://www.w3.org/2000/svg" xmlns:xlink="http://www.w3.org/1999/xlink"><!--Generated by IJSVG (https://github.com/iconjar/IJSVG)--><path d="M29.855,14.138l-13.428,-13.562c-0.761,-0.755 -2.091,-0.757 -2.855,-4.44089e-16c-0.001,0.001 -0.002,0.002 -0.003,0.003l-13.424,13.559c-0.142,0.143 -0.184,0.358 -0.106,0.544c0.077,0.187 0.259,0.308 0.461,0.308h1.5v14.5c0,0.276 0.224,0.5 0.5,0.5h8c0.276,0 0.5,-0.224 0.5,-0.5v-10.5h8v10.5c0,0.276 0.224,0.5 0.5,0.5h8c0.276,0 0.5,-0.224 0.5,-0.5v-14.5h1.5c0.201,0 0.383,-0.121 0.461,-0.308c0.078,-0.186 0.036,-0.401 -0.106,-0.544Zm-2.355,-0.148c-0.276,0 -0.5,0.224 -0.5,0.5v14.5h-7v-10.5c0,-0.276 -0.224,-0.5 -0.5,-0.5h-9c-0.276,0 -0.5,0.224 -0.5,0.5v10.5h-7v-14.5c0,-0.276 -0.224,-0.5 -0.5,-0.5h-0.801l12.578,-12.705c0.386,-0.38 1.064,-0.377 1.443,-0.002l12.581,12.707h-0.801Z" fill="#4B286D"></path></svg>