<?xml version="1.0" encoding="UTF-8"?><svg version="1.1" viewBox="0 0 30 30" xmlns="http://www.w3.org/2000/svg" xmlns:xlink="http://www.w3.org/1999/xlink"><!--Generated by IJSVG (https://github.com/iconjar/IJSVG)--><g stroke-linecap="round" stroke-width="1" stroke="#4B286D" fill="none" stroke-linejoin="round"><path d="M27.5,25.5h-25h-8.74228e-08c-1.10457,-4.82823e-08 -2,-0.895431 -2,-2c0,0 0,0 0,0v-17l2.13163e-14,3.01992e-07c-1.66785e-07,-1.10457 0.89543,-2 2,-2h25h-8.74228e-08c1.10457,-4.82823e-08 2,0.89543 2,2v17v0c0,1.10457 -0.895431,2 -2,2Z"></path><path d="M11.7678,10.2322c0.976311,0.976311 0.976311,2.55922 0,3.53553c-0.976311,0.976311 -2.55922,0.976311 -3.53553,0c-0.976311,-0.976311 -0.976311,-2.55922 0,-3.53553c0.976311,-0.976311 2.55922,-0.976311 3.53553,0"></path><path d="M5.5,20.5v-2l2.30926e-14,3.01992e-07c-1.66785e-07,-1.10457 0.89543,-2 2,-2h5l-8.74228e-08,3.55271e-15c1.10457,-4.82823e-08 2,0.89543 2,2v2m4,-1h6m-6,-5h6m-6,-5h6"></path></g></svg>