<?xml version="1.0" encoding="UTF-8"?><svg version="1.1" viewBox="0 0 30 30" xmlns="http://www.w3.org/2000/svg" xmlns:xlink="http://www.w3.org/1999/xlink"><!--Generated by IJSVG (https://github.com/iconjar/IJSVG)--><path d="M23.521,9c-1.253,0 -2.459,0.4 -3.496,1.161c-0.047,0.019 -0.092,0.046 -0.132,0.08l-10.324,8.668c-0.03,0.014 -0.06,0.032 -0.087,0.053c-0.886,0.68 -1.925,1.039 -3.003,1.039c-2.746,0 -4.979,-2.243 -4.979,-5c0,-2.757 2.234,-5 4.979,-5c1.078,0 2.117,0.359 3.003,1.039c0.018,0.013 0.036,0.025 0.055,0.036l2.018,1.924h-2.555c-0.276,0 -0.5,0.224 -0.5,0.5c0,0.276 0.224,0.5 0.5,0.5h4c0.276,0 0.5,-0.224 0.5,-0.5v-4c0,-0.276 -0.224,-0.5 -0.5,-0.5c-0.276,0 -0.5,0.224 -0.5,0.5v3.02l-2.369,-2.259c-0.044,-0.042 -0.093,-0.074 -0.148,-0.096c-1.038,-0.763 -2.247,-1.165 -3.504,-1.165c-3.297,0 -5.979,2.691 -5.979,6c0,3.309 2.682,6 5.979,6c1.253,0 2.459,-0.4 3.496,-1.161c0.047,-0.019 0.092,-0.046 0.132,-0.08l10.324,-8.668c0.03,-0.014 0.06,-0.032 0.087,-0.053c0.886,-0.68 1.925,-1.039 3.003,-1.039c2.746,0 4.979,2.243 4.979,5c0,2.757 -2.234,5 -4.979,5c-1.078,0 -2.117,-0.359 -3.003,-1.039c-0.018,-0.013 -0.036,-0.025 -0.055,-0.036l-2.018,-1.924h2.555c0.276,0 0.5,-0.224 0.5,-0.5c0,-0.276 -0.224,-0.5 -0.5,-0.5h-4c-0.276,0 -0.5,0.224 -0.5,0.5v4c0,0.276 0.224,0.5 0.5,0.5c0.276,0 0.5,-0.224 0.5,-0.5v-3.02l2.369,2.259c0.044,0.042 0.093,0.074 0.148,0.096c1.038,0.763 2.247,1.165 3.504,1.165c3.297,0 5.979,-2.691 5.979,-6c0,-3.309 -2.682,-6 -5.979,-6Z" fill="#4B286D"></path></svg>