<?xml version="1.0" encoding="UTF-8"?><svg version="1.1" viewBox="0 0 30 30" xmlns="http://www.w3.org/2000/svg" xmlns:xlink="http://www.w3.org/1999/xlink"><!--Generated by IJSVG (https://github.com/iconjar/IJSVG)--><g stroke-linecap="round" stroke-width="1" stroke="#4B286D" fill="none" stroke-linejoin="round"><path d="M25.253,4.74695c5.6626,5.6626 5.6626,14.8435 0,20.5061c-5.6626,5.6626 -14.8435,5.6626 -20.5061,3.55271e-15c-5.6626,-5.6626 -5.6626,-14.8435 -1.77636e-15,-20.5061c5.6626,-5.6626 14.8435,-5.6626 20.5061,-1.77636e-15"></path><path d="M13.1,13.1l1.9,-1.9v11.3"></path><path d="M13.1,22.5h3.8"></path></g><path fill="#4B286D" d="M15.6364,6.7636c0.351472,0.351472 0.351472,0.92132 0,1.27279c-0.351472,0.351472 -0.92132,0.351472 -1.27279,0c-0.351472,-0.351472 -0.351472,-0.92132 0,-1.27279c0.351472,-0.351472 0.92132,-0.351472 1.27279,0"></path></svg>