<?xml version="1.0" encoding="UTF-8"?><svg version="1.1" viewBox="0 0 30 30" xmlns="http://www.w3.org/2000/svg" xmlns:xlink="http://www.w3.org/1999/xlink"><!--Generated by IJSVG (https://github.com/iconjar/IJSVG)--><path d="M29.501,21h-1.503v-13.5c0,-1.378 -1.121,-2.5 -2.5,-2.5h-21c-1.379,0 -2.5,1.122 -2.5,2.5v13.5h-1.499c-0.276,0 -0.5,0.224 -0.5,0.5v1c0,1.378 1.355,2.5 3.021,2.5h23.957c1.666,0 3.021,-1.122 3.024,-2.5v-1c0,-0.276 -0.224,-0.5 -0.5,-0.5Zm-26.503,-13.5c-8.88178e-16,-0.827 0.673,-1.5 1.5,-1.5h21c0.827,0 1.5,0.673 1.5,1.5v13.5h-7.497c-0.133,0 -0.26,0.052 -0.354,0.146l-0.854,0.854h-6.586l-0.854,-0.854c-0.094,-0.093 -0.221,-0.146 -0.354,-0.146h-7.501v-13.5Zm25.999,15c0,0.827 -0.907,1.5 -2.021,1.5h-23.957c-1.114,0 -2.021,-0.673 -2.021,-1.5v-0.5h9.293l0.851,0.854c0.094,0.093 0.221,0.146 0.354,0.146h7c0.133,0 0.26,-0.052 0.354,-0.146l0.854,-0.854h9.293v0.5Z" fill="#4B286D"></path></svg>