<?xml version="1.0" encoding="UTF-8"?><svg version="1.1" viewBox="0 0 30 30" xmlns="http://www.w3.org/2000/svg" xmlns:xlink="http://www.w3.org/1999/xlink"><!--Generated by IJSVG (https://github.com/iconjar/IJSVG)--><g fill="#4B286D"><path d="M15,18c-0.079,0 -0.157,-0.019 -0.229,-0.056l-14.5,-7.5c-0.167,-0.086 -0.271,-0.257 -0.271,-0.444c0,-0.187 0.104,-0.358 0.271,-0.444l14.5,-7.5c0.145,-0.074 0.314,-0.074 0.459,0l14.5,7.5c0.166,0.086 0.27,0.257 0.27,0.444c0,0.187 -0.104,0.358 -0.271,0.444l-14.5,7.5c-0.072,0.037 -0.15,0.056 -0.229,0.056Zm-13.412,-8l13.412,6.938l13.412,-6.938l-13.412,-6.937l-13.412,6.937Z"></path><path d="M15,23c-0.079,0 -0.159,-0.019 -0.231,-0.057l-14.5,-7.565c-0.165,-0.086 -0.269,-0.257 -0.269,-0.443c0,-0.186 0.104,-0.357 0.269,-0.443l2.107,-1.1c0.245,-0.127 0.547,-0.033 0.675,0.212c0.128,0.245 0.033,0.547 -0.212,0.675l-1.258,0.656l13.419,7.001l13.419,-7.001l-1.258,-0.656c-0.245,-0.128 -0.34,-0.43 -0.212,-0.675c0.128,-0.244 0.431,-0.338 0.675,-0.212l2.107,1.1c0.165,0.085 0.269,0.256 0.269,0.443c0,0.187 -0.104,0.357 -0.269,0.443l-14.5,7.565c-0.072,0.038 -0.152,0.057 -0.231,0.057Z"></path><path d="M15,28c-0.079,0 -0.159,-0.019 -0.231,-0.057l-14.5,-7.565c-0.165,-0.086 -0.269,-0.257 -0.269,-0.443c0,-0.186 0.104,-0.357 0.269,-0.443l2.107,-1.1c0.245,-0.125 0.547,-0.033 0.675,0.212c0.128,0.245 0.033,0.547 -0.212,0.675l-1.258,0.656l13.419,7.001l13.419,-7.001l-1.258,-0.656c-0.245,-0.128 -0.34,-0.43 -0.212,-0.675c0.128,-0.245 0.431,-0.336 0.675,-0.212l2.107,1.1c0.165,0.085 0.269,0.256 0.269,0.443c0,0.187 -0.104,0.357 -0.269,0.443l-14.5,7.565c-0.072,0.038 -0.152,0.057 -0.231,0.057Z"></path></g></svg>