<?xml version="1.0" encoding="UTF-8"?><svg version="1.1" viewBox="0 0 30 30" xmlns="http://www.w3.org/2000/svg" xmlns:xlink="http://www.w3.org/1999/xlink"><!--Generated by IJSVG (https://github.com/iconjar/IJSVG)--><g stroke-linecap="round" stroke-width="1" stroke="#4B286D" fill="none" stroke-linejoin="round"><path d="M24.5,29.5h-19h-8.74228e-08c-1.10457,-4.82823e-08 -2,-0.895431 -2,-2c0,0 0,0 0,0v-14l2.4869e-14,3.01992e-07c-1.66785e-07,-1.10457 0.89543,-2 2,-2h19l-8.74228e-08,1.77636e-15c1.10457,-4.82823e-08 2,0.89543 2,2v14v0c0,1.10457 -0.895431,2 -2,2Z"></path><path d="M16.4142,17.0858c0.781049,0.781049 0.781049,2.04738 0,2.82843c-0.781049,0.781049 -2.04738,0.781049 -2.82843,0c-0.781049,-0.781049 -0.781049,-2.04738 0,-2.82843c0.781049,-0.781049 2.04738,-0.781049 2.82843,0"></path><path d="M15,20.5v4m-7.5,-13v-3.5l8.61533e-14,1.13247e-06c-6.25445e-07,-4.14214 3.35786,-7.5 7.5,-7.5c4.14214,-6.25445e-07 7.5,3.35786 7.5,7.5c0,0 0,6.21725e-15 0,6.21725e-15v3.5"></path></g></svg>