<?xml version="1.0" encoding="UTF-8"?><svg version="1.1" viewBox="0 0 30 30" xmlns="http://www.w3.org/2000/svg" xmlns:xlink="http://www.w3.org/1999/xlink"><!--Generated by IJSVG (https://github.com/iconjar/IJSVG)--><g fill="#4B286D"><path d="M23.5,30h-17c-1.38,0 -2.5,-1.12 -2.5,-2.5v-12c0,-1.38 1.12,-2.5 2.5,-2.5h17c1.38,0 2.5,1.12 2.5,2.5v12c0,1.38 -1.12,2.5 -2.5,2.5Zm-17,-16c-0.83,0 -1.5,0.67 -1.5,1.5v12c0,0.83 0.67,1.5 1.5,1.5h17c0.83,0 1.5,-0.67 1.5,-1.5v-12c0,-0.83 -0.67,-1.5 -1.5,-1.5h-17Z"></path><path d="M7.5,14c-0.28,0 -0.5,-0.22 -0.5,-0.5v-5.5c0,-4.41 3.59,-8 8,-8c4.41,0 8,3.59 8,8c0,0.28 -0.22,0.5 -0.5,0.5c-0.28,0 -0.5,-0.22 -0.5,-0.5c0,-3.86 -3.14,-7 -7,-7c-3.86,0 -7,3.14 -7,7v5.5c0,0.28 -0.22,0.5 -0.5,0.5Z"></path><path style="display:none;" d="M15,27c-0.28,0 -0.5,-0.22 -0.5,-0.5v-4c0,-0.28 0.22,-0.5 0.5,-0.5c0.28,0 0.5,0.22 0.5,0.5v4c0,0.28 -0.22,0.5 -0.5,0.5Z"></path><path style="display:none;" d="M15,23c-1.65,0 -3,-1.35 -3,-3c0,-1.65 1.35,-3 3,-3c1.65,0 3,1.35 3,3c0,1.65 -1.35,3 -3,3Zm0,-5c-1.1,0 -2,0.9 -2,2c0,1.1 0.9,2 2,2c1.1,0 2,-0.9 2,-2c0,-1.1 -0.9,-2 -2,-2Z"></path></g><path fill="none" stroke="#4B286D" stroke-linecap="round" stroke-linejoin="round" stroke-width="1" d="M16.2657,18.4043c0.699038,0.699038 0.699038,1.8324 0,2.53144c-0.699038,0.699038 -1.8324,0.699038 -2.53144,0c-0.699038,-0.699038 -0.699038,-1.8324 0,-2.53144c0.699038,-0.699038 1.8324,-0.699038 2.53144,0"></path><path d="M15,21.46v3.57" stroke-linecap="round" stroke-width="1" stroke="#4B286D" fill="none" stroke-linejoin="round"></path></svg>