<?xml version="1.0" encoding="UTF-8"?><svg version="1.1" viewBox="0 0 30 30" xmlns="http://www.w3.org/2000/svg" xmlns:xlink="http://www.w3.org/1999/xlink"><!--Generated by IJSVG (https://github.com/iconjar/IJSVG)--><g stroke-linecap="round" stroke-width="1" stroke="#4B286D" fill="none" stroke-linejoin="round"><path d="M27.5,29.5h-25c-1.1,0 -2,-0.9 -2,-2v-25c0,-1.1 0.9,-2 2,-2h25c1.1,0 2,0.9 2,2v25c0,1.1 -0.9,2 -2,2Z"></path><path d="M17.1213,4.87868c1.17157,1.17157 1.17157,3.07107 0,4.24264c-1.17157,1.17157 -3.07107,1.17157 -4.24264,0c-1.17157,-1.17157 -1.17157,-3.07107 0,-4.24264c1.17157,-1.17157 3.07107,-1.17157 4.24264,-8.88178e-16"></path><path d="M8.5,17v-2c0,-1.7 1.3,-3 3,-3h7c1.7,0 3,1.3 3,3v2"></path><path d="M6,19h18c1.1,0 2,0.9 2,2v3c0,1.1 -0.9,2 -2,2h-18c-1.1,0 -2,-0.9 -2,-2v-3c0,-1.1 0.9,-2 2,-2Z"></path><path d="M6,21l3,3"></path><path d="M6,24l3,-3"></path><path d="M11,21l3,3"></path><path d="M11,24l3,-3"></path><path d="M16,21l3,3"></path><path d="M16,24l3,-3"></path><path d="M21,21l3,3"></path><path d="M21,24l3,-3"></path></g></svg>