<?xml version="1.0" encoding="UTF-8"?><svg version="1.1" viewBox="0 0 30 30" xmlns="http://www.w3.org/2000/svg" xmlns:xlink="http://www.w3.org/1999/xlink"><!--Generated by IJSVG (https://github.com/iconjar/IJSVG)--><g stroke-linecap="round" stroke-width="1" stroke="#4B286D" fill="none" stroke-linejoin="round"><path d="M9.5,18.5h-4.5l-1.96701e-07,-3.55271e-15c-2.48528,-1.08635e-07 -4.5,-2.01472 -4.5,-4.5c0,0 0,-1.77636e-15 0,-1.77636e-15v-2l4.61853e-14,-4.8278e-07c3.75267e-07,-2.48528 2.01472,-4.5 4.5,-4.5h4.5m-4.8278e-07,-2.4869e-14c15,0 18.5,-6 18.5,-6h-6.55671e-08c0.828427,-3.62117e-08 1.5,0.671573 1.5,1.5v20v0c0,0.828427 -0.671573,1.5 -1.5,1.5c0,0 -3.5,-6 -18.5,-6"></path><path d="M13.274,27.5h-4.13l3.60454e-08,1.16778e-11c-0.621824,-0.000201431 -1.14895,-0.457442 -1.237,-1.073l-1.133,-7.927h3.857l0.643,4.5l2.508,3.512l-3.59969e-09,-5.04529e-09c0.20048,0.280991 0.135213,0.671299 -0.145778,0.871779c-0.105731,0.0754366 -0.232338,0.116059 -0.362222,0.116221Zm-3.774,-20v11"></path></g></svg>