<?xml version="1.0" encoding="UTF-8"?><svg version="1.1" viewBox="0 0 30 30" xmlns="http://www.w3.org/2000/svg" xmlns:xlink="http://www.w3.org/1999/xlink"><!--Generated by IJSVG (https://github.com/iconjar/IJSVG)--><g stroke-linecap="round" stroke-width="1" stroke="#4B286D" fill="none" stroke-linejoin="round"><path d="M27.5,25.5h-25h-8.74228e-08c-1.10457,-4.82823e-08 -2,-0.895431 -2,-2c0,0 0,0 0,0v-17l2.13163e-14,3.01992e-07c-1.66785e-07,-1.10457 0.89543,-2 2,-2h25h-8.74228e-08c1.10457,-4.82823e-08 2,0.89543 2,2v17v0c0,1.10457 -0.895431,2 -2,2Z"></path><path d="M0.5,8.5l13.189,7.65l-6.33309e-08,-3.64345e-08c0.811635,0.466936 1.81037,0.466936 2.622,7.28689e-08l13.189,-7.65"></path></g></svg>