<?xml version="1.0" encoding="UTF-8"?><svg version="1.1" viewBox="0 0 30 30" xmlns="http://www.w3.org/2000/svg" xmlns:xlink="http://www.w3.org/1999/xlink"><!--Generated by IJSVG (https://github.com/iconjar/IJSVG)--><path d="M15,0c-8.271,0 -15,6.729 -15,15c0,8.271 6.729,15 15,15c8.271,0 15,-6.729 15,-15c0,-8.271 -6.729,-15 -15,-15Zm0,29c-3.103,0 -5.964,-1.027 -8.288,-2.742l3.565,-1.406c1.933,-0.79 2.578,-3.653 2.578,-4.352c0,-0.151 -0.068,-0.294 -0.186,-0.389c-0.752,-0.609 -1.514,-1.626 -1.514,-2.389c0,-0.826 -0.351,-1.273 -0.673,-1.476c-0.164,-0.437 -0.434,-1.254 -0.458,-1.783c0.021,-0.052 0.053,-0.117 0.064,-0.13c0.276,0 0.5,-0.224 0.5,-0.5v-3.333c0,-1.835 1.792,-4.5 4.6,-4.5c2.695,0 3.382,1.19 3.459,1.641c-0.022,0.073 -0.033,0.145 -0.026,0.207c0.03,0.282 0.246,0.416 0.375,0.497c0.257,0.16 0.792,0.493 0.792,2.156v3.333c0,0.277 0.201,0.494 0.477,0.494c0.024,0.016 0.063,0.077 0.087,0.136c-0.024,0.528 -0.294,1.345 -0.459,1.783c-0.321,0.203 -0.672,0.65 -0.672,1.476c0,0.763 -0.762,1.78 -1.514,2.389c-0.118,0.096 -0.186,0.238 -0.186,0.389c0,0.699 0.644,3.562 2.567,4.347l3.217,1.396c-2.326,1.723 -5.194,2.756 -8.305,2.756Zm9.188,-3.463l-3.712,-1.611c-1.266,-0.517 -1.828,-2.472 -1.936,-3.211c0.867,-0.771 1.68,-1.942 1.68,-2.992c0.001,-0.547 0.212,-0.634 0.186,-0.625c0.156,-0.038 0.283,-0.149 0.344,-0.297c0.062,-0.152 0.604,-1.507 0.604,-2.412c0,-0.042 -0.006,-0.083 -0.016,-0.124c-0.061,-0.241 -0.235,-0.597 -0.551,-0.792v-2.973c0,-1.786 -0.557,-2.504 -1.142,-2.922c-0.095,-0.836 -1.008,-2.578 -4.458,-2.578c-3.47,0 -5.6,3.204 -5.6,5.5v2.973c-0.316,0.195 -0.49,0.551 -0.551,0.792c-0.011,0.041 -0.016,0.082 -0.016,0.124c0,0.906 0.542,2.26 0.604,2.412c0.061,0.149 0.158,0.25 0.313,0.288c0.009,0.003 0.217,0.098 0.217,0.634c0,1.05 0.814,2.221 1.68,2.992c-0.108,0.739 -0.669,2.694 -1.93,3.209l-4.087,1.611c-0.002,0.001 -0.003,0.002 -0.005,0.003c-2.942,-2.568 -4.812,-6.335 -4.812,-10.538c0,-7.72 6.28,-14 14,-14c7.72,0 14,6.28 14,14c0,4.203 -1.87,7.969 -4.812,10.537Z" fill="#4B286D"></path></svg>