<?xml version="1.0" encoding="UTF-8"?><svg version="1.1" viewBox="0 0 30 30" xmlns="http://www.w3.org/2000/svg" xmlns:xlink="http://www.w3.org/1999/xlink"><!--Generated by IJSVG (https://github.com/iconjar/IJSVG)--><defs><path d="M15,17c-3.6,0 -6.5,-2.9 -6.5,-6.5c0,-3.6 2.9,-6.5 6.5,-6.5c3.6,0 6.5,2.9 6.5,6.5c0,3.6 -2.9,6.5 -6.5,6.5Zm0,-12c-3,0 -5.5,2.5 -5.5,5.5c0,3 2.5,5.5 5.5,5.5c3,0 5.5,-2.5 5.5,-5.5c0,-3 -2.5,-5.5 -5.5,-5.5Z" id="a"></path></defs><g fill="#4B286D"><use xlink:href="#a"></use><use xlink:href="#a"></use><path d="M15,30c-0.1,0 -0.2,0 -0.3,-0.1c-0.4,-0.4 -10.2,-9.2 -10.2,-19.4c0,-5.8 4.7,-10.5 10.5,-10.5c5.8,0 10.5,4.7 10.5,10.5c0,10.2 -9.8,19 -10.2,19.4c-0.1,0.1 -0.2,0.1 -0.3,0.1Zm0,-29c-5.2,0 -9.5,4.3 -9.5,9.5c0,8.7 7.8,16.7 9.5,18.3c1.7,-1.6 9.5,-9.6 9.5,-18.3c0,-5.2 -4.3,-9.5 -9.5,-9.5Z"></path></g></svg>