<?xml version="1.0" encoding="UTF-8"?><svg version="1.1" viewBox="0 0 30 30" xmlns="http://www.w3.org/2000/svg" xmlns:xlink="http://www.w3.org/1999/xlink"><!--Generated by IJSVG (https://github.com/iconjar/IJSVG)--><g fill="#4B286D"><path d="M11,30c0,0 0,0 0,0c-0.3,0 -0.5,-0.2 -0.5,-0.5c0,-1.4 0.6,-2.6 1.5,-3.2c0.2,-0.1 0.5,-0.1 0.7,0.2c0.1,0.2 0.1,0.5 -0.2,0.7c-0.6,0.3 -1,1.3 -1,2.3c0,0.3 -0.2,0.5 -0.5,0.5Z"></path><path d="M15,10c-7.6,0 -14.1,-2 -14.2,-2c-0.2,-0.1 -0.3,-0.3 -0.3,-0.6c0,-0.2 0.3,-0.4 0.5,-0.4c1.1,0 2.3,-0.8 3.4,-1.5c1.2,-0.7 2.4,-1.5 3.6,-1.5c2.3,0 7,2.5 7.2,2.6c0.2,0.1 0.3,0.4 0.2,0.7c-0.1,0.3 -0.4,0.3 -0.6,0.1c0,0 -4.7,-2.4 -6.8,-2.4c-0.9,0 -1.9,0.7 -3,1.4c-0.7,0.4 -1.3,0.8 -2,1.1c2.4,0.6 6.9,1.5 12,1.5c0.3,0 0.5,0.2 0.5,0.5c0,0.3 -0.2,0.5 -0.5,0.5Z"></path><path d="M15,10c-0.3,0 -0.5,-0.2 -0.5,-0.5c0,-0.3 0.2,-0.5 0.5,-0.5c5,0 9.5,-0.9 11.9,-1.5c-0.8,-0.3 -1.6,-0.7 -2.4,-1.2c-1.2,-0.6 -2.5,-1.3 -3.5,-1.3c-2,0 -5.7,2.4 -5.7,2.4c-0.2,0.2 -0.5,0.1 -0.7,-0.1c-0.2,-0.2 -0.1,-0.5 0.1,-0.7c0.2,-0.1 3.9,-2.6 6.3,-2.6c1.2,0 2.6,0.7 4,1.5c1.4,0.7 2.8,1.5 4,1.5c0.2,0 0.5,0.2 0.5,0.4c0,0.2 -0.1,0.5 -0.3,0.6c-0.1,0 -6.6,2 -14.2,2Z"></path><path d="M15,30c-0.3,0 -0.5,-0.2 -0.5,-0.5v-20c0,-0.3 0.2,-0.5 0.5,-0.5c0.3,0 0.5,0.2 0.5,0.5v20c0,0.3 -0.2,0.5 -0.5,0.5Z"></path><path d="M17,25c-0.2,0 -0.3,-0.1 -0.4,-0.2c-0.2,-0.2 -0.1,-0.5 0.1,-0.7c1.6,-1.1 2.4,-2.1 2.3,-2.9c-0.1,-1.2 -2.4,-2 -3.6,-2.5c-0.2,-0.1 -0.4,-0.2 -0.6,-0.2c-0.1,0 -0.2,0 -0.3,0c-1.8,-0.6 -5.7,-2.5 -6.2,-4.7c-0.1,-0.5 -0.1,-1.4 0.8,-2.2c0.9,-0.9 2.2,-0.8 2.8,-0.1c0.4,0.4 0.5,1.2 -0.1,1.8c-0.3,0.3 -0.4,0.6 -0.4,1c0.2,1.2 2.3,2.6 3.7,3.2c0.2,0.1 0.4,0.2 0.6,0.3c1.5,0.6 4,1.5 4.2,3.3c0.1,1.2 -0.8,2.4 -2.7,3.8c-7.10543e-15,0.1 -0.1,0.1 -0.2,0.1Zm-6.3,-13c-0.3,0 -0.6,0.1 -0.8,0.3c-0.5,0.5 -0.5,0.9 -0.5,1.2c0.1,0.6 0.7,1.3 1.5,1.9c-0.2,-0.3 -0.3,-0.6 -0.4,-0.9c-0.1,-0.5 0,-1.2 0.7,-1.9c0.3,-0.3 0.2,-0.4 0.1,-0.4c-0.1,-0.1 -0.4,-0.2 -0.6,-0.2Z"></path><path d="M17,17c-0.2,0 -0.3,-0.1 -0.4,-0.2c-0.1,-0.2 -0.1,-0.4 0.1,-0.6l0.3,-0.3c0.6,-0.6 1.2,-1.2 1.2,-1.7c0,-0.3 -0.2,-0.5 -0.5,-0.8c-0.4,-0.4 -0.5,-0.7 -0.5,-1c0,-0.3 0.1,-0.6 0.4,-0.9c0.6,-0.6 1.9,-0.7 2.8,0.2c0.9,0.9 0.9,1.7 0.8,2.3c-0.3,1.2 -1.8,2.4 -4,3.1c-0.1,-0.1 -0.2,-0.1 -0.2,-0.1Zm1.8,-5c-0.2,0 -0.5,0.1 -0.6,0.2c-0.1,0.1 -0.1,0.1 -0.1,0.2c0,0.1 0.1,0.2 0.2,0.3c0.5,0.5 0.8,1 0.8,1.6c0,0.3 -0.1,0.6 -0.2,0.9c0.7,-0.5 1.2,-1 1.3,-1.4c0.1,-0.4 -0.1,-0.9 -0.5,-1.3c-0.3,-0.4 -0.6,-0.5 -0.9,-0.5Z"></path><path d="M19,30c0,0 0,0 0,0c-0.3,0 -0.5,-0.3 -0.5,-0.5c0,-0.1 0.1,-2.4 -3.6,-3.5c-3.7,-1.1 -5.5,-2.3 -5.7,-3.7c-0.1,-1.1 0.7,-2.2 2.6,-3.2c0.2,-0.1 0.5,0 0.7,0.2c0.1,0.2 0,0.5 -0.2,0.7c-1.4,0.8 -2.1,1.6 -2.1,2.2c0.1,0.5 0.8,1.6 5,2.9c4.6,1.3 4.4,4.4 4.4,4.5c-0.1,0.2 -0.3,0.4 -0.6,0.4Z"></path><path d="M15,7c-1.9,0 -3.5,-1.6 -3.5,-3.5c0,-1.9 1.6,-3.5 3.5,-3.5c1.9,0 3.5,1.6 3.5,3.5c0,1.9 -1.6,3.5 -3.5,3.5Zm0,-6c-1.4,0 -2.5,1.1 -2.5,2.5c0,1.4 1.1,2.5 2.5,2.5c1.4,0 2.5,-1.1 2.5,-2.5c0,-1.4 -1.1,-2.5 -2.5,-2.5Z"></path></g></svg>