<?xml version="1.0" encoding="UTF-8"?><svg version="1.1" viewBox="0 0 30 30" xmlns="http://www.w3.org/2000/svg" xmlns:xlink="http://www.w3.org/1999/xlink"><!--Generated by IJSVG (https://github.com/iconjar/IJSVG)--><g fill="#4B286D"><path d="M15,28c-7.6,0 -14.5,-7.4 -14.5,-15.5c0,-0.3 0.2,-0.5 0.5,-0.5h28c0.3,0 0.5,0.2 0.5,0.5c0,8.1 -6.9,15.5 -14.5,15.5Zm-13.5,-15c0.3,7.4 6.6,14 13.5,14c6.9,0 13.2,-6.6 13.5,-14h-27Z"></path><path d="M21,11h-6c-0.2,0 -0.4,-0.1 -0.5,-0.3c-0.1,-0.2 0,-0.4 0.1,-0.5l6.9,-7.4c0.1,-1.6 1.4,-2.8 3,-2.8c1.7,0 3,1.3 3,3c0,1.6 -1.2,2.9 -2.7,3l-3.4,4.8c-0.1,0.1 -0.2,0.2 -0.4,0.2Zm-4.8,-1h4.6l3.4,-4.8c3.55271e-15,-0.1 0.1,-0.2 0.3,-0.2c1.1,0 2,-0.9 2,-2c0,-1.1 -0.9,-2 -2,-2c-1.1,0 -2,0.9 -2,2c0,0.1 0,0.2 -0.1,0.3l-6.2,6.7Z"></path><path d="M23,30h-16c-0.8,0 -1.5,-0.7 -1.5,-1.5c0,-0.8 0.7,-1.5 1.5,-1.5h16c0.8,0 1.5,0.7 1.5,1.5c0,0.8 -0.7,1.5 -1.5,1.5Zm-16,-2c-0.3,0 -0.5,0.2 -0.5,0.5c0,0.3 0.2,0.5 0.5,0.5h16c0.3,0 0.5,-0.2 0.5,-0.5c0,-0.3 -0.2,-0.5 -0.5,-0.5h-16Z"></path></g></svg>