<?xml version="1.0" encoding="UTF-8"?><svg version="1.1" viewBox="0 0 30 30" xmlns="http://www.w3.org/2000/svg" xmlns:xlink="http://www.w3.org/1999/xlink"><!--Generated by IJSVG (https://github.com/iconjar/IJSVG)--><g stroke-linecap="round" stroke-width="1" stroke="#4B286D" fill="none" stroke-linejoin="round"><path d="M27.5,28.5h-25c-1.1,0 -2,-0.9 -2,-2v-19c0,-1.1 0.9,-2 2,-2h25c1.1,0 2,0.9 2,2v19c0,1.1 -0.9,2 -2,2Zm-18,-23v-2c0,-1.1 0.9,-2 2,-2h7c1.1,0 2,0.9 2,2v2m-5.5,8v7m-3.5,-3.5h7"></path><path d="M20.3033,11.6967c2.92893,2.92893 2.92893,7.67767 0,10.6066c-2.92893,2.92893 -7.67767,2.92893 -10.6066,0c-2.92893,-2.92893 -2.92893,-7.67767 0,-10.6066c2.92893,-2.92893 7.67767,-2.92893 10.6066,0"></path></g></svg>