<?xml version="1.0" encoding="UTF-8"?><svg version="1.1" viewBox="0 0 30 30" xmlns="http://www.w3.org/2000/svg" xmlns:xlink="http://www.w3.org/1999/xlink"><!--Generated by IJSVG (https://github.com/iconjar/IJSVG)--><g fill="#4B286D"><path d="M19.5,19h-1c-0.276,0 -0.5,-0.224 -0.5,-0.5c0,-0.276 0.224,-0.5 0.5,-0.5h1c0.276,0 0.5,0.224 0.5,0.5c0,0.276 -0.224,0.5 -0.5,0.5Z"></path><path d="M21.5,24h-13c-0.276,0 -0.5,-0.224 -0.5,-0.5c0,-0.276 0.224,-0.5 0.5,-0.5h13c0.276,0 0.5,0.224 0.5,0.5c0,0.276 -0.224,0.5 -0.5,0.5Z"></path><path d="M23.5,16h-8c-0.276,0 -0.5,-0.224 -0.5,-0.5v-5c0,-0.276 0.224,-0.5 0.5,-0.5c0.276,0 0.5,0.224 0.5,0.5v4.5h7.5c0.276,0 0.5,0.224 0.5,0.5c0,0.276 -0.224,0.5 -0.5,0.5Z"></path><path d="M11.5,12h-7c-0.276,0 -0.5,-0.224 -0.5,-0.5c0,-0.276 0.224,-0.5 0.5,-0.5h7c0.276,0 0.5,0.224 0.5,0.5c0,0.276 -0.224,0.5 -0.5,0.5Z"></path><path d="M14.5,9h-10c-0.276,0 -0.5,-0.224 -0.5,-0.5c0,-0.276 0.224,-0.5 0.5,-0.5h10c0.276,0 0.5,0.224 0.5,0.5c0,0.276 -0.224,0.5 -0.5,0.5Z"></path><path d="M11.5,15h-7c-0.276,0 -0.5,-0.224 -0.5,-0.5c0,-0.276 0.224,-0.5 0.5,-0.5h7c0.276,0 0.5,0.224 0.5,0.5c0,0.276 -0.224,0.5 -0.5,0.5Z"></path><path d="M26.979,24c-0.276,0 -0.5,-0.224 -0.5,-0.5c0,-0.276 0.224,-0.5 0.5,-0.5c1.114,0 2.021,-0.884 2.021,-1.971v-3.829c0,-0.338 -0.235,-0.631 -0.571,-0.713c-1.113,-0.271 -2.131,-0.836 -2.942,-1.631l-5.685,-5.57c-0.377,-0.369 -0.899,-0.581 -1.434,-0.581c-0.158,0 -0.308,-0.075 -0.402,-0.203l-2.36,-3.195c-0.143,-0.192 -0.374,-0.307 -0.619,-0.307h-13.226c-0.42,0 -0.761,0.33 -0.761,0.735l-0.022,15.295c0,1.086 0.907,1.97 2.022,1.97c0.276,0 0.5,0.224 0.5,0.5c0,0.276 -0.224,0.5 -0.5,0.5c-1.667,0 -3.022,-1.333 -3.022,-2.971l0.022,-15.294c0,-0.957 0.79,-1.735 1.761,-1.735h13.226c0.561,0 1.093,0.267 1.423,0.714l2.218,3.003c0.708,0.059 1.365,0.357 1.873,0.856l5.685,5.569c0.685,0.669 1.542,1.145 2.48,1.374c0.785,0.192 1.334,0.884 1.334,1.684v3.829c0,1.638 -1.355,2.971 -3.021,2.971Z"></path><path d="M24,26.044c-1.666,0 -3.021,-1.355 -3.021,-3.022c0,-1.667 1.355,-3.022 3.021,-3.022c1.666,0 3.021,1.355 3.021,3.021c0,1.667 -1.355,3.023 -3.021,3.023Zm0,-5.044c-1.114,0 -2.021,0.907 -2.021,2.021c0,1.115 0.907,2.022 2.021,2.022c1.114,0 2.021,-0.907 2.021,-2.022c0,-1.114 -0.907,-2.021 -2.021,-2.021Z"></path><path d="M6,26.021c-1.654,0 -3,-1.346 -3,-3c0,-1.654 1.346,-3 3,-3c1.654,0 3,1.346 3,3c0,1.654 -1.346,3 -3,3Zm0,-5c-1.103,0 -2,0.897 -2,2c0,1.103 0.897,2 2,2c1.103,0 2,-0.897 2,-2c0,-1.103 -0.897,-2 -2,-2Z"></path></g></svg>