<?xml version="1.0" encoding="UTF-8"?><svg version="1.1" viewBox="0 0 30 30" xmlns="http://www.w3.org/2000/svg" xmlns:xlink="http://www.w3.org/1999/xlink"><!--Generated by IJSVG (https://github.com/iconjar/IJSVG)--><g stroke-linecap="round" stroke-width="1" stroke="#4B286D" fill="none" stroke-linejoin="round"><path d="M16.7678,1.23223c0.976311,0.976311 0.976311,2.55922 0,3.53553c-0.976311,0.976311 -2.55922,0.976311 -3.53553,0c-0.976311,-0.976311 -0.976311,-2.55922 0,-3.53553c0.976311,-0.976311 2.55922,-0.976311 3.53553,-4.44089e-16"></path><path d="M16.7678,25.2322c0.976311,0.976311 0.976311,2.55922 0,3.53553c-0.976311,0.976311 -2.55922,0.976311 -3.53553,0c-0.976311,-0.976311 -0.976311,-2.55922 0,-3.53553c0.976311,-0.976311 2.55922,-0.976311 3.53553,0"></path><path d="M5.76777,7.23223c0.976311,0.976311 0.976311,2.55922 0,3.53553c-0.976311,0.976311 -2.55922,0.976311 -3.53553,0c-0.976311,-0.976311 -0.976311,-2.55922 -4.44089e-16,-3.53553c0.976311,-0.976311 2.55922,-0.976311 3.53553,0"></path><path d="M27.7678,19.2322c0.976311,0.976311 0.976311,2.55922 0,3.53553c-0.976311,0.976311 -2.55922,0.976311 -3.53553,0c-0.976311,-0.976311 -0.976311,-2.55922 0,-3.53553c0.976311,-0.976311 2.55922,-0.976311 3.53553,0"></path><path d="M27.7678,7.23223c0.976311,0.976311 0.976311,2.55922 0,3.53553c-0.976311,0.976311 -2.55922,0.976311 -3.53553,0c-0.976311,-0.976311 -0.976311,-2.55922 0,-3.53553c0.976311,-0.976311 2.55922,-0.976311 3.53553,0"></path><path d="M5.76777,19.2322c0.976311,0.976311 0.976311,2.55922 0,3.53553c-0.976311,0.976311 -2.55922,0.976311 -3.53553,0c-0.976311,-0.976311 -0.976311,-2.55922 -4.44089e-16,-3.53553c0.976311,-0.976311 2.55922,-0.976311 3.53553,0"></path><path d="M16.7678,10.2322c0.976311,0.976311 0.976311,2.55922 0,3.53553c-0.976311,0.976311 -2.55922,0.976311 -3.53553,0c-0.976311,-0.976311 -0.976311,-2.55922 0,-3.53553c0.976311,-0.976311 2.55922,-0.976311 3.53553,0"></path><path d="M10.5,20.5v-1.5l2.84217e-14,3.77489e-07c-2.08482e-07,-1.38071 1.11929,-2.5 2.5,-2.5h4l-1.09278e-07,3.55271e-15c1.38071,-6.03528e-08 2.5,1.11929 2.5,2.5v1.5m-15.5,-2v-7m19.8,-3.7l-6.6,-3.6m6.61,18h-0.01l-6.6,3.6m-4.4,0l-6.6,-3.6m19.8,-3.7v-7m-13.2,-7.3l-6.6,3.6"></path></g></svg>