<?xml version="1.0" encoding="UTF-8"?><svg version="1.1" viewBox="0 0 30 30" xmlns="http://www.w3.org/2000/svg" xmlns:xlink="http://www.w3.org/1999/xlink"><!--Generated by IJSVG (https://github.com/iconjar/IJSVG)--><g fill="#4B286D"><path d="M27.5,27h-25c-1.379,0 -2.5,-1.121 -2.5,-2.5v-15c0,-1.379 1.121,-2.5 2.5,-2.5h0.5v-1.5c0,-1.379 1.121,-2.5 2.5,-2.5h22c1.379,0 2.5,1.121 2.5,2.5v19c0,1.379 -1.121,2.5 -2.5,2.5Zm-25,-19c-0.827,0 -1.5,0.673 -1.5,1.5v15c0,0.827 0.673,1.5 1.5,1.5h25c0.827,0 1.5,-0.673 1.5,-1.5v-19c0,-0.827 -0.673,-1.5 -1.5,-1.5h-22c-0.827,0 -1.5,0.673 -1.5,1.5v18c0,0.276 -0.224,0.5 -0.5,0.5c-0.276,0 -0.5,-0.224 -0.5,-0.5v-15.5h-0.5Z"></path><path d="M15.5,23h-9c-0.276,0 -0.5,-0.224 -0.5,-0.5v-7c0,-0.276 0.224,-0.5 0.5,-0.5h9c0.276,0 0.5,0.224 0.5,0.5v7c0,0.276 -0.224,0.5 -0.5,0.5Zm-8.5,-1h8v-6h-8v6Z"></path><path d="M26.5,16h-8c-0.276,0 -0.5,-0.224 -0.5,-0.5c0,-0.276 0.224,-0.5 0.5,-0.5h8c0.276,0 0.5,0.224 0.5,0.5c0,0.276 -0.224,0.5 -0.5,0.5Z"></path><path d="M26.5,19h-8c-0.276,0 -0.5,-0.224 -0.5,-0.5c0,-0.276 0.224,-0.5 0.5,-0.5h8c0.276,0 0.5,0.224 0.5,0.5c0,0.276 -0.224,0.5 -0.5,0.5Z"></path><path d="M26.5,23h-8c-0.276,0 -0.5,-0.224 -0.5,-0.5c0,-0.276 0.224,-0.5 0.5,-0.5h8c0.276,0 0.5,0.224 0.5,0.5c0,0.276 -0.224,0.5 -0.5,0.5Z"></path><path d="M26.5,12h-20c-0.276,0 -0.5,-0.224 -0.5,-0.5c0,-0.276 0.224,-0.5 0.5,-0.5h20c0.276,0 0.5,0.224 0.5,0.5c0,0.276 -0.224,0.5 -0.5,0.5Z"></path><path d="M26.5,8h-20c-0.276,0 -0.5,-0.224 -0.5,-0.5c0,-0.276 0.224,-0.5 0.5,-0.5h20c0.276,0 0.5,0.224 0.5,0.5c0,0.276 -0.224,0.5 -0.5,0.5Z"></path></g></svg>