<?xml version="1.0" encoding="UTF-8"?><svg version="1.1" viewBox="0 0 30 30" xmlns="http://www.w3.org/2000/svg" xmlns:xlink="http://www.w3.org/1999/xlink"><!--Generated by IJSVG (https://github.com/iconjar/IJSVG)--><g stroke-linecap="round" stroke-width="1" stroke="#4B286D" fill="none" stroke-linejoin="round"><path d="M8.5,0.5h13v3h-13Z"></path><path d="M8.5,5.5h3v3h-3Z"></path><path d="M13.5,5.5h3v3h-3Z"></path><path d="M18.5,5.5h3v3h-3Z"></path><path d="M8.5,10.5h3v3h-3Z"></path><path d="M13.5,10.5h3v3h-3Z"></path><path d="M18.5,10.5h3v3h-3Z"></path><path d="M8.5,15.5h3v3h-3Z"></path><path d="M13.5,15.5h3v3h-3Z"></path><path d="M18.5,15.5h3v3h-3Z"></path><path d="M8.5,20.5h3v3h-3Z"></path><path d="M13.5,20.5h3v3h-3Z"></path><path d="M18.5,20.5h3v3h-3Z"></path><path d="M6.5,3.5v26h5v-4h7v4h5v-26Z"></path><path d="M3.5,29.5h6.5"></path><path d="M19.87,29.5h6.63"></path></g></svg>