<?xml version="1.0" encoding="UTF-8"?><svg version="1.1" viewBox="0 0 30 30" xmlns="http://www.w3.org/2000/svg" xmlns:xlink="http://www.w3.org/1999/xlink"><!--Generated by IJSVG (https://github.com/iconjar/IJSVG)--><g stroke-linecap="round" stroke-width="1" stroke="#4B286D" fill="none" stroke-linejoin="round"><path d="M29.5,29.5h-19v-27l2.13163e-14,3.01992e-07c-1.66785e-07,-1.10457 0.89543,-2 2,-2h15l-8.74228e-08,1.77636e-15c1.10457,-4.82823e-08 2,0.89543 2,2v27Zm-19,0h-10v-18l2.28706e-14,3.01992e-07c-1.66785e-07,-1.10457 0.89543,-2 2,-2h8v20Zm0,-24h11m-11,4h9m-9,4h6m-6,3h4"></path><path d="M16.5,22.5h7v7h-7Zm-16,-8h5m-5,4h3"></path></g></svg>