<?xml version="1.0" encoding="UTF-8"?><svg version="1.1" viewBox="0 0 30 30" xmlns="http://www.w3.org/2000/svg" xmlns:xlink="http://www.w3.org/1999/xlink"><!--Generated by IJSVG (https://github.com/iconjar/IJSVG)--><g stroke-linecap="round" stroke-width="1" stroke="#4B286D" fill="none" stroke-linejoin="round"><path d="M23.5,29.5h-17h-8.74228e-08c-1.10457,-4.82823e-08 -2,-0.895431 -2,-2c0,0 0,0 0,0v-25l2.4869e-14,3.01992e-07c-1.66785e-07,-1.10457 0.89543,-2 2,-2h17h-8.74228e-08c1.10457,-4.82823e-08 2,0.89543 2,2v25v0c0,1.10457 -0.895431,2 -2,2Z"></path><path d="M20.3033,5.6967c2.92893,2.92893 2.92893,7.67767 0,10.6066c-2.92893,2.92893 -7.67767,2.92893 -10.6066,0c-2.92893,-2.92893 -2.92893,-7.67767 0,-10.6066c2.92893,-2.92893 7.67767,-2.92893 10.6066,-8.88178e-16"></path><path d="M22.06,8.5h-14.12m14.12,5h-14.12m7.06,-10c-1.986,1.89 -3.125,4.625 -3.125,7.5c0,2.875 1.139,5.61 3.125,7.5m0,-15c1.986,1.89 3.125,4.625 3.125,7.5c0,2.875 -1.139,5.61 -3.125,7.5m-5.5,3h11m-9,4h7"></path></g></svg>