<?xml version="1.0" encoding="UTF-8"?><svg version="1.1" viewBox="0 0 30 30" xmlns="http://www.w3.org/2000/svg" xmlns:xlink="http://www.w3.org/1999/xlink"><!--Generated by IJSVG (https://github.com/iconjar/IJSVG)--><path d="M18.44,20.478l-3.55,-0.869l-0.188,-0.734c2.441,-0.408 3.699,-1.126 3.756,-1.158c0.145,-0.085 0.239,-0.238 0.248,-0.406c0.01,-0.169 -0.067,-0.33 -0.203,-0.43c-0.016,-0.012 -1.66,-1.35 -1.66,-5.989c0,-3.967 -0.952,-5.978 -2.829,-5.978h-0.265c-0.67,-0.633 -1.177,-0.913 -2.531,-0.913c-1.763,0 -5.626,1.735 -5.626,6.891c0,4.64 -1.649,5.98 -1.66,5.989c-0.136,0.099 -0.212,0.26 -0.203,0.428c0.008,0.168 0.1,0.32 0.245,0.405c0.056,0.033 1.303,0.754 3.759,1.163l-0.187,0.731l-3.551,0.869c-2.352,0.576 -3.995,2.641 -3.995,5.023c0,0.276 0.224,0.5 0.5,0.5h21.435c0.276,0 0.5,-0.226 0.5,-0.501c0,-2.38 -1.642,-4.444 -3.995,-5.021Zm-17.41,4.522c0.207,-1.703 1.466,-3.126 3.203,-3.553l3.842,-0.94c0.178,-0.044 0.319,-0.183 0.365,-0.362l0.397,-1.558c0.035,-0.138 0.01,-0.285 -0.069,-0.403c-0.08,-0.118 -0.206,-0.196 -0.348,-0.216c-1.621,-0.22 -2.747,-0.597 -3.368,-0.851c0.613,-0.826 1.539,-2.663 1.539,-6.226c2.66454e-15,-4.843 3.708,-5.891 4.626,-5.891c1.14,0 1.383,0.185 1.979,0.77c0.094,0.092 0.22,0.143 0.351,0.143h0.467c1.592,0 1.829,3.119 1.829,4.978c0,3.56 0.924,5.397 1.538,6.224c-0.625,0.255 -1.755,0.631 -3.367,0.852c-0.142,0.019 -0.268,0.098 -0.348,0.216c-0.079,0.118 -0.104,0.265 -0.069,0.403l0.398,1.56c0.046,0.179 0.186,0.318 0.365,0.362l3.841,0.94c1.736,0.426 2.995,1.848 3.203,3.552h-20.374Zm24.975,-4.523l-3.55,-0.869l-0.291,-1.137c0.946,-0.925 1.594,-2.188 1.793,-3.485c0.533,-0.156 0.943,-0.611 1.016,-1.179l0.232,-1.826c0.051,-0.394 -0.071,-0.793 -0.333,-1.094c-0.153,-0.176 -0.344,-0.309 -0.557,-0.393l0.082,-1.665l0.337,-0.331c0.538,-0.56 0.984,-1.519 0.056,-2.907c-0.706,-1.056 -1.903,-1.592 -3.556,-1.592c-0.666,0 -2.226,0 -3.655,0.994c-0.227,0.157 -0.283,0.469 -0.125,0.696c0.156,0.227 0.468,0.283 0.695,0.125c1.032,-0.718 2.139,-0.815 3.085,-0.815c1.299,0 2.215,0.386 2.724,1.147c0.596,0.891 0.362,1.338 0.066,1.648l-0.466,0.457c-0.089,0.088 -0.143,0.207 -0.149,0.332l-0.113,2.285c-0.007,0.136 0.042,0.269 0.135,0.368c0.092,0.098 0.222,0.156 0.358,0.157c0.127,0.001 0.247,0.055 0.328,0.149c0.044,0.051 0.116,0.159 0.096,0.312l-0.232,1.826c-0.027,0.207 -0.211,0.363 -0.475,0.363c-0.261,0 -0.477,0.2 -0.498,0.46c-0.103,1.284 -0.751,2.566 -1.731,3.427c-0.141,0.125 -0.201,0.317 -0.154,0.5l0.438,1.715c0.046,0.179 0.186,0.318 0.365,0.362l3.841,0.941c1.736,0.426 2.995,1.848 3.203,3.552h-4.47v1.001l5,-0.001c0.276,0 0.5,-0.226 0.5,-0.502c0,-2.38 -1.642,-4.444 -3.995,-5.021Z" fill="#4B286D"></path></svg>