<?xml version="1.0" encoding="UTF-8"?><svg version="1.1" viewBox="0 0 30 30" xmlns="http://www.w3.org/2000/svg" xmlns:xlink="http://www.w3.org/1999/xlink"><!--Generated by IJSVG (https://github.com/iconjar/IJSVG)--><g style="display:none;"><g transform="matrix(1,0,0,1,-368,-232)"><g transform="matrix(1,0,0,1,41,178)"><g transform="matrix(1,0,0,1,313,42)"><g transform="matrix(1,0,0,1,14,12)"><path fill="#4B286D" d="M18.4,26.2h-6.8c-1.6,0 -2.8,-1.3 -2.8,-2.8v-18.1c0,-1.6 1.3,-2.8 2.8,-2.8h6.8c3.3,0 2.8,-0.1 2.8,1.5v19.5c0,1.5 -1.2,2.7 -2.8,2.7Zm-6.7,-22.5c-0.9,8.88178e-16 -1.7,0.8 -1.7,1.7v17.9c0,0.9 0.7,1.7 1.7,1.7h6.7c0.9,0 1.7,-0.8 1.7,-1.7v-17.9c0,-2.3 0,-1.7 -1.7,-1.7h-6.7Z"></path><path fill="#4B286D" d="M17.5,18.7h-5c-0.3,0 -0.6,-0.3 -0.6,-0.6c0,-0.3 0.3,-0.6 0.6,-0.6h5c0.3,0 0.6,0.3 0.6,0.6c0,0.4 -0.3,0.6 -0.6,0.6Z"></path><path fill="#4B286D" d="M17.5,16.2h-5c-0.3,0 -0.6,-0.3 -0.6,-0.6c0,-0.3 0.3,-0.6 0.6,-0.6h5c0.3,0 0.6,0.3 0.6,0.6c0,0.4 -0.3,0.6 -0.6,0.6Z"></path><path fill="#4B286D" d="M17.5,21.2h-5c-0.3,0 -0.6,-0.3 -0.6,-0.6c0,-0.3 0.3,-0.6 0.6,-0.6h5c0.3,0 0.6,0.3 0.6,0.6c0,0.3 -0.3,0.6 -0.6,0.6Z"></path><path fill="#4B286D" d="M20.6,3.7h-2.5c-0.3,0 -0.6,-0.3 -0.6,-0.6v-1.2c0,-1 0.8,-1.9 1.9,-1.9c1.1,0 1.9,0.8 1.9,1.9v1.2c-0.1,0.4 -0.3,0.6 -0.7,0.6Zm-1.9,-1.2h1.3v-0.6c0,-0.3 -0.3,-0.6 -0.6,-0.6c-0.3,0 -0.6,0.3 -0.6,0.6l-0.1,0.6v0Z"></path><path fill="#4B286D" d="M18.1,12.5h-6.2c-0.3,0 -0.6,-0.3 -0.6,-0.6v-5c0,-0.3 0.3,-0.6 0.6,-0.6h6.2c0.3,0 0.6,0.3 0.6,0.6v5c-3.55271e-15,0.3 -0.2,0.6 -0.6,0.6Zm-5.6,-1.3h5v-3.7h-5v3.7Z"></path><path fill="#4B286D" d="M8.8,19.2v1.9c-0.2,-0.2 -0.3,-0.4 -0.5,-0.6c-0.2,-0.3 -0.5,-0.5 -0.8,-0.5c-0.2,0 -1.7,0 -1.9,0.2l-1,2.2c-0.8,0.8 -0.9,1.3 -0.9,1.7v2.7c0,1 0.8,1.9 1.9,1.9h18.7c1,0 1.9,-0.8 1.9,-1.9v-2.7c0,-0.5 -0.2,-1 -0.5,-1.3l-1.4,-2.6c-0.2,-0.2 -1.7,-0.2 -1.8,-0.2c-0.3,0 -0.5,0.2 -0.7,0.4c-0.2,0.2 -0.3,0.4 -0.5,0.6v-1.9c0.3,-0.2 0.7,-0.4 1.1,-0.4c0.6,-0.1 2.4,0.2 2.9,0.6l1.4,2.6c0.6,0.6 0.9,1.4 0.9,2.2v2.7c0,1.7 -1.4,3.1 -3.1,3.1h-18.9c-1.7,0 -3.1,-1.4 -3.1,-3.1v-2.7c0,-0.9 0.4,-1.7 1.3,-2.6l1,-2.2c0.4,-0.4 2.3,-0.6 2.9,-0.6c0.4,0.1 0.7,0.2 1.1,0.5Z"></path></g></g></g></g></g><g stroke-width="1" stroke="#4B286D" fill="none" stroke-linejoin="round"><path d="M11.8,6.8h6.3v4.9h-6.3Z"></path><path d="M18.4,25.7h-6.9c-1.2,0 -2.2,-1 -2.2,-2.2v-18.3c0,-1.2 1,-2.2 2.2,-2.2h9v0v20.4c0.1,1.3 -0.9,2.3 -2.1,2.3Z"></path><path stroke-linecap="round" d="M12.4,15.6h5.2"></path><path stroke-linecap="round" d="M12.4,18.2h5.2"></path><path stroke-linecap="round" d="M12.4,20.7h5.2"></path><path stroke-linecap="round" d="M20.5,2.9v-1.1c0,-0.7 -0.6,-1.3 -1.3,-1.3c-0.7,0 -1.3,0.6 -1.3,1.3v1.1h2.6Z"></path><path d="M20.5,21.4v-0.6v0c0,0 0.8,-1.1 1.4,-1.4c0.7,-0.1 1.9,-0.1 2.7,0.3c0.7,0.9 0.8,2.2 1.6,2.8c0.7,0.5 0.7,1.9 0.7,2.3v2.3c0,1.3 -1.1,2.4 -2.4,2.4h-9h-10.2c-1.3,0 -2.4,-1.1 -2.4,-2.4v-2.3c0,-0.4 -0.1,-1.7 0.7,-2.3c0.7,-0.5 0.9,-1.9 1.6,-2.8c0.8,-0.4 2,-0.4 2.7,-0.3c0.6,0.3 1.4,1.4 1.4,1.4v0v1.4"></path></g></svg>