<?xml version="1.0" encoding="UTF-8"?><svg version="1.1" viewBox="0 0 30 30" xmlns="http://www.w3.org/2000/svg" xmlns:xlink="http://www.w3.org/1999/xlink"><!--Generated by IJSVG (https://github.com/iconjar/IJSVG)--><g stroke-linecap="round" stroke-width="1" stroke="#4B286D" fill="none" stroke-linejoin="round"><path d="M23.74,21.5h-21.48c-0.97,0 -1.76,-0.79 -1.76,-1.76v-16.48c0,-0.97 0.79,-1.76 1.76,-1.76h21.48c0.97,0 1.76,0.79 1.76,1.76v16.48c-3.55271e-15,0.97 -0.79,1.76 -1.76,1.76c0,0 0,0 0,0Z"></path><path d="M28.25,17.37l1.17,4.39c0.31,1.13 -0.36,2.31 -1.49,2.62c-0.01,0 -0.01,0 -0.02,0.01l-18.8,5.04c-1.13,0.31 -2.31,-0.35 -2.62,-1.49c0,-0.01 0,-0.02 -0.01,-0.02l-0.91,-3.42"></path><path d="M7.91421,6.08579c0.781049,0.781049 0.781049,2.04738 0,2.82843c-0.781049,0.781049 -2.04738,0.781049 -2.82843,0c-0.781049,-0.781049 -0.781049,-2.04738 -8.88178e-16,-2.82843c0.781049,-0.781049 2.04738,-0.781049 2.82843,-8.88178e-16"></path><path style="display:none;" d="M25.5,19.42l-6.59,-8.94c-0.41,-0.55 -1.19,-0.68 -1.74,-0.27c-0.07,0.05 -0.14,0.11 -0.2,0.18l-6.06,6.76l-3.35,-3.35c-0.46,-0.46 -1.2,-0.49 -1.69,-0.06l-5.37,4.56"></path><path d="M25.36,19.42l-5.99,-8.13c-0.81,-1.1 -2.43,-1.18 -3.35,-0.16l-4.36,4.87l-2.19,-2.2c-0.8,-0.79 -2.07,-0.84 -2.93,-0.12l-6.04,5.14"></path></g></svg>