<?xml version="1.0" encoding="UTF-8"?><svg version="1.1" viewBox="0 0 30 30" xmlns="http://www.w3.org/2000/svg" xmlns:xlink="http://www.w3.org/1999/xlink"><!--Generated by IJSVG (https://github.com/iconjar/IJSVG)--><g stroke-linecap="round" stroke-width="1" stroke="#4B286D" fill="none" stroke-linejoin="round"><path d="M27.5,27.5h-25h-8.74228e-08c-1.10457,-4.82823e-08 -2,-0.895431 -2,-2c0,0 0,0 0,0v-19l2.13163e-14,3.01992e-07c-1.66785e-07,-1.10457 0.89543,-2 2,-2h25h-8.74228e-08c1.10457,-4.82823e-08 2,0.89543 2,2v19v0c0,1.10457 -0.895431,2 -2,2Z"></path><path d="M9.91421,9.08579c0.781049,0.781049 0.781049,2.04738 0,2.82843c-0.781049,0.781049 -2.04738,0.781049 -2.82843,0c-0.781049,-0.781049 -0.781049,-2.04738 -8.88178e-16,-2.82843c0.781049,-0.781049 2.04738,-0.781049 2.82843,0"></path><path d="M29.5,23.67l-6.985,-9.482c-0.946,-1.286 -2.837,-1.374 -3.909,-0.189l-5.081,5.674l-2.56,-2.56l-5.9352e-08,-5.87022e-08c-0.932137,-0.921932 -2.41306,-0.982174 -3.417,-0.139l-7.048,5.99"></path></g></svg>