<?xml version="1.0" encoding="UTF-8"?><svg version="1.1" viewBox="3 -3 30 30" xmlns="http://www.w3.org/2000/svg" xmlns:xlink="http://www.w3.org/1999/xlink"><!--Generated by IJSVG (https://github.com/iconjar/IJSVG)--><g fill="#4B286D"><path d="M20.118,16.256c-0.128,0 -0.256,-0.049 -0.354,-0.146l-8.5,-8.5c-0.195,-0.195 -0.195,-0.512 0,-0.707c0.195,-0.195 0.512,-0.195 0.707,0l8.5,8.5c0.195,0.195 0.195,0.512 0,0.707c-0.098,0.097 -0.226,0.146 -0.353,0.146Z"></path><path d="M7.118,20.756c-0.128,0 -0.256,-0.049 -0.354,-0.146c-1.707,-1.707 -1.119,-4.588 0.5,-6.207l4,-4c0.195,-0.195 0.512,-0.195 0.707,0c0.195,0.195 0.195,0.512 0,0.707l-4,4c-1.251,1.252 -1.764,3.528 -0.5,4.793c0.195,0.195 0.195,0.512 0,0.707c-0.098,0.097 -0.226,0.146 -0.353,0.146Z"></path><path d="M29.618,17.256h-9.5c-0.276,0 -0.5,-0.224 -0.5,-0.5c0,-0.276 0.224,-0.5 0.5,-0.5h9.5c0.276,0 0.5,0.224 0.5,0.5c0,0.276 -0.224,0.5 -0.5,0.5Z"></path><path d="M9.837,24.449c-1.664,0 -3.329,-0.633 -4.596,-1.9l-0.458,-0.458c-2.534,-2.535 -2.534,-6.658 0,-9.193l13.253,-13.253c2.535,-2.534 6.658,-2.534 9.193,4.44089e-16l0.458,0.458c2.534,2.534 2.534,6.658 0,9.192l-13.254,13.254c-1.267,1.267 -2.931,1.9 -4.596,1.9Zm12.795,-25.705c-1.408,2.22045e-16 -2.816,0.536 -3.889,1.608l-13.253,13.253c-2.145,2.144 -2.145,5.634 0,7.778l0.458,0.458v0c1.039,1.039 2.42,1.61 3.889,1.61c1.469,0 2.851,-0.571 3.889,-1.61l13.254,-13.253c1.039,-1.039 1.61,-2.42 1.61,-3.889c0,-1.469 -0.571,-2.85 -1.61,-3.889l-0.458,-0.458c-1.072,-1.072 -2.482,-1.608 -3.89,-1.608Z"></path><path d="M23.118,26.256c-3.485,0 -6.664,-1.778 -8.504,-4.757c-0.122,-0.197 -0.092,-0.452 0.072,-0.616l12.294,-12.295c0.201,-0.201 0.396,-0.44 0.614,-0.753c0.151,-0.217 0.445,-0.279 0.668,-0.143c3.04,1.83 4.855,5.032 4.855,8.564c0.001,5.513 -4.486,10 -9.999,10Zm-7.44,-4.952c1.682,2.482 4.435,3.952 7.439,3.952c4.963,0 9,-4.037 9,-9c0,-3.027 -1.482,-5.784 -3.987,-7.463c-0.148,0.189 -0.294,0.354 -0.443,0.503l-12.009,12.008Z"></path></g></svg>