<?xml version="1.0" encoding="UTF-8"?><svg version="1.1" viewBox="0 0 30 30" xmlns="http://www.w3.org/2000/svg" xmlns:xlink="http://www.w3.org/1999/xlink"><!--Generated by IJSVG (https://github.com/iconjar/IJSVG)--><g fill="#4B286D"><path d="M11.5,21.5c-0.1,0 -0.2,0 -0.2,-0.1c-0.2,0 -0.3,-0.2 -0.3,-0.4v-12c0,-0.2 0.1,-0.4 0.3,-0.4c0.2,0 0.4,-0.1 0.5,0l9,6c0.1,0.1 0.2,0.2 0.2,0.4c0,0.2 -0.1,0.3 -0.2,0.4l-9,6c-0.1,0.1 -0.2,0.1 -0.3,0.1Zm0.5,-11.6v10.1l7.6,-5.1l-7.6,-5Z"></path><path d="M23.5,27.5h-17c-3.6,0 -6.5,-2.9 -6.5,-6.5v-12c0,-3.6 2.9,-6.5 6.5,-6.5h17c3.6,0 6.5,2.9 6.5,6.5v12c0,3.6 -2.9,6.5 -6.5,6.5Zm-17,-24c-3,0 -5.5,2.5 -5.5,5.5v12c0,3 2.5,5.5 5.5,5.5h17c3,0 5.5,-2.5 5.5,-5.5v-12c0,-3 -2.5,-5.5 -5.5,-5.5h-17Z"></path></g></svg>