<?xml version="1.0" encoding="UTF-8"?>
<svg id="Layer_1" data-name="Layer 1" xmlns="http://www.w3.org/2000/svg" viewBox="0 0 30 30">
  <defs>
    <style>
      .cls-1 {
        fill: none;
        stroke: #4b286d;
        stroke-linecap: round;
        stroke-linejoin: round;
      }
    </style>
  </defs>
  <path class="cls-1" d="M28.45,25.43s-18.25,0-18.25,0c-1.49,3.03-6.12,3.16-7.57,0h-1.51"/>
  <g>
    <path class="cls-1" d="M13.89,7.28c-1.52.24-5.18,1.06-5.63,1.44s-1.77,4.56-1.85,5.05-1.74.35-2,.85-.38.96-.87,1.2-.15,2.38.06,3.69.77,3.41,1.1,3.52c3.86-.21,7.71-.66,11.51-1.33"/>
    <path class="cls-1" d="M14.55,11.4c-4.01.65-7.39,1.78-8.15,2.37"/>
    <path class="cls-1" d="M3.67,19.92s6.51-.41,12.05-1.31"/>
    <path class="cls-1" d="M4.1,22.6l.33,2.06c.09.57.63.96,1.2.86h0s2.08-.34,2.08-.34c.55-.09.93-.61.84-1.17,0,0,0-.02,0-.02l-.17-1.03"/>
    <line class="cls-1" x1="6.76" y1="12.65" x2="5.08" y2="12.93"/>
    <path class="cls-1" d="M13.89,7.28c1.52-.24,5.25-.63,5.8-.41s3.12,3.77,3.34,4.22,1.76-.22,2.16.18.66.8,1.21.86.89,2.21,1.1,3.52.34,3.48.06,3.69c-3.73,1.01-7.52,1.8-11.35,2.36"/>
    <path class="cls-1" d="M14.55,11.4c4.01-.65,7.58-.63,8.48-.31"/>
    <path class="cls-1" d="M27.57,16.07s-6.31,1.65-11.85,2.54"/>
    <path class="cls-1" d="M28,18.74l.33,2.06c.09.57-.3,1.11-.87,1.2h0s-2.08.34-2.08.34c-.55.09-1.08-.29-1.17-.84,0,0,0-.02,0-.02l-.17-1.03"/>
    <line class="cls-1" x1="22.35" y1="10.14" x2="24.03" y2="9.87"/>
    <path class="cls-1" d="M3.79,17.36s3.31,0,4.42-.18,1.3,1.9,1.3,1.9"/>
    <path class="cls-1" d="M26.66,13.68s-3.14,1.03-4.26,1.21-.63,2.22-.63,2.22"/>
    <line class="cls-1" x1="12.47" y1="16.81" x2="19.06" y2="15.75"/>
  </g>
</svg>