<?xml version="1.0" encoding="UTF-8"?><svg version="1.1" viewBox="0 0 30 30" xmlns="http://www.w3.org/2000/svg" xmlns:xlink="http://www.w3.org/1999/xlink"><!--Generated by IJSVG (https://github.com/iconjar/IJSVG)--><g stroke-linecap="round" stroke-width="1" stroke="#4B286D" fill="none" stroke-linejoin="round"><path d="M27.5,14.5h-25c-1.1,0 -2,-0.9 -2,-2v-4c0,-1.1 0.9,-2 2,-2h25c1.1,0 2,0.9 2,2v4c0,1.1 -0.9,2 -2,2Zm-1,0v13c0,1.1 -0.9,2 -2,2h-20c-1.1,0 -2,-0.9 -2,-2v-13m10.2,-13.3c1,1 1.8,5.3 1.8,5.3c0,0 -4.3,-0.8 -5.3,-1.8c-1,-1 -1,-2.5 0,-3.5c1,-1 2.6,-0.9 3.5,-2.22045e-16Zm4.6,6.66134e-16c-1,1 -1.8,5.3 -1.8,5.3c0,0 4.3,-0.8 5.3,-1.8c1,-1 1,-2.5 0,-3.5c-1,-1 -2.6,-0.9 -3.5,-2.22045e-16c0,0 0,0 0,0Z"></path><path d="M15.5,6.5c0,0 -3.8,1.7 -5.2,2.9"></path><path d="M14.5,6.5c0,0 3.8,1.7 5.2,2.9"></path></g></svg>