<?xml version="1.0" encoding="UTF-8"?><svg version="1.1" viewBox="0 0 30 30" xmlns="http://www.w3.org/2000/svg" xmlns:xlink="http://www.w3.org/1999/xlink"><!--Generated by IJSVG (https://github.com/iconjar/IJSVG)--><g fill="#4B286D"><path d="M27.5,30h-26c-0.28,0 -0.5,-0.22 -0.5,-0.5v-18c0,-0.28 0.22,-0.5 0.5,-0.5h26c0.28,0 0.5,0.22 0.5,0.5v18c0,0.28 -0.22,0.5 -0.5,0.5Zm-25.5,-1h25v-17h-25v17Z"></path><path d="M28.5,12h-28c-0.28,0 -0.5,-0.22 -0.5,-0.5v-5c0,-0.28 0.22,-0.5 0.5,-0.5h28c0.28,0 0.5,0.22 0.5,0.5v5c0,0.28 -0.22,0.5 -0.5,0.5Zm-27.5,-1h27v-4h-27v4Z"></path><path d="M14.5,30c-0.28,0 -0.5,-0.22 -0.5,-0.5v-23c0,-0.28 0.22,-0.5 0.5,-0.5c0.28,0 0.5,0.22 0.5,0.5v23c0,0.28 -0.22,0.5 -0.5,0.5Z"></path><path d="M14.5,7c-0.02,0 -0.04,0 -0.06,0c-0.28,-0.04 -6.95,-0.92 -8.86,-3.2c-0.01,-0.01 -0.01,-0.02 -0.02,-0.02c-0.36,-0.41 -0.56,-0.94 -0.56,-1.48c0,-1.27 1.09,-2.3 2.42,-2.3c0.16,0 0.31,0.01 0.46,0.04c2.58,0.41 6.45,3.48 7.1,6.35c0.04,0.16 -0.01,0.33 -0.12,0.45c-0.09,0.1 -0.22,0.16 -0.36,0.16Zm-8.21,-3.91c0.01,0.01 0.02,0.02 0.03,0.04c1.17,1.46 5.23,2.39 7.44,2.76c-0.99,-2.22 -4.04,-4.54 -6.05,-4.86c-0.95,-0.18 -1.71,0.47 -1.71,1.27c0,0.29 0.1,0.56 0.29,0.79Z"></path><path d="M14.5,7c-0.14,0 -0.27,-0.06 -0.37,-0.16c-0.11,-0.12 -0.15,-0.29 -0.12,-0.45c0.65,-2.87 4.52,-5.94 7.11,-6.35c0.14,-0.03 0.3,-0.04 0.46,-0.04c1.33,0 2.42,1.03 2.42,2.3c0,0.54 -0.2,1.06 -0.56,1.47c-0.01,0.01 -0.01,0.01 -0.02,0.02c-1.91,2.28 -8.57,3.16 -8.86,3.2c-0.02,0.01 -0.04,0.01 -0.06,0.01Zm7.08,-6c-0.1,0 -0.19,0.01 -0.28,0.03c-2.02,0.32 -5.08,2.65 -6.06,4.86c2.21,-0.37 6.27,-1.3 7.44,-2.76c0.01,-0.02 0.02,-0.03 0.04,-0.04c0.18,-0.23 0.28,-0.5 0.28,-0.79c0,-0.72 -0.64,-1.3 -1.42,-1.3Z"></path></g><path fill="none" stroke="#4B286D" stroke-linecap="round" stroke-width="1" d="M14.5,5.88l2.81,4.14"></path><path d="M14.5,5.88l-2.81,4.14" stroke-linecap="round" stroke-width="1" stroke="#4B286D" fill="none"></path></svg>