<?xml version="1.0" encoding="UTF-8"?><svg version="1.1" viewBox="0 0 30 30" xmlns="http://www.w3.org/2000/svg" xmlns:xlink="http://www.w3.org/1999/xlink"><!--Generated by IJSVG (https://github.com/iconjar/IJSVG)--><g fill="#4B286D"><path d="M28,24h-4.5c-0.276,0 -0.5,-0.224 -0.5,-0.5c0,-0.276 0.224,-0.5 0.5,-0.5h4.5c0.551,0 1,-0.449 1,-1v-8.5c0,-1.378 -1.122,-2.5 -2.5,-2.5h-23c-1.378,0 -2.5,1.122 -2.5,2.5v8.5c0,0.551 0.449,1 1,1h4.5c0.276,0 0.5,0.224 0.5,0.5c0,0.276 -0.224,0.5 -0.5,0.5h-4.5c-1.103,0 -2,-0.897 -2,-2v-8.5c0,-1.93 1.57,-3.5 3.5,-3.5h23c1.93,0 3.5,1.57 3.5,3.5v8.5c0,1.103 -0.897,2 -2,2Z"></path><path d="M23.5,30h-17c-0.276,0 -0.5,-0.224 -0.5,-0.5v-11c0,-0.276 0.224,-0.5 0.5,-0.5h17c0.276,0 0.5,0.224 0.5,0.5v11c0,0.276 -0.224,0.5 -0.5,0.5Zm-16.5,-1h16v-10h-16v10Z"></path><path d="M23.5,11h-17c-0.276,0 -0.5,-0.224 -0.5,-0.5v-10c0,-0.276 0.224,-0.5 0.5,-0.5h17c0.276,0 0.5,0.224 0.5,0.5v10c0,0.276 -0.224,0.5 -0.5,0.5Zm-16.5,-1h16v-9h-16v9Z"></path><path d="M20.5,26h-11c-0.276,0 -0.5,-0.224 -0.5,-0.5c0,-0.276 0.224,-0.5 0.5,-0.5h11c0.276,0 0.5,0.224 0.5,0.5c0,0.276 -0.224,0.5 -0.5,0.5Z"></path><path d="M20.5,22h-11c-0.276,0 -0.5,-0.224 -0.5,-0.5c0,-0.276 0.224,-0.5 0.5,-0.5h11c0.276,0 0.5,0.224 0.5,0.5c0,0.276 -0.224,0.5 -0.5,0.5Z"></path></g></svg>