<?xml version="1.0" encoding="UTF-8"?><svg version="1.1" viewBox="0 0 30 30" xmlns="http://www.w3.org/2000/svg" xmlns:xlink="http://www.w3.org/1999/xlink"><!--Generated by IJSVG (https://github.com/iconjar/IJSVG)--><g fill="#4B286D"><path d="M14.5,30c-7.995,0 -14.5,-6.505 -14.5,-14.5c0,-7.995 6.505,-14.5 14.5,-14.5c7.995,0 14.5,6.505 14.5,14.5c0,7.995 -6.505,14.5 -14.5,14.5Zm0,-28c-7.444,0 -13.5,6.056 -13.5,13.5c0,7.444 6.056,13.5 13.5,13.5c7.444,0 13.5,-6.056 13.5,-13.5c0,-7.444 -6.056,-13.5 -13.5,-13.5Z"></path><path d="M14.5,21.091c-0.276,0 -0.5,-0.224 -0.5,-0.5v-0.964c0,-1.153 0.449,-2.238 1.265,-3.053l1.582,-1.582c0.627,-0.627 0.972,-1.46 0.972,-2.347v-0.964c0,-1.83 -1.488,-3.318 -3.318,-3.318c-1.83,0 -3.318,1.488 -3.318,3.318v1.273c0,0.276 -0.224,0.5 -0.5,0.5c-0.276,0 -0.5,-0.224 -0.5,-0.5v-1.273c0,-2.381 1.938,-4.318 4.318,-4.318c2.38,0 4.318,1.937 4.318,4.318v0.964c0,1.153 -0.449,2.238 -1.265,3.054l-1.582,1.582c-0.627,0.626 -0.972,1.46 -0.972,2.346v0.964c0,0.276 -0.224,0.5 -0.5,0.5Z"></path><path d="M14.5,24.909c-0.627,0 -1.137,-0.51 -1.137,-1.136c0,-0.627 0.51,-1.137 1.137,-1.137c0.627,0 1.137,0.51 1.137,1.137c0,0.626 -0.51,1.136 -1.137,1.136Zm0,-1.273c-0.075,0 -0.137,0.062 -0.137,0.137c0,0.15 0.273,0.15 0.273,0c0.001,-0.075 -0.061,-0.137 -0.136,-0.137Z"></path></g></svg>