<?xml version="1.0" encoding="UTF-8"?><svg version="1.1" viewBox="0 0 30 30" xmlns="http://www.w3.org/2000/svg" xmlns:xlink="http://www.w3.org/1999/xlink"><!--Generated by IJSVG (https://github.com/iconjar/IJSVG)--><g fill="#4B286D"><path d="M14.5,17c-0.827,0 -1.5,-0.673 -1.5,-1.5c0,-0.827 0.673,-1.5 1.5,-1.5c0.827,0 1.5,0.673 1.5,1.5c0,0.827 -0.673,1.5 -1.5,1.5Zm0,-2c-0.276,0 -0.5,0.225 -0.5,0.5c0,0.275 0.224,0.5 0.5,0.5c0.276,0 0.5,-0.225 0.5,-0.5c0,-0.275 -0.224,-0.5 -0.5,-0.5Z"></path><path d="M14.5,22c-3.584,0 -6.5,-2.916 -6.5,-6.5c0,-3.584 2.916,-6.5 6.5,-6.5c0.276,0 0.5,0.224 0.5,0.5c0,0.276 -0.224,0.5 -0.5,0.5c-3.033,0 -5.5,2.468 -5.5,5.5c0,3.032 2.467,5.5 5.5,5.5c3.033,0 5.5,-2.468 5.5,-5.5c0,-1.469 -0.572,-2.85 -1.611,-3.889c-0.195,-0.195 -0.195,-0.512 0,-0.707c0.195,-0.195 0.512,-0.195 0.707,0c1.228,1.228 1.904,2.86 1.904,4.596c0,3.584 -2.916,6.5 -6.5,6.5Z"></path><path d="M14.5,26c-5.79,0 -10.5,-4.71 -10.5,-10.5c0,-5.79 4.71,-10.5 10.5,-10.5c0.276,0 0.5,0.224 0.5,0.5c0,0.276 -0.224,0.5 -0.5,0.5c-5.238,0 -9.5,4.262 -9.5,9.5c0,5.238 4.262,9.5 9.5,9.5c5.238,0 9.5,-4.262 9.5,-9.5c0,-2.538 -0.988,-4.924 -2.782,-6.718c-0.195,-0.195 -0.195,-0.512 0,-0.707c0.195,-0.195 0.512,-0.195 0.707,0c1.983,1.984 3.075,4.62 3.075,7.425c0,5.79 -4.71,10.5 -10.5,10.5Z"></path><path d="M14.5,30c-7.995,0 -14.5,-6.505 -14.5,-14.5c0,-7.995 6.505,-14.5 14.5,-14.5c0.276,0 0.5,0.224 0.5,0.5v14c0,0.276 -0.224,0.5 -0.5,0.5c-0.276,0 -0.5,-0.224 -0.5,-0.5v-13.491c-7.213,0.263 -13,6.215 -13,13.491c0,7.444 6.056,13.5 13.5,13.5c7.444,0 13.5,-6.056 13.5,-13.5c0,-3.606 -1.404,-6.996 -3.954,-9.546c-0.195,-0.195 -0.195,-0.512 0,-0.707c0.195,-0.195 0.512,-0.195 0.707,0c2.739,2.738 4.247,6.38 4.247,10.253c0,7.995 -6.505,14.5 -14.5,14.5Z"></path></g></svg>