<?xml version="1.0" encoding="UTF-8"?><svg version="1.1" viewBox="0 0 30 30" xmlns="http://www.w3.org/2000/svg" xmlns:xlink="http://www.w3.org/1999/xlink"><!--Generated by IJSVG (https://github.com/iconjar/IJSVG)--><g stroke-linecap="round" stroke-width="1" stroke="#4B286D" fill="none" stroke-linejoin="round"><path d="M4.5,28.5h21.2c2.1,0 3.8,-1.7 3.8,-3.8v0v-19.7c0,-1.4 -1.1,-2.5 -2.5,-2.5h-16c-1.4,0 -2.5,1.1 -2.5,2.5v19.5c0,2.1 -1.6,4 -4,4c-2.2,0 -4,-1.7 -4,-3.9v-9.1h8"></path><path d="M12.5,6.5h13v5h-13v-5Zm0,9h7.8m-7.8,4h7.8m-7.8,4h7.8"></path></g><path style="display:none;" fill="#4B286D" d="M9,14.5h3v2.9h-3Z"></path><path style="display:none;" d="M26,14.5h3v2.9h-3Z" fill="#4B286D"></path><path fill="none" stroke="#4B286D" stroke-linecap="round" stroke-linejoin="round" stroke-width="1" d="M22.4,15.5h3.1"></path><g stroke-linecap="round" stroke-width="1" stroke="#4B286D" fill="none" stroke-linejoin="round"><path d="M22.4,19.5h3.1"></path><path d="M22.4,23.5h3.1"></path></g></svg>