<?xml version="1.0" encoding="UTF-8"?><svg version="1.1" viewBox="0 0 30 30" xmlns="http://www.w3.org/2000/svg" xmlns:xlink="http://www.w3.org/1999/xlink"><!--Generated by IJSVG (https://github.com/iconjar/IJSVG)--><path d="M29.5,14.5c-0.276,0 -0.5,0.224 -0.5,0.5c0,7.72 -6.28,14 -14,14c-6.667,0 -10.698,-4.733 -12.978,-9h3.478c0.276,0 0.5,-0.224 0.5,-0.5c0,-0.276 -0.224,-0.5 -0.5,-0.5h-5c-0.276,0 -0.5,0.224 -0.5,0.5v5c0,0.276 0.224,0.5 0.5,0.5c0.276,0 0.5,-0.224 0.5,-0.5v-4.305c3.334,6.412 8.163,9.805 14,9.805c8.271,0 15,-6.729 15,-15c0,-0.276 -0.224,-0.5 -0.5,-0.5Zm0,-9.5c-0.276,0 -0.5,0.224 -0.5,0.5v4.304c-3.334,-6.411 -8.163,-9.804 -14,-9.804c-8.271,0 -15,6.729 -15,15c0,0.276 0.224,0.5 0.5,0.5c0.276,0 0.5,-0.224 0.5,-0.5c0,-7.72 6.28,-14 14,-14c6.667,0 10.698,4.733 12.978,9h-3.478c-0.276,0 -0.5,0.224 -0.5,0.5c0,0.276 0.224,0.5 0.5,0.5h5c0.276,0 0.5,-0.224 0.5,-0.5v-5c0,-0.276 -0.224,-0.5 -0.5,-0.5Z" fill="#4B286D"></path></svg>