<?xml version="1.0" encoding="UTF-8"?><svg version="1.1" viewBox="0 0 30 30" xmlns="http://www.w3.org/2000/svg" xmlns:xlink="http://www.w3.org/1999/xlink"><!--Generated by IJSVG (https://github.com/iconjar/IJSVG)--><g stroke-linecap="round" stroke-width="1" stroke="#4B286D" fill="none" stroke-linejoin="round"><path d="M14.5,17.6l0.6,-0.6l0.6,0.6"></path><path d="M11.7,20.4l-0.6,0.7l0.6,0.6"></path><path d="M15.7,24.5l-0.6,0.6l-0.6,-0.6"></path><path d="M18.4,21.7l0.7,-0.6l-0.7,-0.7"></path></g><path fill="#4B286D" d="M13.0657,4.93431c0.312419,0.312419 0.312419,0.818951 0,1.13137c-0.312419,0.312419 -0.818951,0.312419 -1.13137,0c-0.312419,-0.312419 -0.312419,-0.818951 0,-1.13137c0.312419,-0.312419 0.818951,-0.312419 1.13137,0"></path><g fill="#4B286D"><path d="M15.6657,4.93431c0.312419,0.312419 0.312419,0.818951 0,1.13137c-0.312419,0.312419 -0.818951,0.312419 -1.13137,0c-0.312419,-0.312419 -0.312419,-0.818951 0,-1.13137c0.312419,-0.312419 0.818951,-0.312419 1.13137,0"></path><path d="M18.2657,4.93431c0.312419,0.312419 0.312419,0.818951 0,1.13137c-0.312419,0.312419 -0.818951,0.312419 -1.13137,0c-0.312419,-0.312419 -0.312419,-0.818951 0,-1.13137c0.312419,-0.312419 0.818951,-0.312419 1.13137,0"></path><path d="M13.0657,9.03431c0.312419,0.312419 0.312419,0.818951 0,1.13137c-0.312419,0.312419 -0.818951,0.312419 -1.13137,0c-0.312419,-0.312419 -0.312419,-0.818951 0,-1.13137c0.312419,-0.312419 0.818951,-0.312419 1.13137,0"></path><path d="M15.6657,9.03431c0.312419,0.312419 0.312419,0.818951 0,1.13137c-0.312419,0.312419 -0.818951,0.312419 -1.13137,0c-0.312419,-0.312419 -0.312419,-0.818951 0,-1.13137c0.312419,-0.312419 0.818951,-0.312419 1.13137,0"></path><path d="M18.2657,9.03431c0.312419,0.312419 0.312419,0.818951 0,1.13137c-0.312419,0.312419 -0.818951,0.312419 -1.13137,0c-0.312419,-0.312419 -0.312419,-0.818951 0,-1.13137c0.312419,-0.312419 0.818951,-0.312419 1.13137,0"></path><path d="M13.0657,13.0343c0.312419,0.312419 0.312419,0.818951 0,1.13137c-0.312419,0.312419 -0.818951,0.312419 -1.13137,0c-0.312419,-0.312419 -0.312419,-0.818951 0,-1.13137c0.312419,-0.312419 0.818951,-0.312419 1.13137,0"></path><path d="M15.6657,13.0343c0.312419,0.312419 0.312419,0.818951 0,1.13137c-0.312419,0.312419 -0.818951,0.312419 -1.13137,0c-0.312419,-0.312419 -0.312419,-0.818951 0,-1.13137c0.312419,-0.312419 0.818951,-0.312419 1.13137,0"></path><path d="M18.2657,13.0343c0.312419,0.312419 0.312419,0.818951 0,1.13137c-0.312419,0.312419 -0.818951,0.312419 -1.13137,0c-0.312419,-0.312419 -0.312419,-0.818951 0,-1.13137c0.312419,-0.312419 0.818951,-0.312419 1.13137,0"></path><path d="M15.6657,20.5343c0.312419,0.312419 0.312419,0.818951 0,1.13137c-0.312419,0.312419 -0.818951,0.312419 -1.13137,0c-0.312419,-0.312419 -0.312419,-0.818951 0,-1.13137c0.312419,-0.312419 0.818951,-0.312419 1.13137,0"></path></g><path fill="none" stroke="#4B286D" stroke-linecap="round" stroke-linejoin="round" stroke-width="1" d="M19.6,29.5h-9.1c-1.4,0 -2.6,-1.1 -2.6,-2.6v-23.8c0,-1.4 1.1,-2.6 2.6,-2.6h9.1c1.4,0 2.6,1.1 2.6,2.6v23.7c0.1,1.6 -1.2,2.7 -2.6,2.7Z"></path></svg>