<?xml version="1.0" encoding="UTF-8"?><svg version="1.1" viewBox="0 0 30 30" xmlns="http://www.w3.org/2000/svg" xmlns:xlink="http://www.w3.org/1999/xlink"><!--Generated by IJSVG (https://github.com/iconjar/IJSVG)--><g fill="#4B286D"><path d="M21.5,18.2c-0.3,0 -0.5,-0.2 -0.5,-0.5v-8c0,-0.3 0.2,-0.5 0.5,-0.5c0.3,0 0.5,0.2 0.5,0.5v8c0,0.2 -0.2,0.5 -0.5,0.5Z"></path><path d="M26.5,22.2h-7c-0.3,0 -0.5,-0.2 -0.5,-0.5c0,-0.3 0.2,-0.5 0.5,-0.5h7c0.3,0 0.5,0.2 0.5,0.5c0,0.3 -0.2,0.5 -0.5,0.5Z"></path><path d="M27.5,26.2h-25c-1.4,0 -2.5,-1.2 -2.5,-2.5v-4c0,-1.4 1.1,-2.5 2.5,-2.5h25c1.4,0 2.5,1.1 2.5,2.5v4c0,1.3 -1.1,2.5 -2.5,2.5Zm-25,-8c-0.8,0 -1.5,0.7 -1.5,1.5v4c0,0.8 0.7,1.5 1.5,1.5h25c0.8,0 1.5,-0.7 1.5,-1.5v-4c0,-0.8 -0.7,-1.5 -1.5,-1.5h-25Z"></path><path d="M3.85355,21.3464c0.195262,0.195262 0.195262,0.511845 0,0.707107c-0.195262,0.195262 -0.511845,0.195262 -0.707107,0c-0.195262,-0.195262 -0.195262,-0.511845 0,-0.707107c0.195262,-0.195262 0.511845,-0.195262 0.707107,0"></path><path d="M7.85355,21.3464c0.195262,0.195262 0.195262,0.511845 0,0.707107c-0.195262,0.195262 -0.511845,0.195262 -0.707107,0c-0.195262,-0.195262 -0.195262,-0.511845 0,-0.707107c0.195262,-0.195262 0.511845,-0.195262 0.707107,0"></path><path d="M11.8536,21.3464c0.195262,0.195262 0.195262,0.511845 0,0.707107c-0.195262,0.195262 -0.511845,0.195262 -0.707107,0c-0.195262,-0.195262 -0.195262,-0.511845 0,-0.707107c0.195262,-0.195262 0.511845,-0.195262 0.707107,0"></path><path d="M15.8536,21.3464c0.195262,0.195262 0.195262,0.511845 0,0.707107c-0.195262,0.195262 -0.511845,0.195262 -0.707107,0c-0.195262,-0.195262 -0.195262,-0.511845 0,-0.707107c0.195262,-0.195262 0.511845,-0.195262 0.707107,0"></path><path d="M25,13.7c-0.1,0 -0.3,0 -0.4,-0.1c-0.2,-0.2 -0.2,-0.5 0,-0.7c0.9,-0.8 1.3,-2 1.3,-3.2c0,-1.2 -0.5,-2.3 -1.3,-3.2c-0.2,-0.2 -0.2,-0.5 0,-0.7c0.2,-0.2 0.5,-0.2 0.7,0c1,1 1.6,2.4 1.6,3.9c0,1.5 -0.6,2.9 -1.6,3.9c0,0 -0.1,0.1 -0.3,0.1Z"></path><path d="M26.3,15.5c-0.1,0 -0.3,0 -0.4,-0.1c-0.2,-0.2 -0.2,-0.5 0,-0.7c2.7,-2.7 2.7,-7.2 0,-9.9c-0.2,-0.2 -0.2,-0.5 0,-0.7c0.2,-0.2 0.5,-0.2 0.7,0c3.1,3.1 3.1,8.2 0,11.3c0,-1.77636e-15 -0.2,0.1 -0.3,0.1Z"></path><path d="M23.6,12.3c-0.1,0 -0.3,0 -0.4,-0.1c-0.2,-0.2 -0.2,-0.5 0,-0.7c0.5,-0.5 0.7,-1.1 0.7,-1.8c0,-0.7 -0.3,-1.3 -0.7,-1.8c-0.2,-0.2 -0.2,-0.5 0,-0.7c0.2,-0.2 0.5,-0.2 0.7,0c0.7,0.7 1,1.5 1,2.5c0,1 -0.4,1.8 -1,2.5c-3.55271e-15,-1.77636e-15 -0.2,0.1 -0.3,0.1Z"></path><path d="M18,13.7c-0.1,0 -0.3,0 -0.4,-0.1c-1,-1 -1.6,-2.4 -1.6,-3.9c0,-1.5 0.6,-2.9 1.6,-3.9c0.2,-0.2 0.5,-0.2 0.7,0c0.2,0.2 0.2,0.5 0,0.7c-0.9,0.8 -1.3,2 -1.3,3.2c0,1.2 0.5,2.3 1.3,3.2c0.2,0.2 0.2,0.5 0,0.7c-0.1,1.77636e-15 -0.2,0.1 -0.3,0.1Z"></path><path d="M16.7,15.5c-0.1,0 -0.3,0 -0.4,-0.1c-3.1,-3.1 -3.1,-8.2 0,-11.3c0.2,-0.2 0.5,-0.2 0.7,0c0.2,0.2 0.2,0.5 0,0.7c-2.7,2.7 -2.7,7.2 0,9.9c0.2,0.2 0.2,0.5 0,0.7c0,1.77636e-15 -0.2,0.1 -0.3,0.1Z"></path><path d="M19.4,12.3c-0.1,0 -0.3,0 -0.4,-0.1c-0.7,-0.7 -1,-1.5 -1,-2.5c0,-1 0.4,-1.8 1,-2.5c0.2,-0.2 0.5,-0.2 0.7,0c0.2,0.2 0.2,0.5 0,0.7c-0.4,0.5 -0.7,1.1 -0.7,1.8c0,0.7 0.3,1.3 0.7,1.8c0.2,0.2 0.2,0.5 0,0.7c-0.1,0 -0.2,0.1 -0.3,0.1Z"></path></g></svg>