<?xml version="1.0" encoding="UTF-8"?><svg version="1.1" viewBox="0 0 30 30" xmlns="http://www.w3.org/2000/svg" xmlns:xlink="http://www.w3.org/1999/xlink"><!--Generated by IJSVG (https://github.com/iconjar/IJSVG)--><g stroke-linecap="round" stroke-width="1" stroke="#4B286D" fill="none" stroke-linejoin="round"><path d="M29.5,3.022v10.087c0,0.693 -0.277,1.324 -0.744,1.778l-13.87,13.87l1.35857e-08,-1.39413e-08c-0.466998,0.479223 -1.10888,0.747815 -1.778,0.744l-4.86602e-08,2.60652e-10c-0.669078,0.00358396 -1.31087,-0.264972 -1.778,-0.744l-10.086,-10.088c-0.467,-0.454 -0.744,-1.084 -0.744,-1.778c0,-0.694 0.277,-1.324 0.744,-1.778l0.176,-0.163l13.53,-13.53c0.05,-0.063 0.1,-0.113 0.164,-0.176l-7.47055e-08,7.67401e-08c0.466558,-0.479265 1.10815,-0.74789 1.777,-0.744h10.087l1.3345e-07,4.21295e-10c1.39104,0.00439149 2.51761,1.13096 2.522,2.522Z"></path><path d="M24.9142,5.08579c0.781049,0.781049 0.781049,2.04738 0,2.82843c-0.781049,0.781049 -2.04738,0.781049 -2.82843,0c-0.781049,-0.781049 -0.781049,-2.04738 0,-2.82843c0.781049,-0.781049 2.04738,-0.781049 2.82843,-8.88178e-16"></path></g></svg>