<?xml version="1.0" encoding="UTF-8"?>
<svg id="Layer_1" data-name="Layer 1" xmlns="http://www.w3.org/2000/svg" viewBox="0 0 30 30">
  <defs>
    <style>
      .cls-1 {
        fill: none;
        stroke: #4b286d;
        stroke-linecap: round;
        stroke-linejoin: round;
      }
    </style>
  </defs>
  <circle class="cls-1" cx="15.86" cy="3.48" r="1.86"/>
  <circle class="cls-1" cx="25.81" cy="27.01" r="2.1"/>
  <path class="cls-1" d="M12.22,27.44c-.2.96-1.04,1.68-2.06,1.68-1.16,0-2.1-.94-2.1-2.1,0-.39.11-.76.29-1.07h2.3l1.56,1.49Z"/>
  <line class="cls-1" x1="23.78" y1="27.53" x2="12.11" y2="27.53"/>
  <polyline class="cls-1" points="23.89 25.94 13.16 25.94 11.1 24.13 7.82 24.13"/>
  <path class="cls-1" d="M15.86,12.9v3.38s-1.87,0-2.02,0c-.62,0-1.48-.05-1.82-.66-.41-.73,0-2.17.06-2.98.1-1.32-.06-2.74.28-4.03.21-.78.54-2.57,2.27-2.21"/>
  <path class="cls-1" d="M15.86,9.75c0-.96-.2-2.9-1.22-3.37"/>
  <polyline class="cls-1" points="15 9.19 17.03 11.34 18.31 10.45 19.43 11.81 16.86 13.52 14.63 11.34"/>
  <line class="cls-1" x1="12.9" y1="16.28" x2="12.9" y2="25.6"/>
  <line class="cls-1" x1="15.24" y1="25.79" x2="15.24" y2="16.33"/>
  <line class="cls-1" x1="9.78" y1="11.95" x2="1.37" y2="11.95"/>
  <line class="cls-1" x1="10.14" y1="14.8" x2="4.39" y2="14.8"/>
  <line class="cls-1" x1="10.69" y1="17.61" x2="7.26" y2="17.61"/>
  <path class="cls-1" d="M7.96,24.13c-.5,0-.91.41-.91.91s.41.91.91.91h.77"/>
  <polyline class="cls-1" points="24.73 24.91 21.75 11.95 19.43 11.95 18.31 10.45 22.94 10.45"/>
  <line class="cls-1" x1="22.94" y1="10.45" x2="26.1" y2="24.62"/>
  <line class="cls-1" x1="12.9" y1="20.59" x2="10.48" y2="24.1"/>
</svg>