<?xml version="1.0" encoding="UTF-8"?><svg version="1.1" viewBox="0 0 30 30" xmlns="http://www.w3.org/2000/svg" xmlns:xlink="http://www.w3.org/1999/xlink"><!--Generated by IJSVG (https://github.com/iconjar/IJSVG)--><path d="M29.9,14.1l-3.9,-3.8v-9.8c0,-0.3 -0.2,-0.5 -0.5,-0.5h-5c-0.3,0 -0.5,0.2 -0.5,0.5v3.7l-3.6,-3.6c-0.8,-0.8 -2.1,-0.8 -2.9,0l-13.4,13.5c-0.1,0.2 -0.1,0.4 -0.1,0.6c0.1,0.2 0.3,0.3 0.5,0.3h3.5v14.5c0,0.3 0.2,0.5 0.5,0.5h21c0.3,0 0.5,-0.2 0.5,-0.5v-14.5h3.5c0.2,0 0.4,-0.1 0.5,-0.3c0,-0.2 0,-0.4 -0.1,-0.6Zm-4.4,-0.1c-0.3,0 -0.5,0.2 -0.5,0.5v14.5h-20v-14.5c0,-0.3 -0.2,-0.5 -0.5,-0.5h-2.8l12.6,-12.7c0.4,-0.4 1.1,-0.4 1.4,-8.88178e-16l4.4,4.5c0.1,0.1 0.4,0.2 0.5,0.1c0.3,-0.1 0.4,-0.3 0.4,-0.5v-4.4h4v9.5c0,0.1 0.1,0.3 0.1,0.4l3.2,3.2l-2.8,-0.1v0Z" fill="#4B286D"></path><path fill="none" stroke="#4B286D" stroke-linecap="round" stroke-linejoin="round" stroke-width="1" d="M20.1,26.3h-10.2c-0.6,0 -1.1,-0.5 -1.1,-1.1v-7.5c0,-0.6 0.5,-1.1 1.1,-1.1h10.2c0.6,0 1.1,0.5 1.1,1.1v7.5c-3.55271e-15,0.6 -0.5,1.1 -1.1,1.1Z"></path><g stroke-linecap="round" stroke-width="1" stroke="#4B286D" fill="none" stroke-linejoin="round"><path d="M15.7778,19.6222c0.429577,0.429577 0.429577,1.12606 0,1.55563c-0.429577,0.429577 -1.12606,0.429577 -1.55563,0c-0.429577,-0.429577 -0.429577,-1.12606 -1.77636e-15,-1.55563c0.429577,-0.429577 1.12606,-0.429577 1.55563,0"></path><path d="M15,21.7v2.1m-4,-7.2v-1.9c0,-2.2 1.8,-4 4,-4c2.2,0 4,1.8 4,4v1.9"></path></g></svg>