<?xml version="1.0" encoding="UTF-8"?><svg version="1.1" viewBox="0 0 30 30" xmlns="http://www.w3.org/2000/svg" xmlns:xlink="http://www.w3.org/1999/xlink"><!--Generated by IJSVG (https://github.com/iconjar/IJSVG)--><path d="M17.5,29h-12.5v-14.5c0,-0.28 -0.22,-0.5 -0.5,-0.5h-2.8l12.58,-12.7c0.38,-0.38 1.07,-0.38 1.44,0l4.43,4.47c0.14,0.14 0.36,0.19 0.55,0.11c0.18,-0.09 0.3,-0.27 0.3,-0.47v-4.41h4v9.46c0,0.13 0.05,0.26 0.15,0.35l3.15,3.19h-2.8c-0.28,0 -0.5,0.22 -0.5,0.5c0,0.28 0.22,0.5 0.5,0.5h4c0.2,0 0.38,-0.12 0.46,-0.31c0.08,-0.19 0.04,-0.4 -0.11,-0.54l-3.85,-3.9v-9.75c0,-0.28 -0.22,-0.5 -0.5,-0.5h-5c-0.28,0 -0.5,0.22 -0.5,0.5v3.69l-3.57,-3.61c-0.75,-0.75 -2.1,-0.76 -2.86,0l-13.43,13.57c-0.14,0.14 -0.18,0.36 -0.1,0.54c0.08,0.19 0.26,0.31 0.46,0.31h3.5v14.5c0,0.28 0.22,0.5 0.5,0.5h13c0.28,0 0.5,-0.22 0.5,-0.5c0,-0.28 -0.22,-0.5 -0.5,-0.5Zm0,-5h-6.5v-8h8v0.5c0,0.28 0.22,0.5 0.5,0.5c0.28,0 0.5,-0.22 0.5,-0.5v-1c0,-0.28 -0.22,-0.5 -0.5,-0.5h-9c-0.28,0 -0.5,0.22 -0.5,0.5v9c0,0.28 0.22,0.5 0.5,0.5h7c0.28,0 0.5,-0.22 0.5,-0.5c0,-0.28 -0.22,-0.5 -0.5,-0.5Z" fill="#4B286D"></path><path fill="none" stroke="#4B286D" stroke-linecap="round" stroke-linejoin="round" stroke-width="1" d="M28.67,29.5h-8.35c-0.49,0 -0.88,-0.39 -0.88,-0.88v-6.15c0,-0.49 0.39,-0.88 0.88,-0.88h8.35c0.49,0 0.88,0.39 0.88,0.88v6.15c0,0.49 -0.39,0.88 -0.88,0.88Z"></path><g stroke-linecap="round" stroke-width="1" stroke="#4B286D" fill="none" stroke-linejoin="round"><path d="M25.1223,24.0477c0.343661,0.343661 0.343661,0.900847 0,1.24451c-0.343661,0.343661 -0.900847,0.343661 -1.24451,0c-0.343661,-0.343661 -0.343661,-0.900847 0,-1.24451c0.343661,-0.343661 0.900847,-0.343661 1.24451,0"></path><path d="M24.5,25.55v1.76m-3.29,-5.72v-1.54c0,-1.82 1.48,-3.29 3.29,-3.29c1.81,0 3.29,1.48 3.29,3.29v1.54"></path></g></svg>