<?xml version="1.0" encoding="UTF-8"?><svg version="1.1" viewBox="0 0 30 30" xmlns="http://www.w3.org/2000/svg" xmlns:xlink="http://www.w3.org/1999/xlink"><!--Generated by IJSVG (https://github.com/iconjar/IJSVG)--><path d="M4.5,19.499c0.827,0 1.5,-0.673 1.5,-1.5c0,-0.827 -0.673,-1.5 -1.5,-1.5c-0.827,0 -1.5,0.673 -1.5,1.5c0,0.827 0.673,1.5 1.5,1.5Zm0,-2c0.276,0 0.5,0.224 0.5,0.5c0,0.276 -0.224,0.5 -0.5,0.5c-0.276,0 -0.5,-0.224 -0.5,-0.5c0,-0.276 0.224,-0.5 0.5,-0.5Zm18,2c0.276,0 0.5,-0.224 0.5,-0.5v-2c0,-0.276 -0.224,-0.5 -0.5,-0.5c-0.276,0 -0.5,0.224 -0.5,0.5v2c0,0.276 0.224,0.5 0.5,0.5Zm-3,0c0.276,0 0.5,-0.224 0.5,-0.5v-2c0,-0.276 -0.224,-0.5 -0.5,-0.5c-0.276,0 -0.5,0.224 -0.5,0.5v2c0,0.276 0.224,0.5 0.5,0.5Zm-3,0c0.276,0 0.5,-0.224 0.5,-0.5v-2c0,-0.276 -0.224,-0.5 -0.5,-0.5c-0.276,0 -0.5,0.224 -0.5,0.5v2c0,0.276 0.224,0.5 0.5,0.5Zm9,0c0.276,0 0.5,-0.224 0.5,-0.5v-2c0,-0.276 -0.224,-0.5 -0.5,-0.5c-0.276,0 -0.5,0.224 -0.5,0.5v2c0,0.276 0.224,0.5 0.5,0.5Zm-3,-14c-0.276,8.88178e-16 -0.5,0.224 -0.5,0.5v2c0,0.276 0.224,0.5 0.5,0.5c0.276,0 0.5,-0.224 0.5,-0.5v-2c0,-0.276 -0.224,-0.5 -0.5,-0.5Zm3,8.88178e-16c-0.276,0 -0.5,0.224 -0.5,0.5v2c0,0.276 0.224,0.5 0.5,0.5c0.276,0 0.5,-0.224 0.5,-0.5v-2c0,-0.276 -0.224,-0.5 -0.5,-0.5Zm1.406,6c1.705,0 3.093,-1.388 3.093,-3.093v-2.813c0.001,-1.705 -1.387,-3.093 -3.093,-3.093h-23.812c-1.706,0 -3.094,1.387 -3.094,3.093v2.813c0,1.705 1.387,3.093 3.093,3.093h7.907v2.001h-7.906c-1.706,0 -3.094,1.387 -3.094,3.093v2.813c0,1.705 1.387,3.093 3.093,3.093h7.907v1h-0.5c-0.276,0 -0.5,0.224 -0.5,0.5v0.5h-0.5c-0.276,0 -0.5,0.224 -0.5,0.5v0.5h-6.5c-0.276,0 -0.5,0.224 -0.5,0.5c0,0.276 0.224,0.5 0.5,0.5h6.5v0.5c0,0.276 0.224,0.5 0.5,0.5h4c0.276,0 0.5,-0.224 0.5,-0.5v-0.5h6.5c0.276,0 0.5,-0.224 0.5,-0.5c0,-0.276 -0.224,-0.5 -0.5,-0.5h-6.5v-0.5c0,-0.276 -0.224,-0.5 -0.5,-0.5h-0.5v-0.5c0,-0.276 -0.224,-0.5 -0.5,-0.5h-0.5v-1h14.907c1.705,0 3.093,-1.388 3.093,-3.093v-2.813c0,-1.705 -1.387,-3.093 -3.093,-3.093h-14.907v-2.001h14.906Zm-14.406,14h0.5v1h-3v-1h0.5c0.276,0 0.5,-0.224 0.5,-0.5v-0.5h1v0.5c0,0.276 0.224,0.5 0.5,0.5Zm14.406,-11c1.154,0 2.093,0.939 2.093,2.093v2.813c0,1.154 -0.939,2.093 -2.093,2.093h-23.813c-1.154,3.55271e-15 -2.093,-0.939 -2.093,-2.093v-2.813c0,-1.154 0.939,-2.093 2.093,-2.093h23.813Zm-23.813,-4.001c-1.154,0 -2.093,-0.939 -2.093,-2.093v-2.813c0,-1.154 0.939,-2.093 2.093,-2.093h23.813c1.154,0 2.093,0.939 2.093,2.093v2.813c0,1.154 -0.939,2.093 -2.093,2.093h-23.813Zm1.407,-4.999c-0.827,0 -1.5,0.673 -1.5,1.5c0,0.827 0.673,1.5 1.5,1.5c0.827,0 1.5,-0.673 1.5,-1.5c0,-0.827 -0.673,-1.5 -1.5,-1.5Zm0,2c-0.276,0 -0.5,-0.224 -0.5,-0.5c0,-0.276 0.224,-0.5 0.5,-0.5c0.276,0 0.5,0.224 0.5,0.5c0,0.276 -0.224,0.5 -0.5,0.5Zm12,-2c-0.276,0 -0.5,0.224 -0.5,0.5v2c0,0.276 0.224,0.5 0.5,0.5c0.276,0 0.5,-0.224 0.5,-0.5v-2c0,-0.276 -0.224,-0.5 -0.5,-0.5Zm3,0c-0.276,0 -0.5,0.224 -0.5,0.5v2c0,0.276 0.224,0.5 0.5,0.5c0.276,0 0.5,-0.224 0.5,-0.5v-2c0,-0.276 -0.224,-0.5 -0.5,-0.5Z" fill="#4B286D"></path></svg>