<?xml version="1.0" encoding="UTF-8"?><svg version="1.1" viewBox="0 0 30 30" xmlns="http://www.w3.org/2000/svg" xmlns:xlink="http://www.w3.org/1999/xlink"><!--Generated by IJSVG (https://github.com/iconjar/IJSVG)--><path d="M20.674,18.153l-1.01533e-07,-8.06111e-11c4.87115,0.00386758 8.82313,-3.94184 8.827,-8.81299c3.7067e-06,-0.00466852 3.70675e-06,-0.00933704 1.61226e-10,-0.0140056l-1.89308e-08,3.97791e-06c0.00480927,-1.01052 -0.170253,-2.01382 -0.516998,-2.963l-4.199,4.212l-4.01,-1.349l-1.349,-4.01l4.212,-4.199l-6.16817e-07,-2.25215e-07c-0.949219,-0.346583 -1.9525,-0.521642 -2.963,-0.517005l3.8189e-07,3.03217e-10c-4.87115,-0.00386774 -8.82313,3.94184 -8.827,8.81299c-3.70685e-06,0.00466852 -3.70705e-06,0.00933704 -6.06416e-10,0.0140056c0,0.773 0.096,1.519 0.282,2.229c0.231,0.882 0.034,1.819 -0.611,2.463l-10.1,10.098l-1.28556e-07,1.29975e-07c-1.22314,1.23664 -1.22314,3.22736 2.57111e-07,4.464l1.03065e-07,1.01939e-07c1.23664,1.22314 3.22736,1.22314 4.464,-2.03878e-07l10.099,-10.099c0.644,-0.644 1.582,-0.842 2.463,-0.611c0.71,0.186 1.456,0.282 2.229,0.282Z" stroke-linecap="round" stroke-width="1" stroke="#4B286D" fill="none" stroke-linejoin="round"></path></svg>