<?xml version="1.0" encoding="UTF-8"?><svg version="1.1" viewBox="0 0 30 30" xmlns="http://www.w3.org/2000/svg" xmlns:xlink="http://www.w3.org/1999/xlink"><!--Generated by IJSVG (https://github.com/iconjar/IJSVG)--><g stroke-linecap="round" stroke-width="1" stroke="#4B286D" fill="none" stroke-linejoin="round"><path d="M28.504,20.611l-1.891,3.278l6.23871e-08,-1.08032e-07c-0.695448,1.20427 -2.23547,1.61675 -3.43975,0.921304c-0.000751796,-0.000434151 -0.00150337,-0.00086869 -0.00225471,-0.00130362l-1.916,-1.11l-9.30672e-08,6.7911e-08c-0.573568,0.418532 -1.19085,0.773609 -1.841,1.059v2.219l9.2035e-08,-2.92053e-05c-0.00437557,1.39104 -1.13093,2.51762 -2.52197,2.52203h-3.783l3.46365e-08,1.09353e-10c-1.39104,-0.00439161 -2.51761,-1.13096 -2.522,-2.522v-2.219l-2.8133e-07,-1.23611e-07c-0.650041,-0.285616 -1.2673,-0.640679 -1.841,-1.059l-1.91603,1.111l1.58593e-07,-9.18042e-08c-1.20355,0.696694 -2.744,0.285805 -3.4407,-0.917745c-0.000434928,-0.000751346 -0.000869468,-0.00150292 -0.00130362,-0.00225471l-1.891,-3.278l5.55965e-08,9.68371e-08c-0.691894,-1.20513 -0.280899,-2.74279 0.92,-3.442l1.916,-1.109c-0.038,-0.353 -0.05,-0.706 -0.05,-1.059c0,-0.353 0.013,-0.706 0.05,-1.059l-1.916,-1.109l-4.04447e-07,-2.35059e-07c-1.20184,-0.698493 -1.61307,-2.23702 -0.919999,-3.442l1.891,-3.278l-1.23375e-07,2.14717e-07c0.692281,-1.20482 2.23019,-1.62031 3.43501,-0.928034c0.00233342,0.00134077 0.00466468,0.00268527 0.00699379,0.00403352l1.916,1.11l3.45166e-07,-2.51867e-07c0.573568,-0.418532 1.19085,-0.773609 1.841,-1.059v-2.219l-9.14427e-08,2.9017e-05c0.00437568,-1.39104 1.13093,-2.51762 2.52197,-2.52203h3.783l4.57829e-08,1.44546e-10c1.39104,0.00439166 2.51761,1.13096 2.522,2.522v2.219l-1.21707e-07,-5.34747e-08c0.650051,0.285614 1.26731,0.640677 1.84103,1.059l1.916,-1.11l-8.93235e-08,5.17063e-08c1.20355,-0.696694 2.744,-0.285805 3.4407,0.917745c0.000434928,0.000751346 0.000869468,0.00150292 0.00130362,0.00225471l1.891,3.278l5.93912e-08,1.03447e-07c0.691894,1.20513 0.280898,2.74279 -0.92,3.442l-1.916,1.109c0.038,0.353 0.05,0.706 0.05,1.059c0,0.353 -0.013,0.706 -0.05,1.059l1.916,1.109l5.95056e-08,3.46935e-08c1.20128,0.700381 1.61217,2.23897 0.92,3.445Z"></path><path d="M18.8891,11.1109c2.14788,2.14788 2.14788,5.63029 0,7.77817c-2.14788,2.14788 -5.63029,2.14788 -7.77817,0c-2.14788,-2.14788 -2.14788,-5.63029 -1.77636e-15,-7.77817c2.14788,-2.14788 5.63029,-2.14788 7.77817,-1.77636e-15"></path></g></svg>