<?xml version="1.0" encoding="UTF-8"?><svg version="1.1" viewBox="0 0 30 30" xmlns="http://www.w3.org/2000/svg" xmlns:xlink="http://www.w3.org/1999/xlink"><!--Generated by IJSVG (https://github.com/iconjar/IJSVG)--><g stroke-linecap="round" stroke-width="1" stroke="#4B286D" fill="none" stroke-linejoin="round"><path d="M27.5,14.5h-25l-8.74228e-08,-3.55271e-15c-1.10457,-4.82823e-08 -2,-0.895431 -2,-2c0,0 0,0 0,0v-3l5.044,-5h18.912l5.044,5v3v0c0,1.10457 -0.895431,2 -2,2Zm-22,-10v-3l1.06581e-14,1.50996e-07c-8.33927e-08,-0.552285 0.447715,-1 1,-1h17l-4.37114e-08,3.55271e-15c0.552285,-2.41411e-08 1,0.447715 1,1v3m-21,10v13l2.13163e-14,3.01992e-07c1.66785e-07,1.10457 0.895431,2 2,2h20l-8.74228e-08,-3.55271e-15c1.10457,4.82823e-08 2,-0.89543 2,-2v-13"></path><path d="M16.5,29.5v-10h6v10m-16,-10h6v5h-6Z"></path></g></svg>