<?xml version="1.0" encoding="UTF-8"?><svg version="1.1" viewBox="0 0 30 30" xmlns="http://www.w3.org/2000/svg" xmlns:xlink="http://www.w3.org/1999/xlink"><!--Generated by IJSVG (https://github.com/iconjar/IJSVG)--><g fill="#4B286D"><path d="M4.913,13.592c-2.709,0 -4.913,-2.196 -4.913,-4.896v-0.196c0,-0.276 0.224,-0.5 0.5,-0.5c0.276,0 0.5,0.224 0.5,0.5v0.196c0,2.148 1.756,3.896 3.913,3.896c0.805,0 1.59,-0.256 2.27,-0.741c0.224,-0.16 0.537,-0.109 0.697,0.116c0.16,0.225 0.108,0.537 -0.117,0.697c-0.85,0.607 -1.835,0.928 -2.85,0.928Z"></path><path d="M11.218,14.87c-1.706,0 -3.266,-0.865 -4.171,-2.314c-0.146,-0.234 -0.075,-0.543 0.159,-0.689c0.232,-0.146 0.542,-0.076 0.688,0.159c0.722,1.155 1.964,1.845 3.323,1.845c1.385,0 2.639,-0.709 3.354,-1.897c0.145,-0.236 0.453,-0.312 0.687,-0.17c0.236,0.143 0.313,0.45 0.171,0.686c-0.898,1.489 -2.473,2.38 -4.211,2.38Z"></path><path d="M18.782,14.87c-1.715,0 -3.329,-0.914 -4.213,-2.385c-0.143,-0.236 -0.065,-0.543 0.171,-0.686c0.238,-0.14 0.545,-0.065 0.687,0.171c0.715,1.189 1.969,1.899 3.355,1.899c1.359,0 2.602,-0.689 3.322,-1.843c0.146,-0.235 0.457,-0.304 0.688,-0.16c0.234,0.146 0.306,0.455 0.159,0.689c-0.903,1.45 -2.462,2.315 -4.169,2.315Z"></path><path d="M25.087,13.592c-1.012,0 -1.995,-0.319 -2.845,-0.923c-0.225,-0.16 -0.277,-0.472 -0.117,-0.697c0.16,-0.225 0.473,-0.277 0.697,-0.117c0.679,0.482 1.462,0.738 2.265,0.738c2.157,0 3.913,-1.748 3.913,-3.896v-0.197c0,-0.276 0.224,-0.5 0.5,-0.5c0.276,0 0.5,0.224 0.5,0.5v0.196c0,2.7 -2.204,4.896 -4.913,4.896Z"></path><path d="M7.5,13c-0.276,0 -0.5,-0.224 -0.5,-0.5v-4c0,-0.276 0.224,-0.5 0.5,-0.5c0.276,0 0.5,0.224 0.5,0.5v4c0,0.276 -0.224,0.5 -0.5,0.5Z"></path><path d="M15,13c-0.276,0 -0.5,-0.224 -0.5,-0.5v-9c0,-0.276 0.224,-0.5 0.5,-0.5c0.276,0 0.5,0.224 0.5,0.5v9c0,0.276 -0.224,0.5 -0.5,0.5Z"></path><path d="M22.5,13c-0.276,0 -0.5,-0.224 -0.5,-0.5v-4c0,-0.276 0.224,-0.5 0.5,-0.5c0.276,0 0.5,0.224 0.5,0.5v4c0,0.276 -0.224,0.5 -0.5,0.5Z"></path><path d="M29.5,9h-29c-0.276,0 -0.5,-0.224 -0.5,-0.5c0,-0.276 0.224,-0.5 0.5,-0.5h29c0.276,0 0.5,0.224 0.5,0.5c0,0.276 -0.224,0.5 -0.5,0.5Z"></path><path d="M29.5,8.924c-0.149,0 -0.298,-0.067 -0.396,-0.195l-3.632,-4.729h-20.947l-3.632,4.613c-0.171,0.219 -0.486,0.255 -0.703,0.084c-0.217,-0.171 -0.254,-0.485 -0.083,-0.702l3.783,-4.804c0.094,-0.121 0.239,-0.191 0.392,-0.191h21.436c0.155,0 0.302,0.072 0.396,0.195l3.782,4.924c0.168,0.219 0.127,0.533 -0.092,0.701c-0.09,0.07 -0.198,0.104 -0.304,0.104Z"></path><path d="M25.5,27h-21c-0.276,0 -0.5,-0.224 -0.5,-0.5v-13.43c0,-0.276 0.224,-0.5 0.5,-0.5c0.276,0 0.5,0.223 0.5,0.5v12.93h20v-12.93c0,-0.276 0.224,-0.5 0.5,-0.5c0.276,0 0.5,0.224 0.5,0.5v13.43c0,0.276 -0.224,0.5 -0.5,0.5Z"></path><path d="M23.5,27h-7c-0.276,0 -0.5,-0.224 -0.5,-0.5v-10c0,-0.276 0.224,-0.5 0.5,-0.5h7c0.276,0 0.5,0.224 0.5,0.5v10c0,0.276 -0.224,0.5 -0.5,0.5Zm-6.5,-1h6v-9h-6v9Z"></path><path d="M14.5,22h-8c-0.276,0 -0.5,-0.224 -0.5,-0.5v-5c0,-0.276 0.224,-0.5 0.5,-0.5h8c0.276,0 0.5,0.224 0.5,0.5v5c0,0.276 -0.224,0.5 -0.5,0.5Zm-7.5,-1h7v-4h-7v4Z"></path><path d="M7.435,9.065c-0.075,0 -0.151,-0.017 -0.224,-0.053c-0.247,-0.123 -0.347,-0.423 -0.224,-0.67l2.521,-5.043c0.124,-0.248 0.424,-0.346 0.671,-0.224c0.247,0.124 0.347,0.424 0.224,0.671l-2.521,5.043c-0.088,0.175 -0.265,0.276 -0.447,0.276Z"></path><path d="M22.565,9.065c-0.183,0 -0.359,-0.101 -0.447,-0.276l-2.521,-5.043c-0.123,-0.247 -0.023,-0.547 0.224,-0.671c0.248,-0.123 0.547,-0.024 0.671,0.224l2.521,5.043c0.123,0.247 0.023,0.547 -0.224,0.671c-0.072,0.035 -0.148,0.052 -0.224,0.052Z"></path></g></svg>