<?xml version="1.0" encoding="UTF-8"?><svg version="1.1" viewBox="0 0 30 30" xmlns="http://www.w3.org/2000/svg" xmlns:xlink="http://www.w3.org/1999/xlink"><!--Generated by IJSVG (https://github.com/iconjar/IJSVG)--><g fill="#4B286D"><path d="M24,29c-1.654,0 -3,-1.346 -3,-3c0,-1.654 1.346,-3 3,-3c1.654,0 3,1.346 3,3c0,1.654 -1.346,3 -3,3Zm0,-5c-1.103,0 -2,0.897 -2,2c0,1.103 0.897,2 2,2c1.103,0 2,-0.897 2,-2c0,-1.103 -0.897,-2 -2,-2Z"></path><path d="M11,29c-1.654,0 -3,-1.346 -3,-3c0,-1.654 1.346,-3 3,-3c1.654,0 3,1.346 3,3c0,1.654 -1.346,3 -3,3Zm0,-5c-1.103,0 -2,0.897 -2,2c0,1.103 0.897,2 2,2c1.103,0 2,-0.897 2,-2c0,-1.103 -0.897,-2 -2,-2Z"></path><path d="M27,21h-15.834c-2.029,0 -3.795,-1.466 -4.199,-3.486l-3.094,-15.514h-3.373c-0.276,0 -0.5,-0.224 -0.5,-0.5c0,-0.276 0.224,-0.5 0.5,-0.5h3.783c0.238,0 0.444,0.168 0.49,0.402l3.174,15.916c0.311,1.554 1.665,2.682 3.219,2.682h15.834c0.276,0 0.5,0.224 0.5,0.5c0,0.276 -0.224,0.5 -0.5,0.5Z"></path><path d="M7.319,17.22c-0.25,0 -0.466,-0.187 -0.496,-0.441c-0.033,-0.274 0.163,-0.523 0.438,-0.556l19.96,-2.38c0.359,-0.038 0.617,-0.278 0.664,-0.613l1.038,-7.23h-23.843c-0.276,0 -0.5,-0.224 -0.5,-0.5c0,-0.276 0.224,-0.5 0.5,-0.5h24.42c0.145,0 0.283,0.063 0.378,0.172c0.095,0.11 0.138,0.255 0.117,0.399l-1.12,7.8c-0.111,0.791 -0.731,1.38 -1.543,1.466l-19.953,2.38c-0.02,0.002 -0.04,0.003 -0.06,0.003Z"></path></g></svg>