<?xml version="1.0" encoding="UTF-8"?><svg version="1.1" viewBox="0 0 30 30" xmlns="http://www.w3.org/2000/svg" xmlns:xlink="http://www.w3.org/1999/xlink"><!--Generated by IJSVG (https://github.com/iconjar/IJSVG)--><g stroke-linecap="round" stroke-width="1" stroke="#4B286D" fill="none" stroke-linejoin="round"><path d="M24.419,11.5h-21.919l-4.37114e-08,-1.77636e-15c-0.552285,-2.41411e-08 -1,-0.447715 -1,-1c0,0 0,0 0,0v-6l1.42109e-14,1.50996e-07c-8.33927e-08,-0.552285 0.447715,-1 1,-1h21.919c0.265,0 0.52,0.105 0.707,0.293l3,3l2.61975e-08,2.6153e-08c0.390465,0.389802 0.391003,1.02233 0.00120111,1.4128c-0.000400047,0.000400728 -0.000800434,0.000801115 -0.00120116,0.00120116l-3,3l1.65269e-08,-1.65732e-08c-0.187305,0.18783 -0.441739,0.293274 -0.707,0.293Zm-16.588,11h16.669h-4.37114e-08c0.552285,2.41411e-08 1,-0.447715 1,-1v-5v0c0,-0.552285 -0.447715,-1 -1,-1h-16.669l1.30476e-09,1.34648e-12c-0.265261,-0.000274021 -0.519695,0.10517 -0.707,0.293l-2.5,2.5l-3.72445e-09,3.71812e-09c-0.390465,0.389802 -0.391003,1.02233 -0.00120115,1.4128c0.000400047,0.000400728 0.000800434,0.000801115 0.00120116,0.00120116l2.5,2.5l5.85079e-09,5.86717e-09c0.187305,0.18783 0.441739,0.293274 0.707,0.293Z"></path><path d="M17.5,22.5v6c0,0.55 -0.45,1 -1,1h-2c-0.55,0 -1,-0.45 -1,-1v-6m4,-7v-4m-4,4v-4m4,-8v-2c0,-0.55 -0.45,-1 -1,-1h-2c-0.55,0 -1,0.45 -1,1v2"></path></g></svg>