<?xml version="1.0" encoding="UTF-8"?><svg version="1.1" viewBox="0 0 30 30" xmlns="http://www.w3.org/2000/svg" xmlns:xlink="http://www.w3.org/1999/xlink"><!--Generated by IJSVG (https://github.com/iconjar/IJSVG)--><g fill="#4B286D"><path d="M22.5,30h-15c-1.7,0 -3,-1.3 -3,-3v-20.5c0,-0.1 0.1,-0.3 0.1,-0.4l6,-6c0.1,3.60822e-16 0.3,-0.1 0.4,-0.1h11.5c1.7,0 3,1.3 3,3v24c0,1.7 -1.3,3 -3,3Zm-17,-23.3v20.3c0,1.1 0.9,2 2,2h15c1.1,0 2,-0.9 2,-2v-24c0,-1.1 -0.9,-2 -2,-2h-11.3l-5.7,5.7Z"></path><path d="M20,26h-10c-0.8,0 -1.5,-0.7 -1.5,-1.5v-13c0,-0.8 0.7,-1.5 1.5,-1.5h10c0.8,0 1.5,0.7 1.5,1.5v13c0,0.8 -0.7,1.5 -1.5,1.5Zm-10,-15c-0.3,0 -0.5,0.2 -0.5,0.5v13c0,0.3 0.2,0.5 0.5,0.5h10c0.3,0 0.5,-0.2 0.5,-0.5v-13c0,-0.3 -0.2,-0.5 -0.5,-0.5h-10Z"></path><path d="M21,18h-12c-0.3,0 -0.5,-0.2 -0.5,-0.5c0,-0.3 0.2,-0.5 0.5,-0.5h12c0.3,0 0.5,0.2 0.5,0.5c0,0.3 -0.2,0.5 -0.5,0.5Z"></path><path d="M12,15c-0.3,0 -0.5,-0.2 -0.5,-0.5v-4c0,-0.3 0.2,-0.5 0.5,-0.5c0.3,0 0.5,0.2 0.5,0.5v4c0,0.3 -0.2,0.5 -0.5,0.5Z"></path><path d="M15,18c-0.3,0 -0.5,-0.2 -0.5,-0.5v-3c0,-0.3 0.2,-0.5 0.5,-0.5c0.3,0 0.5,0.2 0.5,0.5v3c0,0.3 -0.2,0.5 -0.5,0.5Z"></path><path d="M18,15c-0.3,0 -0.5,-0.2 -0.5,-0.5v-4c0,-0.3 0.2,-0.5 0.5,-0.5c0.3,0 0.5,0.2 0.5,0.5v4c0,0.3 -0.2,0.5 -0.5,0.5Z"></path><path d="M15,26c-0.3,0 -0.5,-0.2 -0.5,-0.5v-4c0,-0.3 0.2,-0.5 0.5,-0.5c0.3,0 0.5,0.2 0.5,0.5v4c0,0.3 -0.2,0.5 -0.5,0.5Z"></path><path d="M12,22c-0.3,0 -0.5,-0.2 -0.5,-0.5v-3.5c0,-0.3 0.2,-0.5 0.5,-0.5c0.3,0 0.5,0.2 0.5,0.5v3.5c0,0.3 -0.2,0.5 -0.5,0.5Z"></path><path d="M18,22c-0.3,0 -0.5,-0.2 -0.5,-0.5v-4c0,-0.3 0.2,-0.5 0.5,-0.5c0.3,0 0.5,0.2 0.5,0.5v4c0,0.3 -0.2,0.5 -0.5,0.5Z"></path></g></svg>