<?xml version="1.0" encoding="UTF-8"?>
<svg id="Layer_1" data-name="Layer 1" xmlns="http://www.w3.org/2000/svg" viewBox="0 0 30 30">
  <defs>
    <style>
      .cls-1 {
        fill: none;
        stroke: #4b286d;
        stroke-linecap: round;
        stroke-linejoin: round;
      }
    </style>
  </defs>
  <path class="cls-1" d="M11.6,22.03c.46.48,1.42,1.32,1.36,2.07-.05.56-.69.73-1.16.78-.59.06-1.38.09-1.82.57-.65.7.53,1.86.91,2.41"/>
  <path class="cls-1" d="M16.04,22.3c.46.48,1.42,1.32,1.36,2.07-.05.56-.69.73-1.16.78-.59.06-1.38.09-1.82.57-.65.7.53,1.86.91,2.41"/>
  <g>
    <g>
      <path class="cls-1" d="M24.45,20.69l-19.59-3.16c-.4-.06-.67-.44-.61-.84l.7-4.35c.19-1.2,1.33-2.02,2.53-1.83l16.69,2.69c1.2.19,2.02,1.33,1.83,2.53l-.7,4.35c-.06.4-.44.67-.84.61Z"/>
      <path class="cls-1" d="M7.9,21.75l-2.18-.35c-.4-.06-.67-.44-.61-.84l.47-2.9,3.63.58-.47,2.9c-.06.4-.44.67-.84.61Z"/>
      <path class="cls-1" d="M22.41,24.09l-2.18-.35c-.4-.06-.67-.44-.61-.84l.47-2.9,3.63.58-.47,2.9c-.06.4-.44.67-.84.61Z"/>
    </g>
    <path class="cls-1" d="M24.57,13.33l-1.52-6.1c-.14-.57-.61-1-1.19-1.1l-9.98-1.61c-.58-.09-1.16.17-1.48.67l-3.36,5.31"/>
    <circle class="cls-1" cx="8.64" cy="14.8" r="1.84"/>
    <circle class="cls-1" cx="21.71" cy="16.9" r="1.84"/>
    <line class="cls-1" x1="12.58" y1="15.8" x2="17.66" y2="16.62"/>
    <line class="cls-1" x1="12.81" y1="14.35" x2="17.89" y2="15.17"/>
  </g>
</svg>