<?xml version="1.0" encoding="UTF-8"?>
<svg id="Layer_1" data-name="Layer 1" xmlns="http://www.w3.org/2000/svg" viewBox="0 0 30 30">
  <defs>
    <style>
      .cls-1 {
        fill: none;
        stroke: #4b286d;
        stroke-linecap: round;
        stroke-linejoin: round;
      }

      .cls-2 {
        fill: #4b286d;
      }
    </style>
  </defs>
  <circle class="cls-2" cx="8.5" cy="9.04" r=".5"/>
  <circle class="cls-2" cx="10.01" cy="16.94" r=".5"/>
  <circle class="cls-2" cx="2.51" cy="18.42" r=".5"/>
  <path class="cls-1" d="M.73,29.4h28.43s0-4.41,0-4.42c0-1.75-1.42-2.48-2.98-2.65-1.18-.13-2.36.13-3.53,0-1.45-.17-2.67-1.01-4.02-1.47-1.56-.53-3.22-.56-4.84-.37-1.69.2-3.31.52-4.98.02-1.76-.53-3.47-.7-5.13.22-1.04.57-1.98,1.35-2.72,2.28-.08.1-.15.19-.19.31-.19.51.07,6.09-.03,6.09Z"/>
  <g>
    <polyline class="cls-1" points="15.61 7.48 14.81 8.82 12.39 12.86"/>
    <line class="cls-1" x1="16.86" y1="11.88" x2="11.2" y2="8.49"/>
    <polyline class="cls-1" points="16.69 8.76 14.87 8.71 13.99 7.15"/>
    <polyline class="cls-1" points="11.31 11.63 13.12 11.68 14.01 13.24"/>
    <polyline class="cls-1" points="15.43 12.88 15.48 11.07 17.04 10.19"/>
    <polyline class="cls-1" points="12.57 7.5 12.52 9.32 10.95 10.2"/>
  </g>
  <g>
    <polyline class="cls-1" points="8.13 12.57 6.61 12.96 2.05 14.1"/>
    <line class="cls-1" x1="5.9" y1="16.57" x2="4.29" y2="10.17"/>
    <polyline class="cls-1" points="7.98 14.24 6.74 12.92 7.22 11.19"/>
    <polyline class="cls-1" points="2.16 12.46 3.4 13.78 2.92 15.51"/>
    <polyline class="cls-1" points="4.18 16.27 5.5 15.02 7.23 15.5"/>
    <polyline class="cls-1" points="5.96 10.44 4.64 11.69 2.91 11.2"/>
  </g>
  <g>
    <polyline class="cls-1" points="23.44 22.37 24.92 19.33 15.79 14.9 13.18 20.27"/>
    <line class="cls-1" x1="20.36" y1="17.12" x2="24.99" y2="7.73"/>
    <path class="cls-1" d="M24.39,4.61l3.42,1.66-.32.67c-.43.89-1.51,1.26-2.4.83l-.2-.09c-.89-.43-1.26-1.51-.83-2.4l.32-.67Z"/>
    <line class="cls-1" x1="15.76" y1="20.05" x2="16.82" y2="17.86"/>
    <line class="cls-1" x1="21.2" y1="21.9" x2="21.95" y2="20.36"/>
    <line class="cls-1" x1="19.48" y1="21.1" x2="20.24" y2="19.53"/>
    <line class="cls-1" x1="17.72" y1="20.36" x2="18.53" y2="18.69"/>
  </g>
</svg>