<?xml version="1.0" encoding="UTF-8"?><svg version="1.1" viewBox="0 0 30 30" xmlns="http://www.w3.org/2000/svg" xmlns:xlink="http://www.w3.org/1999/xlink"><!--Generated by IJSVG (https://github.com/iconjar/IJSVG)--><g stroke-linecap="round" stroke-width="1" stroke="#4B286D" fill="none" stroke-linejoin="round"><path d="M23.5,29.5h-17h-8.74228e-08c-1.10457,-4.82823e-08 -2,-0.895431 -2,-2c0,0 0,0 0,0v-25l2.4869e-14,3.01992e-07c-1.66785e-07,-1.10457 0.89543,-2 2,-2h17h-8.74228e-08c1.10457,-4.82823e-08 2,0.89543 2,2v25v0c0,1.10457 -0.895431,2 -2,2Z"></path><path d="M19.5962,15.4038c2.53841,2.53841 2.53841,6.65398 0,9.19239c-2.53841,2.53841 -6.65398,2.53841 -9.19239,0c-2.53841,-2.53841 -2.53841,-6.65398 -1.77636e-15,-9.19239c2.53841,-2.53841 6.65398,-2.53841 9.19239,-1.77636e-15"></path><path d="M16.0607,18.9393c0.585786,0.585786 0.585786,1.53553 0,2.12132c-0.585786,0.585786 -1.53553,0.585786 -2.12132,0c-0.585786,-0.585786 -0.585786,-1.53553 0,-2.12132c0.585786,-0.585786 1.53553,-0.585786 2.12132,0"></path><path d="M17.1213,4.37868c1.17157,1.17157 1.17157,3.07107 0,4.24264c-1.17157,1.17157 -3.07107,1.17157 -4.24264,0c-1.17157,-1.17157 -1.17157,-3.07107 0,-4.24264c1.17157,-1.17157 3.07107,-1.17157 4.24264,-8.88178e-16"></path></g></svg>