<?xml version="1.0" encoding="UTF-8"?><svg version="1.1" viewBox="0 0 30 30" xmlns="http://www.w3.org/2000/svg" xmlns:xlink="http://www.w3.org/1999/xlink"><!--Generated by IJSVG (https://github.com/iconjar/IJSVG)--><g stroke-linecap="round" stroke-width="1" stroke="#4B286D" fill="none" stroke-linejoin="round"><path d="M25.253,4.74695c5.6626,5.6626 5.6626,14.8435 0,20.5061c-5.6626,5.6626 -14.8435,5.6626 -20.5061,3.55271e-15c-5.6626,-5.6626 -5.6626,-14.8435 -1.77636e-15,-20.5061c5.6626,-5.6626 14.8435,-5.6626 20.5061,-1.77636e-15"></path><path stroke-width="1.1196" d="M15,0.5v4m-14.5,10.5h4m21,0h4m-24.6,-10.1l2.7,2.7m14.9,-0.1l2.7,-2.7m3.2,15.7h-8c-0.8,0 -1.6,-0.5 -1.9,-1.3c-0.5,-1.5 -1.9,-2.5 -3.5,-2.5c-1.6,0 -3,1 -3.5,2.5c-0.3,0.8 -1.1,1.3 -1.9,1.3h-8m15.7,-3l6.9,-5.4"></path></g></svg>