<?xml version="1.0" encoding="UTF-8"?><svg version="1.1" viewBox="0 0 30 30" xmlns="http://www.w3.org/2000/svg" xmlns:xlink="http://www.w3.org/1999/xlink"><!--Generated by IJSVG (https://github.com/iconjar/IJSVG)--><g fill="#4B286D"><path d="M10,16c-5,0 -7.5,-3.2 -7.5,-9.5c0,-4.9 2.9,-6 4,-6c0.3,0 0.5,0.2 0.5,0.5c0,0.3 -0.2,0.5 -0.5,0.5c-0.8,0 -3,0.9 -3,5c0,5.7 2.1,8.5 6.5,8.5c0.3,0 0.5,0.2 0.5,0.5c0,0.3 -0.2,0.5 -0.5,0.5Z"></path><path d="M19,30h-4c-3,0 -5.5,-2.5 -5.5,-5.5v-9c0,-0.3 0.2,-0.5 0.5,-0.5c4.4,0 6.5,-2.8 6.5,-8.5c0,-4.1 -2.2,-5 -3,-5c-0.3,0 -0.5,-0.2 -0.5,-0.5c0,-0.3 0.2,-0.5 0.5,-0.5c1.1,0 4,1.1 4,6c0,6.1 -2.4,9.3 -7,9.5v8.5c0,2.5 2,4.5 4.5,4.5h4c2.5,0 4.5,-2 4.5,-4.5v-0.5c0,-0.3 0.2,-0.5 0.5,-0.5c0.3,0 0.5,0.2 0.5,0.5v0.5c0,3 -2.5,5.5 -5.5,5.5Z"></path><path d="M24,22c-0.8,0 -1.5,-0.7 -1.5,-1.5c0,-0.8 0.7,-1.5 1.5,-1.5c0.8,0 1.5,0.7 1.5,1.5c0,0.8 -0.7,1.5 -1.5,1.5Zm0,-2c-0.3,0 -0.5,0.2 -0.5,0.5c0,0.3 0.2,0.5 0.5,0.5c0.3,0 0.5,-0.2 0.5,-0.5c0,-0.3 -0.2,-0.5 -0.5,-0.5Z"></path><path d="M24,24c-1.9,0 -3.5,-1.6 -3.5,-3.5c0,-1.9 1.6,-3.5 3.5,-3.5c1.9,0 3.5,1.6 3.5,3.5c0,1.9 -1.6,3.5 -3.5,3.5Zm0,-6c-1.4,0 -2.5,1.1 -2.5,2.5c0,1.4 1.1,2.5 2.5,2.5c1.4,0 2.5,-1.1 2.5,-2.5c0,-1.4 -1.1,-2.5 -2.5,-2.5Z"></path><path d="M7.20711,0.292893c0.390524,0.390524 0.390524,1.02369 0,1.41421c-0.390524,0.390524 -1.02369,0.390524 -1.41421,0c-0.390524,-0.390524 -0.390524,-1.02369 0,-1.41421c0.390524,-0.390524 1.02369,-0.390524 1.41421,-2.22045e-16"></path><path d="M14.2071,0.292893c0.390524,0.390524 0.390524,1.02369 0,1.41421c-0.390524,0.390524 -1.02369,0.390524 -1.41421,0c-0.390524,-0.390524 -0.390524,-1.02369 0,-1.41421c0.390524,-0.390524 1.02369,-0.390524 1.41421,-2.22045e-16"></path></g></svg>