<?xml version="1.0" encoding="UTF-8"?>
<svg id="Layer_1" data-name="Layer 1" xmlns="http://www.w3.org/2000/svg" viewBox="0 0 30 30">
  <defs>
    <style>
      .cls-1 {
        fill: none;
        stroke: #4b286d;
        stroke-linecap: round;
        stroke-linejoin: round;
      }
    </style>
  </defs>
  <path class="cls-1" d="M8.26,28.64l-7.02-7.02c-.47-.47-.74-1.11-.74-1.78v-9.92c0-.67.27-1.31.74-1.78L8.26,1.12c.47-.47,1.11-.74,1.78-.74h9.92c.67,0,1.31.27,1.78.74l7.02,7.02c.47.47.74,1.11.74,1.78v9.92c0,.67-.27,1.31-.74,1.78l-7.02,7.02c-.47.47-1.11.74-1.78.74h-9.92c-.67,0-1.31-.27-1.78-.74Z"/>
  <path class="cls-1" d="M3.5,17.28c.07,1.18.94,2.11,2,2.11s2-1.01,2-2.25c0-1.83-1.65-2.14-2-2.25-.35-.11-2-.42-2-2.25,0-1.24.9-2.25,2-2.25s1.93.93,2,2.11"/>
  <line class="cls-1" x1="9" y1="10.38" x2="14" y2="10.38"/>
  <line class="cls-1" x1="11.5" y1="10.38" x2="11.5" y2="19.38"/>
  <path class="cls-1" d="M19.5,12.38c0-1.1-.9-2-2-2h0c-1.1,0-2,.9-2,2v5c0,1.1.9,2,2,2h0c1.1,0,2-.9,2-2v-5Z"/>
  <path class="cls-1" d="M22.5,19.38v-9h2.96c.7,0,1.04.65,1.04,1.35v2.52c0,.7-.35,1.13-1.04,1.13h-2.46"/>
</svg>