<?xml version="1.0" encoding="UTF-8"?><svg version="1.1" viewBox="0 0 30 30" xmlns="http://www.w3.org/2000/svg" xmlns:xlink="http://www.w3.org/1999/xlink"><!--Generated by IJSVG (https://github.com/iconjar/IJSVG)--><path d="M23.1317,9.86827c4.49103,4.49103 4.49103,11.7724 0,16.2635c-4.49103,4.49103 -11.7724,4.49103 -16.2635,0c-4.49103,-4.49103 -4.49103,-11.7724 0,-16.2635c4.49103,-4.49103 11.7724,-4.49103 16.2635,0" stroke-linecap="round" stroke-width="1" stroke="#4B286D" fill="none" stroke-linejoin="round"></path><path fill="#4B286D" d="M20.5,23c-0.12,0 -0.24,-0.04 -0.34,-0.13l-5.5,-5c-0.1,-0.09 -0.16,-0.23 -0.16,-0.37v-6c0,-0.28 0.22,-0.5 0.5,-0.5c0.28,0 0.5,0.22 0.5,0.5v5.78l5.34,4.85c0.21,0.19 0.22,0.5 0.03,0.71c-0.1,0.11 -0.23,0.16 -0.37,0.16Zm-3.5,-15.83c-0.28,0 -0.5,-0.22 -0.5,-0.5v-2.67h-3v2.67c0,0.28 -0.22,0.5 -0.5,0.5c-0.28,0 -0.5,-0.22 -0.5,-0.5v-2.67h-2c-0.28,0 -0.5,-0.22 -0.5,-0.5v-3c0,-0.28 0.22,-0.5 0.5,-0.5h9c0.28,0 0.5,0.22 0.5,0.5v3c0,0.28 -0.22,0.5 -0.5,0.5h-2v2.67c0,0.28 -0.22,0.5 -0.5,0.5Zm2,-4.17v-2h-8v2h8Z"></path><g stroke-linecap="round" stroke-width="1" stroke="#4B286D" fill="none" stroke-linejoin="round"><path d="M23.06,9.44l1.5,-1.5"></path><path d="M24.06,6.94l1.5,1.5"></path><path d="M15,7v1"></path><path d="M15,28v1"></path><path d="M26,18h-1"></path><path d="M5,18h-1"></path><path d="M9.5,8.47l0.5,0.87"></path><path d="M20,26.66l0.5,0.87"></path><path d="M5.47,12.5l0.87,0.5"></path><path d="M23.66,23l0.87,0.5"></path><path d="M5.47,23.5l0.87,-0.5"></path><path d="M23.66,13l0.87,-0.5"></path><path d="M9.5,27.53l0.5,-0.87"></path><path d="M20,9.34l0.5,-0.87"></path></g></svg>