<?xml version="1.0" encoding="UTF-8"?>
<svg id="Layer_1" data-name="Layer 1" xmlns="http://www.w3.org/2000/svg" viewBox="0 0 30 30">
  <defs>
    <style>
      .cls-1 {
        fill: none;
        stroke: #4b286d;
        stroke-linecap: round;
        stroke-linejoin: round;
      }
    </style>
  </defs>
  <path class="cls-1" d="M24.85,11.01H3.95c-.66,0-1.19-.53-1.19-1.19v-4.75c0-.66.53-1.19,1.19-1.19h20.9c.31,0,.62.12.84.35l2.38,2.38c.46.46.46,1.22,0,1.68l-2.38,2.38c-.22.22-.53.35-.84.35ZM7.42,21.71h16.74c.66,0,1.19-.53,1.19-1.19v-4.75c0-.66-.53-1.19-1.19-1.19H7.42c-.31,0-.62.12-.84.35l-2.38,2.38c-.46.46-.46,1.22,0,1.68l2.38,2.38c.22.22.53.35.84.35ZM17.03,3.88v-1.19c0-.65-.53-1.19-1.19-1.19h-1.19c-.65,0-1.19.53-1.19,1.19v1.19M17.03,14.58v-3.57M13.46,14.58v-3.57M17.03,21.71v5.94c0,.65-.53,1.19-1.19,1.19h-1.19c-.65,0-1.19-.53-1.19-1.19v-5.94"/>
</svg>