<?xml version="1.0" encoding="UTF-8"?><svg version="1.1" viewBox="0 0 30 30" xmlns="http://www.w3.org/2000/svg" xmlns:xlink="http://www.w3.org/1999/xlink"><!--Generated by IJSVG (https://github.com/iconjar/IJSVG)--><g fill="#4B286D"><path d="M26.5,27h-23c-1.93,0 -3.5,-1.57 -3.5,-3.5v-14c0,-1.93 1.57,-3.5 3.5,-3.5h23c1.93,0 3.5,1.57 3.5,3.5v14c0,1.93 -1.57,3.5 -3.5,3.5Zm-23,-20c-1.379,0 -2.5,1.121 -2.5,2.5v14c0,1.379 1.121,2.5 2.5,2.5h23c1.379,0 2.5,-1.121 2.5,-2.5v-14c0,-1.379 -1.121,-2.5 -2.5,-2.5h-23Z"></path><path d="M19.5,7h-9c-0.276,0 -0.5,-0.224 -0.5,-0.5v-2c0,-1.379 1.121,-2.5 2.5,-2.5h5c1.379,0 2.5,1.121 2.5,2.5v2c0,0.276 -0.224,0.5 -0.5,0.5Zm-8.5,-1h8v-1.5c0,-0.827 -0.673,-1.5 -1.5,-1.5h-5c-0.827,0 -1.5,0.673 -1.5,1.5v1.5Z"></path><path d="M8.5,27h-3c-0.276,0 -0.5,-0.224 -0.5,-0.5v-20c0,-0.276 0.224,-0.5 0.5,-0.5h3c0.276,0 0.5,0.224 0.5,0.5v20c0,0.276 -0.224,0.5 -0.5,0.5Zm-2.5,-1h2v-19h-2v19Z"></path><path d="M24.5,27h-3c-0.276,0 -0.5,-0.224 -0.5,-0.5v-20c0,-0.276 0.224,-0.5 0.5,-0.5h3c0.276,0 0.5,0.224 0.5,0.5v20c0,0.276 -0.224,0.5 -0.5,0.5Zm-2.5,-1h2v-19h-2v19Z"></path></g></svg>