<?xml version="1.0" encoding="UTF-8"?><svg version="1.1" viewBox="0 0 30 30" xmlns="http://www.w3.org/2000/svg" xmlns:xlink="http://www.w3.org/1999/xlink"><!--Generated by IJSVG (https://github.com/iconjar/IJSVG)--><path style="display:none;" d="M27.6,29.4h-9.7c-0.9,0 -1.8,-1 -1.8,-2v-19.3c0,-1.1 0.8,-2 1.8,-2h9.7c0.9,0 1.8,1 1.8,2v19.2c-3.55271e-15,1.3 -0.7,2.1 -1.8,2.1Zm-11.4,-2.8h13.2m-13.2,-17.4h13.2m-7,-1.6h0.8" stroke-linecap="round" stroke-width="1.0084" stroke="#4B286D" fill="none" stroke-linejoin="round"></path><path fill="#4B286D" d="M0,2.5v25c0,1.4 1.1,2.5 2.5,2.5h12.5c0.3,0 0.5,-0.2 0.5,-0.5c0,-0.3 -0.2,-0.5 -0.5,-0.5h-12.5c-0.8,0 -1.5,-0.7 -1.5,-1.5v-25c0,-0.8 0.7,-1.5 1.5,-1.5h17c0.8,0 1.5,0.7 1.5,1.5v2c0,0.3 0.2,0.5 0.5,0.5c0.3,0 0.5,-0.2 0.5,-0.5v-2c0,-1.4 -1.1,-2.5 -2.5,-2.5h-17c-1.4,0 -2.5,1.1 -2.5,2.5Z"></path><g fill="#4B286D"><path d="M11.7071,26.7929c0.390524,0.390524 0.390524,1.02369 0,1.41421c-0.390524,0.390524 -1.02369,0.390524 -1.41421,0c-0.390524,-0.390524 -0.390524,-1.02369 0,-1.41421c0.390524,-0.390524 1.02369,-0.390524 1.41421,0"></path><path d="M2.5,26h11c0.3,0 0.5,-0.2 0.5,-0.5c0,-0.3 -0.2,-0.5 -0.5,-0.5h-10.5v-22h16v1.5c0,0.3 0.2,0.5 0.5,0.5c0.3,0 0.5,-0.2 0.5,-0.5v-2c0,-0.3 -0.2,-0.5 -0.5,-0.5h-17c-0.3,0 -0.5,0.2 -0.5,0.5v23c0,0.3 0.2,0.5 0.5,0.5Z"></path></g><path fill="none" stroke="#4B286D" stroke-linecap="round" stroke-linejoin="round" stroke-width="1" d="M27.7,29.5h-10.3c-1,0 -1.8,-0.9 -1.8,-2v-19.3c0,-1.1 0.8,-2 1.8,-2h10.3c1,0 1.8,0.9 1.8,2v19.4c0,1 -0.7,1.9 -1.8,1.9Zm-11.6,-2.9h13.1m-13.5,-17.4h13.5m-6.7,-1.5h1"></path></svg>