<?xml version="1.0" encoding="UTF-8"?><svg version="1.1" viewBox="0 0 30 30" xmlns="http://www.w3.org/2000/svg" xmlns:xlink="http://www.w3.org/1999/xlink"><!--Generated by IJSVG (https://github.com/iconjar/IJSVG)--><path d="M15,26.5c-0.552,0 -1,0.448 -1,1c0,0.552 0.448,1 1,1c0.552,0 1,-0.448 1,-1c0,-0.552 -0.448,-1 -1,-1Zm8,-26.5h-16c-1.654,0 -3,1.346 -3,3v24c0,1.654 1.346,3 3,3h16c1.654,0 3,-1.346 3,-3v-24c0,-1.654 -1.346,-3 -3,-3Zm2,27c0,1.103 -0.897,2 -2,2h-16c-1.103,0 -2,-0.897 -2,-2v-24c0,-1.103 0.897,-2 2,-2h16c1.103,0 2,0.897 2,2v24Zm-1.5,-25h-17c-0.276,0 -0.5,0.224 -0.5,0.5v23c0,0.276 0.224,0.5 0.5,0.5h17c0.276,0 0.5,-0.224 0.5,-0.5v-23c0,-0.276 -0.224,-0.5 -0.5,-0.5Zm-0.5,23h-16v-22h16v22Z" fill="#4B286D"></path></svg>