<?xml version="1.0" encoding="UTF-8"?><svg version="1.1" viewBox="0 0 30 30" xmlns="http://www.w3.org/2000/svg" xmlns:xlink="http://www.w3.org/1999/xlink"><!--Generated by IJSVG (https://github.com/iconjar/IJSVG)--><g stroke-linecap="round" stroke-width="1" stroke="#4B286D" fill="none" stroke-linejoin="round"><path d="M23.8388,6.16117c4.88155,4.88155 4.88155,12.7961 0,17.6777c-4.88155,4.88155 -12.7961,4.88155 -17.6777,0c-4.88155,-4.88155 -4.88155,-12.7961 -1.77636e-15,-17.6777c4.88155,-4.88155 12.7961,-4.88155 17.6777,-1.77636e-15"></path><path d="M18.182,11.818c1.75736,1.75736 1.75736,4.6066 0,6.36396c-1.75736,1.75736 -4.6066,1.75736 -6.36396,0c-1.75736,-1.75736 -1.75736,-4.6066 0,-6.36396c1.75736,-1.75736 4.6066,-1.75736 6.36396,0"></path><path d="M15,0.5v5m0,19v5m-14.5,-14.5h5m19,0h5"></path></g></svg>