<?xml version="1.0" encoding="UTF-8"?><svg version="1.1" viewBox="0 0 30 30" xmlns="http://www.w3.org/2000/svg" xmlns:xlink="http://www.w3.org/1999/xlink"><!--Generated by IJSVG (https://github.com/iconjar/IJSVG)--><g stroke-linecap="round" stroke-width="1" stroke="#4B286D" fill="none" stroke-linejoin="round"><path d="M23,13.5h-16l-2.84124e-07,-7.10543e-15c-3.58985,-1.56917e-07 -6.5,-2.91015 -6.5,-6.5c1.56917e-07,-3.58985 2.91015,-6.5 6.5,-6.5h16l-2.84124e-07,7.10543e-15c3.58985,-1.56917e-07 6.5,2.91015 6.5,6.5c1.56917e-07,3.58985 -2.91015,6.5 -6.5,6.5Zm0,16h-16l-2.84124e-07,-7.10543e-15c-3.58985,-1.56917e-07 -6.5,-2.91015 -6.5,-6.5c1.56917e-07,-3.58985 2.91015,-6.5 6.5,-6.5h16l-2.84124e-07,7.10543e-15c3.58985,-1.56917e-07 6.5,2.91015 6.5,6.5c1.56917e-07,3.58985 -2.91015,6.5 -6.5,6.5Z"></path><path d="M9.47487,4.52513c1.36684,1.36684 1.36684,3.58291 0,4.94975c-1.36684,1.36684 -3.58291,1.36684 -4.94975,1.77636e-15c-1.36684,-1.36684 -1.36684,-3.58291 -8.88178e-16,-4.94975c1.36684,-1.36684 3.58291,-1.36684 4.94975,-8.88178e-16"></path><path d="M25.4749,20.5251c1.36684,1.36684 1.36684,3.58291 0,4.94975c-1.36684,1.36684 -3.58291,1.36684 -4.94975,0c-1.36684,-1.36684 -1.36684,-3.58291 0,-4.94975c1.36684,-1.36684 3.58291,-1.36684 4.94975,0"></path></g></svg>