<?xml version="1.0" encoding="UTF-8"?><svg version="1.1" viewBox="0 0 30 30" xmlns="http://www.w3.org/2000/svg" xmlns:xlink="http://www.w3.org/1999/xlink"><!--Generated by IJSVG (https://github.com/iconjar/IJSVG)--><g fill="#4B286D"><path d="M3.652,30c-0.949,0 -1.838,-0.368 -2.507,-1.037l-0.115,-0.12c-0.662,-0.662 -1.03,-1.551 -1.03,-2.495c0,-0.949 0.368,-1.837 1.036,-2.506l8.694,-7.844c0.092,-0.083 0.211,-0.129 0.335,-0.129v0c0.001,0 0.001,0 0.002,0c0.538,0 1.045,-0.21 1.427,-0.592c0.195,-0.195 0.512,-0.195 0.707,0c0.195,0.195 0.195,0.512 0,0.707c-0.523,0.524 -1.205,0.832 -1.937,0.878l-8.54,7.704c-0.453,0.455 -0.724,1.109 -0.724,1.777c0,0.683 0.264,1.32 0.743,1.8l0.115,0.12c0.945,0.944 2.641,0.942 3.589,-0.006c5.886,-6.354 7.403,-7.99 7.799,-8.417c0.048,-0.73 0.355,-1.41 0.878,-1.933c0.195,-0.195 0.512,-0.195 0.707,0c0.195,0.195 0.195,0.512 0,0.707c-0.382,0.382 -0.592,0.89 -0.592,1.43c0,0.134 -0.054,0.262 -0.149,0.356c-0.126,0.134 -7.922,8.55 -7.922,8.55c-0.672,0.672 -1.584,1.05 -2.516,1.05Z"></path><path d="M17.837,14.554c-0.128,0 -0.256,-0.049 -0.354,-0.146c-0.195,-0.195 -0.195,-0.512 0,-0.707l7.25,-7.25c0.094,-0.094 0.221,-0.146 0.354,-0.146h1.583l2.222,-4.445l-0.751,-0.751l-4.445,2.222v1.583c0,0.133 -0.053,0.26 -0.146,0.354l-7.25,7.25c-0.195,0.195 -0.512,0.195 -0.707,0c-0.195,-0.195 -0.195,-0.512 0,-0.707l7.104,-7.104v-1.686c0,-0.189 0.107,-0.362 0.276,-0.447l5.044,-2.521c0.193,-0.096 0.425,-0.059 0.577,0.094l1.261,1.261c0.152,0.152 0.189,0.385 0.094,0.577l-2.521,5.043c-0.085,0.169 -0.258,0.276 -0.447,0.276h-1.685l-7.104,7.104c-0.099,0.097 -0.227,0.146 -0.355,0.146Z"></path><path d="M27.608,30c-0.848,0 -1.644,-0.33 -2.243,-0.929l-15.965,-16.412c-0.511,-0.524 -1.264,-0.732 -1.971,-0.542c-0.587,0.158 -0.985,0.231 -1.256,0.231c-1.693,0 -3.331,-0.707 -4.493,-1.939c-1.177,-1.251 -1.77,-2.887 -1.668,-4.607c0.01,-0.168 0.104,-0.32 0.249,-0.404c0.157,-0.09 0.377,-0.103 0.532,-0.009l3.512,2.106l0.021,-0.011c1.137,-0.568 1.873,-1.672 1.968,-2.924l-3.923,-2.354c-0.141,-0.084 -0.23,-0.231 -0.242,-0.394c-0.011,-0.164 0.058,-0.322 0.184,-0.424c1.088,-0.878 2.377,-1.357 3.729,-1.387c1.509,-0.015 3.004,0.599 4.186,1.779c1.536,1.535 2.132,3.473 1.77,5.761c-0.104,0.66 0.112,1.325 0.581,1.78l16.487,16.038c0.604,0.603 0.934,1.4 0.934,2.248c0,1.32 -1.073,2.393 -2.392,2.393Zm-19.656,-18.953c0.804,0 1.589,0.322 2.165,0.915l15.96,16.407c0.405,0.405 0.951,0.631 1.531,0.631c0.768,0 1.392,-0.624 1.392,-1.391c0,-0.582 -0.227,-1.128 -0.637,-1.538l-16.482,-16.033c-0.701,-0.681 -1.026,-1.673 -0.872,-2.653c0.31,-1.954 -0.191,-3.602 -1.488,-4.898c-0.986,-0.985 -2.17,-1.527 -3.458,-1.486c-0.89,0.019 -1.748,0.273 -2.52,0.742l3.518,2.111c0.151,0.09 0.243,0.253 0.243,0.429c0,1.746 -0.971,3.315 -2.532,4.097l-0.267,0.133c-0.153,0.074 -0.335,0.068 -0.48,-0.019l-3,-1.799c0.111,1.131 0.588,2.185 1.383,3.028c0.988,1.048 2.325,1.625 3.766,1.625c0.099,0 0.359,-0.025 0.996,-0.197c0.258,-0.07 0.521,-0.104 0.782,-0.104Z"></path></g></svg>