<?xml version="1.0" encoding="UTF-8"?>
<svg id="Layer_1" data-name="Layer 1" xmlns="http://www.w3.org/2000/svg" viewBox="0 0 30 30">
  <defs>
    <style>
      .cls-1 {
        fill: none;
        stroke: #4b286d;
        stroke-linecap: round;
        stroke-linejoin: round;
      }
    </style>
  </defs>
  <circle class="cls-1" cx="6.77" cy="24.7" r="1.52"/>
  <path class="cls-1" d="M.83,19.48l3.97.97,3.14-.49c.26-.04.76.71.88.89.62.93,1.23,2.44-.23,2.98"/>
  <line class="cls-1" x1=".83" y1="27.63" x2="5.15" y2="25.43"/>
  <polyline class="cls-1" points=".83 23.17 3.42 21.75 .83 20.89"/>
  <line class="cls-1" x1="8.81" y1="20.86" x2="7.53" y2="21.41"/>
  <g>
    <path class="cls-1" d="M19.61,23.56l-3.79-7.44c-.31-.5-.86-.81-1.46-.81h-1.63l2.75,8.25"/>
    <g>
      <line class="cls-1" x1="23.05" y1="22.84" x2="23.74" y2="22.84"/>
      <line class="cls-1" x1="23.74" y1="27.65" x2="14.8" y2="27.65"/>
      <polyline class="cls-1" points="23.05 17.34 23.05 21.46 26.49 21.46"/>
      <path class="cls-1" d="M11.02,27.65h-1.72l1.38-4.09h8.94v-10.34h5.29c.47.02.92.18,1.3.44l1.81,1.76c.46,0,.9.19,1.23.51v1.41l-.69.34v3.44l.69.44v4.34c0,.96-.77,1.75-1.73,1.76"/>
      <line class="cls-1" x1="12.05" y1="22.87" x2="13.42" y2="22.87"/>
      <line class="cls-1" x1="25.8" y1="15.96" x2="21.67" y2="15.96"/>
      <circle class="cls-1" cx="25.44" cy="27.32" r="1.73"/>
      <circle class="cls-1" cx="13.06" cy="27.32" r="1.72"/>
    </g>
    <path class="cls-1" d="M12.74,15.31v4.81c0,.38-.46.69-1.03.69s-1.16-.3-1.8-.59"/>
  </g>
</svg>