<?xml version="1.0" encoding="UTF-8"?><svg version="1.1" viewBox="0 0 30 30" xmlns="http://www.w3.org/2000/svg" xmlns:xlink="http://www.w3.org/1999/xlink"><!--Generated by IJSVG (https://github.com/iconjar/IJSVG)--><path d="M29.968,16.324l-3,-8c-0.073,-0.195 -0.26,-0.324 -0.468,-0.324h-6.5v-2.039c0,-1.632 -1.36,-2.961 -3.033,-2.961h-13.934c-1.673,0 -3.033,1.328 -3.033,2.961v17.289c0,0.965 0.785,1.75 1.75,1.75h2.434c0.415,1.161 1.514,2 2.816,2c1.302,0 2.401,-0.839 2.816,-2h11.369c0.414,1.161 1.514,2 2.816,2c1.302,0 2.401,-0.839 2.816,-2h1.434c0.965,0 1.75,-0.785 1.75,-1.75v-6.75c-0.001,-0.06 -0.012,-0.12 -0.033,-0.176Zm-28.968,-10.363c0,-1.081 0.912,-1.961 2.033,-1.961h13.934c1.121,0 2.033,0.879 2.033,1.961v2.461c0,0.014 0.007,0.025 0.008,0.039c-0.001,0.014 -0.008,0.025 -0.008,0.039v10.5h-18v-13.039Zm6,20.039c-1.103,0 -2,-0.897 -2,-2c0,-1.103 0.897,-2 2,-2c1.103,0 2,0.897 2,2c0,1.103 -0.897,2 -2,2Zm17,0c-1.103,0 -2,-0.897 -2,-2c0,-1.103 0.897,-2 2,-2c1.103,0 2,0.897 2,2c0,1.103 -0.897,2 -2,2Zm5,-2.75c0,0.414 -0.337,0.75 -0.75,0.75h-1.25c0,-1.654 -1.346,-3 -3,-3c-1.654,0 -3,1.346 -3,3h-11c0,-1.654 -1.346,-3 -3,-3c-1.654,0 -3,1.346 -3,3h-2.25c-0.413,0 -0.75,-0.336 -0.75,-0.75v-3.25h18.5c0.276,0 0.5,-0.224 0.5,-0.5v-10.5h6.153l2.847,7.591v6.659Zm-7,-12.75c0,-0.276 -0.224,-0.5 -0.5,-0.5c-0.276,0 -0.5,0.224 -0.5,0.5v5c0,0.276 0.224,0.5 0.5,0.5h5c0.276,0 0.5,-0.224 0.5,-0.5c0,-0.276 -0.224,-0.5 -0.5,-0.5h-4.5v-4.5Z" fill="#4B286D"></path></svg>