<?xml version="1.0" encoding="UTF-8"?><svg version="1.1" viewBox="0 0 30 30" xmlns="http://www.w3.org/2000/svg" xmlns:xlink="http://www.w3.org/1999/xlink"><!--Generated by IJSVG (https://github.com/iconjar/IJSVG)--><path d="M28.5,2.5h-27c-0.8,0 -1.5,0.7 -1.5,1.5v18c0,0.8 0.7,1.5 1.5,1.5h11.5v1.1l-7.6,1.9c-0.3,0.1 -0.4,0.3 -0.4,0.6c0.1,0.3 0.3,0.4 0.6,0.4l7.9,-2h2.9l7.9,2c0,0 0.1,0 0.1,0c0.2,0 0.4,-0.2 0.5,-0.4c0.1,-0.3 -0.1,-0.5 -0.4,-0.6l-7.5,-1.9v-1.1h11.5c0.8,0 1.5,-0.7 1.5,-1.5v-18c0,-0.8 -0.7,-1.5 -1.5,-1.5Zm-12.5,22h-2v-1h2v1Zm13,-2.5c0,0.3 -0.2,0.5 -0.5,0.5h-27c-0.3,0 -0.5,-0.2 -0.5,-0.5v-18c0,-0.3 0.2,-0.5 0.5,-0.5h27c0.3,0 0.5,0.2 0.5,0.5v18Z" fill="#4B286D"></path></svg>