<?xml version="1.0" encoding="UTF-8"?><svg version="1.1" viewBox="0 0 30 30" xmlns="http://www.w3.org/2000/svg" xmlns:xlink="http://www.w3.org/1999/xlink"><!--Generated by IJSVG (https://github.com/iconjar/IJSVG)--><g fill="#4B286D"><path d="M29,14h-0.3c-0.2,0 -0.4,-0.1 -0.5,-0.3c-0.6,-1.3 -2.5,-2.7 -4.3,-2.7c-1.8,0 -3.3,1.4 -3.9,2.7c-0.1,0.2 -0.3,0.3 -0.5,0.3h-0.5c-0.2,0 -0.4,-0.1 -0.5,-0.3c-0.5,-1.3 -1.8,-2.7 -3.5,-2.7c-1.9,0 -3.3,0.9 -4,2.7c-0.1,0.2 -0.3,0.3 -0.5,0.3h-0.6c-0.2,0 -0.4,-0.1 -0.5,-0.3c-0.5,-1.3 -2,-2.7 -3.8,-2.7c-1.7,0 -3.3,1.4 -3.8,2.7c-0.1,0.2 -0.3,0.3 -0.5,0.3h-0.3c-0.3,0 -0.5,-0.2 -0.5,-0.5c0,-6.7 6.8,-12.5 14.5,-12.5c7.7,0 14.5,5.8 14.5,12.5c0,0.3 -0.2,0.5 -0.5,0.5Zm-14,-4c2.1,0 3.5,1.5 4.3,2.9c0.8,-1.5 2.6,-2.9 4.6,-2.9c1.7,0 3.4,1 4.5,2.1c-0.9,-5.5 -6.7,-10.1 -13.4,-10.1c-6.6,0 -12.5,4.5 -13.4,10c0.9,-1.1 2.4,-2 4,-2c2.1,0 3.8,1.4 4.6,2.9c1,-1.9 2.6,-2.9 4.8,-2.9Z"></path><path d="M9.9,14c-0.3,0 -0.5,-0.2 -0.5,-0.5c0,-4.2 2.1,-12.3 5.3,-12.3c0.3,0 0.5,0.2 0.5,0.5c0,0.3 -0.2,0.6 -0.4,0.6c-2.2,0 -4.3,7.1 -4.3,11.3c-0.1,0.2 -0.3,0.4 -0.6,0.4Z"></path><path d="M19,14c-0.3,0 -0.5,-0.2 -0.5,-0.5c0,-4.5 -1.5,-11.2 -3.6,-11.2c-0.3,-8.88178e-16 -0.5,-0.2 -0.5,-0.5c0,-0.3 0.2,-0.5 0.5,-0.5c3.2,0 4.6,8.1 4.6,12.3c0,0.2 -0.2,0.4 -0.5,0.4Z"></path><path d="M15,2c-0.3,0 -0.5,-0.2 -0.5,-0.5v-1c0,-0.3 0.2,-0.5 0.5,-0.5c0.3,0 0.5,0.2 0.5,0.5v1c0,0.3 -0.2,0.5 -0.5,0.5Z"></path><path d="M12.5,30c-1.7,0 -3,-1.3 -3,-3c0,-1.6 0.7,-2.2 0.8,-2.3c0.2,-0.2 0.5,-0.1 0.7,0.1c0.2,0.2 0.1,0.5 -0.1,0.7c0,0 -0.4,0.4 -0.4,1.5c0,1.1 0.9,2 2,2c1.1,0 2,-1 2,-2.1v-15.9c0,-0.3 0.2,-0.5 0.5,-0.5c0.3,0 0.5,0.2 0.5,0.5v15.9c0,1.7 -1.4,3.1 -3,3.1Z"></path></g></svg>