<?xml version="1.0" encoding="UTF-8"?><svg version="1.1" viewBox="0 0 30 30" xmlns="http://www.w3.org/2000/svg" xmlns:xlink="http://www.w3.org/1999/xlink"><!--Generated by IJSVG (https://github.com/iconjar/IJSVG)--><path d="M6.5,3h-2c-0.276,0 -0.5,0.224 -0.5,0.5v2c0,0.276 0.224,0.5 0.5,0.5h2c0.276,0 0.5,-0.224 0.5,-0.5v-2c0,-0.276 -0.224,-0.5 -0.5,-0.5Zm-0.5,2h-1v-1h1v1Zm18.5,-5c-3.033,0 -5.5,2.467 -5.5,5.5v18.25c0,2.895 -2.355,5.25 -5.25,5.25c-2.818,0 -5.107,-2.237 -5.227,-5.026c4.167,-0.272 7.477,-3.739 7.477,-7.974v-4.25c0,-0.696 -0.411,-1.293 -1,-1.575v-9.675c0,-0.276 -0.224,-0.5 -0.5,-0.5h-13c-0.276,0 -0.5,0.224 -0.5,0.5v9.675c-0.589,0.282 -1,0.879 -1,1.575v4.25c0,4.246 3.328,7.721 7.511,7.975c0.12,3.341 2.869,6.025 6.239,6.025c3.446,0 6.25,-2.804 6.25,-6.25v-18.25c0,-2.481 2.019,-4.5 4.5,-4.5c2.481,0 4.5,2.019 4.5,4.5v5c0,0.276 0.224,0.5 0.5,0.5c0.276,0 0.5,-0.224 0.5,-0.5v-5c0,-3.033 -2.467,-5.5 -5.5,-5.5Zm-22.5,1h12v9h-12v-9Zm-1,15v-4.25c0,-0.414 0.336,-0.75 0.75,-0.75h12.5c0.414,0 0.75,0.336 0.75,0.75v4.25c0,3.86 -3.14,7 -7,7c-3.86,0 -7,-3.14 -7,-7Zm10.5,-13h-2c-0.276,0 -0.5,0.224 -0.5,0.5v2c0,0.276 0.224,0.5 0.5,0.5h2c0.276,0 0.5,-0.224 0.5,-0.5v-2c0,-0.276 -0.224,-0.5 -0.5,-0.5Zm-0.5,2h-1v-1h1v1Z" fill="#4B286D"></path></svg>