<?xml version="1.0" encoding="UTF-8"?><svg version="1.1" viewBox="0 0 30 30" xmlns="http://www.w3.org/2000/svg" xmlns:xlink="http://www.w3.org/1999/xlink"><!--Generated by IJSVG (https://github.com/iconjar/IJSVG)--><path d="M25.5,0.5h-21c-2.481,0 -4.5,2.019 -4.5,4.5v14c0,2.481 2.019,4.5 4.5,4.5h1.5v5.5c0,0.193 0.111,0.368 0.285,0.451c0.068,0.033 0.142,0.049 0.215,0.049c0.112,0 0.224,-0.038 0.315,-0.111l7.282,-5.889h11.403c2.481,0 4.5,-2.019 4.5,-4.5v-14c0,-2.481 -2.019,-4.5 -4.5,-4.5Zm3.499,18.501c0,1.93 -1.57,3.5 -3.5,3.5h-11.58c-0.114,0 -0.225,0.039 -0.314,0.111l-6.605,5.341v-4.953c0,-0.276 -0.224,-0.5 -0.5,-0.5h-2c-1.93,0 -3.5,-1.57 -3.5,-3.5v-14c0,-1.93 1.57,-3.5 3.5,-3.5v0.001h20.999c1.93,0 3.5,1.57 3.5,3.5v14Zm-6.257,-12.438c-0.158,-0.087 -0.353,-0.083 -0.507,0.014l-3.235,2.021v-1.598c0,-0.133 -0.053,-0.261 -0.147,-0.355c-0.094,-0.094 -0.204,-0.106 -0.356,-0.145c-0.853,0.006 -8.723,0 -8.724,0c-1.399,0 -1.773,3.143 -1.773,5c0,1.857 0.374,5 1.773,5h8.727c0.273,0 0.496,-0.22 0.5,-0.492c0.003,-0.233 0.003,-0.984 0.002,-1.604l3.233,2.021c0.153,0.097 0.348,0.1 0.507,0.014c0.159,-0.089 0.258,-0.256 0.258,-0.438v-9c0,-0.182 -0.099,-0.35 -0.258,-0.438Zm-0.741,8.534l-3.235,-2.021c-0.155,-0.097 -0.349,-0.101 -0.508,-0.013c-0.159,0.088 -0.257,0.256 -0.257,0.438c0,0 0.003,1.244 0.002,1.999l-8.186,0.008c-0.241,-0.125 -0.817,-1.457 -0.817,-4.008c0,-2.551 0.576,-3.883 0.772,-4c0,0 6.269,0.004 8.228,0.001v1.999c0,0.182 0.099,0.349 0.259,0.437c0.158,0.087 0.353,0.083 0.507,-0.014l3.235,-2.021v7.195Z" fill="#4B286D"></path></svg>