<?xml version="1.0" encoding="UTF-8"?><svg version="1.1" viewBox="0 0 30 30" xmlns="http://www.w3.org/2000/svg" xmlns:xlink="http://www.w3.org/1999/xlink"><!--Generated by IJSVG (https://github.com/iconjar/IJSVG)--><g stroke-linecap="round" stroke-width="1" stroke="#4B286D" fill="none" stroke-linejoin="round"><path d="M20.5,24.5h-12h-8.74228e-08c-1.10457,-4.82823e-08 -2,-0.895431 -2,-2c0,0 0,0 0,0v-15l2.30926e-14,3.01992e-07c-1.66785e-07,-1.10457 0.89543,-2 2,-2h12h-8.74228e-08c1.10457,-4.82823e-08 2,0.89543 2,2v15v0c0,1.10457 -0.895431,2 -2,2Z"></path><path d="M21.24,5.65v-0.01c-0.73,-1.61 -1.24,-3.35 -1.24,-5.14h-11c0,1.79 -0.51,3.53 -1.24,5.14m0,18.72c0.73,1.61 1.24,3.35 1.24,5.14h11c0,-1.79 0.51,-3.53 1.24,-5.14v-0.01m1.26,-9.85h1c0.55,0 1,-0.45 1,-1v-3c0,-0.55 -0.45,-1 -1,-1h-1m-8,1v4.5l3.125,3.125"></path></g></svg>