<?xml version="1.0" encoding="UTF-8"?><svg version="1.1" viewBox="0 0 30 30" xmlns="http://www.w3.org/2000/svg" xmlns:xlink="http://www.w3.org/1999/xlink"><!--Generated by IJSVG (https://github.com/iconjar/IJSVG)--><g stroke-linecap="round" stroke-width="1" stroke="#4B286D" fill="none" stroke-linejoin="round"><path d="M6.1,11.7v1.1"></path><path d="M23.9,11.7v1.1"></path><path d="M23.9,19.4v-1.1"></path><path d="M9.8,7.2h10.4c1.4,0 2.6,1.2 2.6,2.6v10.4c0,1.4 -1.2,2.6 -2.6,2.6h-10.4c-1.4,0 -2.6,-1.2 -2.6,-2.6v-10.4c-8.88178e-16,-1.4 1.2,-2.6 2.6,-2.6Z"></path><path d="M10.6,7.2l1.1,-6.6h6.6l1.1,6.6"></path><path d="M10.6,22.8l1.1,6.6h6.6l1.1,-6.6"></path><path d="M9.5,9.5h11.1v11.1h-11.1Z"></path><path d="M8.3,22.8c0,1.2 1,2.2 2.2,2.2"></path><path d="M10.6,5c-1.3,0 -2.3,1 -2.3,2.2"></path><path d="M21.7,7.2c0,-1.2 -1,-2.2 -2.2,-2.2"></path><path d="M19.4,25c1.2,0 2.2,-1 2.2,-2.2"></path></g></svg>