<?xml version="1.0" encoding="UTF-8"?>
<svg id="Layer_1" data-name="Layer 1" xmlns="http://www.w3.org/2000/svg" viewBox="0 0 30 30">
  <defs>
    <style>
      .cls-1 {
        fill: none;
        stroke: #4b286d;
        stroke-linecap: round;
        stroke-linejoin: round;
      }
    </style>
  </defs>
  <line class="cls-1" x1="7.48" y1="26.5" x2="8.48" y2="23.5"/>
  <line class="cls-1" x1="7.48" y1="21.5" x2="8.48" y2="18.5"/>
  <line class="cls-1" x1="14.48" y1="26.5" x2="15.48" y2="23.5"/>
  <line class="cls-1" x1="20.48" y1="26.5" x2="21.48" y2="23.5"/>
  <line class="cls-1" x1="20.48" y1="21.5" x2="21.48" y2="18.5"/>
  <polygon class="cls-1" points="15.48 12.5 19.48 13.5 17.48 22 14.48 20.5 10.48 26.5 12.48 17 14.98 18.5 15.48 12.5"/>
  <path class="cls-1" d="M23.18,21.5s.09,0,.14-.02c3.59-.17,6.36-3.21,6.19-6.8s-3.21-6.36-6.8-6.19c-.54.03-1.08.12-1.6.28-1.93-4.44-7.1-6.48-11.54-4.55-2.91,1.26-4.91,4-5.23,7.15C1.59,12.09-.06,14.91.66,17.66c.58,2.22,2.57,3.79,4.86,3.85"/>
</svg>