<?xml version="1.0" encoding="UTF-8"?><svg version="1.1" viewBox="0 0 30 30" xmlns="http://www.w3.org/2000/svg" xmlns:xlink="http://www.w3.org/1999/xlink"><!--Generated by IJSVG (https://github.com/iconjar/IJSVG)--><g fill="#4B286D"><path d="M15,26c-1.103,0 -2,-0.897 -2,-2c0,-1.103 0.897,-2 2,-2c1.103,0 2,0.897 2,2c0,1.103 -0.897,2 -2,2Zm0,-3c-0.552,0 -1,0.448 -1,1c0,0.552 0.448,1 1,1c0.552,0 1,-0.448 1,-1c0,-0.552 -0.448,-1 -1,-1Z"></path><path d="M19.848,19.736c-0.112,0 -0.225,-0.037 -0.317,-0.114c-1.272,-1.046 -2.882,-1.622 -4.531,-1.622c-1.649,0 -3.259,0.576 -4.53,1.622c-0.212,0.176 -0.527,0.146 -0.703,-0.068c-0.176,-0.213 -0.146,-0.528 0.068,-0.703c1.449,-1.194 3.284,-1.851 5.165,-1.851c1.881,0 3.716,0.657 5.165,1.851c0.214,0.175 0.244,0.49 0.068,0.703c-0.098,0.12 -0.242,0.182 -0.385,0.182Z"></path><path d="M24.458,15.699c-0.121,0 -0.242,-0.044 -0.338,-0.132c-2.504,-2.3 -5.743,-3.567 -9.12,-3.567c-3.377,0 -6.616,1.267 -9.12,3.567c-0.202,0.187 -0.518,0.175 -0.706,-0.03c-0.187,-0.203 -0.174,-0.52 0.03,-0.706c2.689,-2.471 6.167,-3.831 9.796,-3.831c3.629,0 7.107,1.36 9.796,3.831c0.204,0.187 0.217,0.503 0.03,0.706c-0.098,0.108 -0.233,0.162 -0.368,0.162Z"></path><path d="M29,10.621c-0.124,0 -0.248,-0.046 -0.345,-0.138c-3.717,-3.536 -8.566,-5.483 -13.655,-5.483c-5.092,0 -9.941,1.94 -13.656,5.464c-0.199,0.189 -0.517,0.183 -0.706,-0.019c-0.19,-0.2 -0.183,-0.517 0.019,-0.706c3.9,-3.701 8.994,-5.739 14.343,-5.739c5.347,0 10.44,2.045 14.345,5.759c0.2,0.19 0.208,0.507 0.018,0.707c-0.099,0.103 -0.231,0.155 -0.363,0.155Z"></path></g></svg>