<?xml version="1.0" encoding="UTF-8"?><svg version="1.1" viewBox="0 0 30 30" xmlns="http://www.w3.org/2000/svg" xmlns:xlink="http://www.w3.org/1999/xlink"><!--Generated by IJSVG (https://github.com/iconjar/IJSVG)--><g stroke-linecap="round" stroke-width="1" stroke="#4B286D" fill="none" stroke-linejoin="round"><path style="display:none;" d="M16.4142,16.0858c0.781049,0.781049 0.781049,2.04738 0,2.82843c-0.781049,0.781049 -2.04738,0.781049 -2.82843,0c-0.781049,-0.781049 -0.781049,-2.04738 0,-2.82843c0.781049,-0.781049 2.04738,-0.781049 2.82843,0"></path><path d="M8.5,20.5h-1.7c-3.5,0 -6.3,-2.8 -6.3,-6.2c0,-3.1 2.3,-5.6 5.2,-6.1c0.8,-4.3 4.7,-7.6 9.3,-7.6c4.2,0 7.7,2.7 9,6.4c3.2,0.6 5.5,3.4 5.5,6.7c0,3.8 -3.1,6.9 -6.9,6.9h-1.1"></path><path d="M15.9192,15.5808c0.507682,0.507682 0.507682,1.3308 0,1.83848c-0.507682,0.507682 -1.3308,0.507682 -1.83848,0c-0.507682,-0.507682 -0.507682,-1.3308 0,-1.83848c0.507682,-0.507682 1.3308,-0.507682 1.83848,0"></path><path d="M11.3,20.1c1,0.9 2.3,1.5 3.7,1.5c1.4,0 2.7,-0.6 3.7,-1.5m-10.2,2.7c1.7,1.6 4,2.6 6.5,2.6c2.5,0 4.8,-1 6.5,-2.6m2.8,2.7c-2.4,2.3 -5.7,3.8 -9.3,3.8c-3.6,0 -6.9,-1.4 -9.3,-3.8"></path></g></svg>